<svg xmlns="http://www.w3.org/2000/svg" viewBox="0 0 70.38 93.56"><defs><style>.cls-1,.cls-3{fill:none;}.cls-1,.cls-2,.cls-3{stroke:#1547fe;stroke-miterlimit:10;stroke-width:2px;}.cls-2,.cls-4{fill:#bed8fd;}.cls-3{stroke-linecap:round;}.cls-5{fill:#1547fe;}</style></defs><title>icon_3</title><g id="Слой_2" data-name="Слой 2"><g id="Слой_1-2" data-name="Слой 1"><circle class="cls-1" cx="11.3" cy="77.11" r="5.15"/><path class="cls-2" d="M11.3,82.26A10.3,10.3,0,0,0,1,92.56H21.6A10.3,10.3,0,0,0,11.3,82.26Z"/><circle class="cls-1" cx="59.08" cy="77.11" r="5.15"/><path class="cls-2" d="M59.08,82.26a10.3,10.3,0,0,0-10.3,10.3h20.6A10.3,10.3,0,0,0,59.08,82.26Z"/><line class="cls-3" x1="35.08" y1="63.87" x2="35.08" y2="76.17"/><line class="cls-3" x1="35.08" y1="76.17" x2="43.78" y2="84.86"/><line class="cls-3" x1="35.08" y1="76.17" x2="26.39" y2="84.86"/><path class="cls-4" d="M28.28,49.23v2a7.43,7.43,0,0,0,7.41,7.41h0a7.43,7.43,0,0,0,7.41-7.41v-2Z"/><path class="cls-1" d="M44.73,40.8a5,5,0,0,0-1.88,3.89l0,6.51a7.43,7.43,0,0,1-7.41,7.41h0a7.43,7.43,0,0,1-7.41-7.41l0-6a4.81,4.81,0,0,0-1.92-3.86,15.2,15.2,0,1,1,18.63-.52Z"/><line class="cls-3" x1="35.44" y1="8.48" x2="35.44" y2="1"/><line class="cls-3" x1="20.72" y1="14.28" x2="15.43" y2="8.99"/><line class="cls-3" x1="14.41" y1="28.8" x2="6.92" y2="28.8"/><line class="cls-3" x1="49.96" y1="14.79" x2="55.25" y2="9.5"/><line class="cls-3" x1="55.76" y1="29.52" x2="63.24" y2="29.52"/><line class="cls-1" x1="28.16" y1="49.23" x2="42.47" y2="49.23"/><line class="cls-1" x1="28.41" y1="53.83" x2="42.72" y2="53.83"/><path class="cls-5" d="M34.52,39.22v-2a5.78,5.78,0,0,1-3-.87L32,35a5.29,5.29,0,0,0,2.86.85c1.41,0,2.36-.81,2.36-1.95s-.77-1.77-2.24-2.36c-2-.79-3.28-1.71-3.28-3.43a3.26,3.26,0,0,1,3-3.2v-2h1.23v1.93a5.3,5.3,0,0,1,2.58.69L38,26.86a4.8,4.8,0,0,0-2.5-.68c-1.53,0-2.1.91-2.1,1.71,0,1,.73,1.55,2.46,2.26,2,.83,3.08,1.87,3.08,3.63a3.45,3.45,0,0,1-3.14,3.37v2.06Z"/></g></g></svg>