<svg xmlns="http://www.w3.org/2000/svg" viewBox="0 0 56.97 75.95"><defs><style>.cls-1,.cls-3{fill:none;}.cls-1,.cls-2,.cls-3{stroke:#1547fe;stroke-miterlimit:10;}.cls-2,.cls-4{fill:#bed8fd;}.cls-3{stroke-linecap:round;}.cls-5{fill:#1547fe;}</style></defs><title>icon_3_mobile</title><g id="Слой_2" data-name="Слой 2"><g id="Слой_1-2" data-name="Слой 1"><circle class="cls-1" cx="8.93" cy="62.8" r="4.22"/><path class="cls-2" d="M8.93,67A8.43,8.43,0,0,0,.5,75.45H17.36A8.43,8.43,0,0,0,8.93,67Z"/><circle class="cls-1" cx="48.04" cy="62.8" r="4.22"/><path class="cls-2" d="M48,67a8.43,8.43,0,0,0-8.43,8.43H56.47A8.43,8.43,0,0,0,48,67Z"/><line class="cls-3" x1="28.4" y1="51.96" x2="28.4" y2="62.02"/><line class="cls-3" x1="28.4" y1="62.02" x2="35.51" y2="69.14"/><line class="cls-3" x1="28.4" y1="62.02" x2="21.28" y2="69.14"/><path class="cls-4" d="M22.83,40v1.61a6.08,6.08,0,0,0,6.07,6.07h0A6.08,6.08,0,0,0,35,41.59V40Z"/><path class="cls-1" d="M36.29,33.07a4.1,4.1,0,0,0-1.54,3.18l0,5.33a6.08,6.08,0,0,1-6.07,6.07h0a6.08,6.08,0,0,1-6.07-6.07l0-4.93A3.94,3.94,0,0,0,21,33.5a12.45,12.45,0,1,1,15.25-.42Z"/><line class="cls-3" x1="28.69" y1="6.62" x2="28.69" y2="0.5"/><line class="cls-3" x1="16.64" y1="11.37" x2="12.31" y2="7.04"/><line class="cls-3" x1="11.47" y1="23.25" x2="5.35" y2="23.25"/><line class="cls-3" x1="40.57" y1="11.79" x2="44.9" y2="7.46"/><line class="cls-3" x1="45.32" y1="23.84" x2="51.44" y2="23.84"/><line class="cls-1" x1="22.73" y1="39.97" x2="34.44" y2="39.97"/><line class="cls-1" x1="22.94" y1="43.74" x2="34.65" y2="43.74"/><path class="cls-5" d="M27.93,31.79V30.15a4.74,4.74,0,0,1-2.49-.72l.39-1.09a4.34,4.34,0,0,0,2.34.7c1.15,0,1.93-.67,1.93-1.59s-.63-1.45-1.84-1.93c-1.66-.65-2.68-1.4-2.68-2.81A2.67,2.67,0,0,1,28,20.09V18.44h1V20a4.34,4.34,0,0,1,2.11.57l-.41,1.07a3.93,3.93,0,0,0-2-.55c-1.25,0-1.72.75-1.72,1.4,0,.84.6,1.27,2,1.85,1.67.68,2.52,1.53,2.52,3A2.83,2.83,0,0,1,29,30.1v1.69Z"/></g></g></svg>