<svg xmlns="http://www.w3.org/2000/svg" viewBox="0 0 77 81.34"><defs><style>.cls-1{fill:#1547fe;}.cls-2,.cls-4{fill:#bed8fd;}.cls-3{fill:none;}.cls-3,.cls-4{stroke:#1547fe;stroke-linecap:round;stroke-linejoin:round;}</style></defs><title>icon_4_mobile</title><g id="Слой_2" data-name="Слой 2"><g id="Слой_1-2" data-name="Слой 1"><path class="cls-1" d="M64.25,33.78a1.15,1.15,0,0,1,1.15,1.15V79.2a1.15,1.15,0,0,1-1.15,1.15H36.17A1.15,1.15,0,0,1,35,79.2V34.93a1.15,1.15,0,0,1,1.15-1.15H64.25m0-1H36.17A2.15,2.15,0,0,0,34,34.93V79.2a2.15,2.15,0,0,0,2.15,2.15H64.25A2.15,2.15,0,0,0,66.4,79.2V34.93a2.15,2.15,0,0,0-2.15-2.15Z"/><rect class="cls-2" x="38.12" y="38.67" width="24.18" height="11.14" rx="1.32" ry="1.32"/><path class="cls-1" d="M61,39.17a.82.82,0,0,1,.82.82v8.51a.82.82,0,0,1-.82.82H39.44a.82.82,0,0,1-.82-.82V40a.82.82,0,0,1,.82-.82H61m0-1H39.44A1.82,1.82,0,0,0,37.62,40v8.51a1.82,1.82,0,0,0,1.82,1.82H61a1.82,1.82,0,0,0,1.82-1.82V40A1.82,1.82,0,0,0,61,38.17Z"/><path class="cls-1" d="M61.14,64.19a.66.66,0,0,1,.66.66v9.51a.66.66,0,0,1-.66.66H58.93a.66.66,0,0,1-.66-.66V64.85a.66.66,0,0,1,.66-.66h2.21m0-1H58.93a1.66,1.66,0,0,0-1.66,1.66v9.51A1.66,1.66,0,0,0,58.93,76h2.21a1.66,1.66,0,0,0,1.66-1.66V64.85a1.66,1.66,0,0,0-1.66-1.66Z"/><path class="cls-1" d="M40.42,71.67a1.67,1.67,0,1,1-1.67,1.67,1.68,1.68,0,0,1,1.67-1.67m0-1a2.67,2.67,0,1,0,2.67,2.67,2.67,2.67,0,0,0-2.67-2.67Z"/><path class="cls-1" d="M46.86,71.67a1.67,1.67,0,1,1-1.67,1.67,1.68,1.68,0,0,1,1.67-1.67m0-1a2.67,2.67,0,1,0,2.67,2.67,2.67,2.67,0,0,0-2.67-2.67Z"/><path class="cls-1" d="M53.3,71.67a1.67,1.67,0,1,1-1.67,1.67,1.68,1.68,0,0,1,1.67-1.67m0-1A2.67,2.67,0,1,0,56,73.34a2.67,2.67,0,0,0-2.67-2.67Z"/><path class="cls-1" d="M40.48,64.19a1.67,1.67,0,1,1-1.67,1.67,1.68,1.68,0,0,1,1.67-1.67m0-1a2.67,2.67,0,1,0,2.67,2.67,2.67,2.67,0,0,0-2.67-2.67Z"/><path class="cls-1" d="M46.92,64.19a1.67,1.67,0,1,1-1.67,1.67,1.68,1.68,0,0,1,1.67-1.67m0-1a2.67,2.67,0,1,0,2.67,2.67,2.67,2.67,0,0,0-2.67-2.67Z"/><path class="cls-1" d="M53.36,64.19a1.67,1.67,0,1,1-1.67,1.67,1.68,1.68,0,0,1,1.67-1.67m0-1A2.67,2.67,0,1,0,56,65.87a2.67,2.67,0,0,0-2.67-2.67Z"/><path class="cls-1" d="M40.48,56.72a1.67,1.67,0,1,1-1.67,1.67,1.68,1.68,0,0,1,1.67-1.67m0-1a2.67,2.67,0,1,0,2.67,2.67,2.67,2.67,0,0,0-2.67-2.67Z"/><path class="cls-1" d="M46.92,56.72a1.67,1.67,0,1,1-1.67,1.67,1.68,1.68,0,0,1,1.67-1.67m0-1a2.67,2.67,0,1,0,2.67,2.67,2.67,2.67,0,0,0-2.67-2.67Z"/><path class="cls-1" d="M53.36,56.72a1.67,1.67,0,1,1-1.67,1.67,1.68,1.68,0,0,1,1.67-1.67m0-1A2.67,2.67,0,1,0,56,58.39a2.67,2.67,0,0,0-2.67-2.67Z"/><path class="cls-1" d="M59.95,56.72a1.67,1.67,0,1,1-1.67,1.67,1.68,1.68,0,0,1,1.67-1.67m0-1a2.67,2.67,0,1,0,2.67,2.67,2.67,2.67,0,0,0-2.67-2.67Z"/><path class="cls-1" d="M46.1,46.54h1.26V42.95l.14-.62-.44.54-.81.55-.5-.68,2.07-1.67h.66v5.47h1.24v1H46.1Z"/><path class="cls-1" d="M52.88,46.25l-.48.37v0l.65-.13H54.8v1H51v-.61q2.51-2.64,2.51-4a.86.86,0,0,0-.22-.62.88.88,0,0,0-.67-.23,1.6,1.6,0,0,0-1.11.44L51,41.69A2.88,2.88,0,0,1,52.87,41a1.89,1.89,0,0,1,1.3.44,1.57,1.57,0,0,1,.5,1.25A6.08,6.08,0,0,1,52.88,46.25Z"/><path class="cls-1" d="M58.54,46.38a1,1,0,0,0,.31-.74.91.91,0,0,0-.31-.76,1.56,1.56,0,0,0-1-.25h-.65V44L58,42.5l.52-.41-.72.08H56.28v-1h3.47v.65l-1.28,1.72-.4.25v0l.38-.05a1.71,1.71,0,0,1,1.13.51A1.76,1.76,0,0,1,60,45.57a1.92,1.92,0,0,1-.65,1.56,2.49,2.49,0,0,1-1.66.54,3.36,3.36,0,0,1-1.52-.28l.32-1a2.57,2.57,0,0,0,1.16.26A1.19,1.19,0,0,0,58.54,46.38Z"/><polyline class="cls-3" points="31 68.54 0.5 68.54 0.5 0.5 50.21 0.5 50.21 29.63"/><line class="cls-3" x1="13.2" y1="13.47" x2="38.56" y2="13.47"/><line class="cls-3" x1="7.98" y1="20.21" x2="43.58" y2="20.21"/><line class="cls-3" x1="7.98" y1="24.17" x2="43.58" y2="24.17"/><line class="cls-3" x1="7.98" y1="28.47" x2="43.58" y2="28.47"/><line class="cls-3" x1="7.85" y1="32.78" x2="30.47" y2="32.78"/><line class="cls-3" x1="7.85" y1="37.75" x2="30.47" y2="37.75"/><circle class="cls-4" cx="14.19" cy="55.2" r="6.68"/><path class="cls-3" d="M70.73,35.28H74.3a0,0,0,0,1,0,0v40.5a1.78,1.78,0,0,1-1.78,1.78h0a1.78,1.78,0,0,1-1.78-1.78V35.28a0,0,0,0,1,0,0Z"/><line class="cls-3" x1="72.52" y1="35.28" x2="72.52" y2="33.35"/><line class="cls-3" x1="72.52" y1="77.57" x2="72.52" y2="80.64"/><line class="cls-3" x1="70.73" y1="68.54" x2="74.3" y2="68.54"/><polyline class="cls-3" points="74.3 36.91 76.5 36.91 76.5 51.18"/></g></g></svg>