<svg xmlns="http://www.w3.org/2000/svg" viewBox="0 0 48.15 41.61"><defs><style>.cls-1{fill:#bed8fd;stroke-miterlimit:10;}.cls-1,.cls-2{stroke:#1547fe;stroke-linecap:round;}.cls-2{fill:none;stroke-linejoin:round;}.cls-3{fill:#1547fe;}</style></defs><title>icon_7_mobile</title><g id="Слой_2" data-name="Слой 2"><g id="Слой_1-2" data-name="Слой 1"><polyline class="cls-1" points="0.5 36.12 3.5 36.12 11.93 27.12 19.36 32.11 28.55 21.5 36.94 27.83 47.65 19.95 47.65 41.11 0.5 41.11 0.5 2.54"/><circle class="cls-2" cx="37.58" cy="9.65" r="9.15"/><path class="cls-3" d="M37.12,16.36V14.77a4.58,4.58,0,0,1-2.4-.69L35.1,13a4.19,4.19,0,0,0,2.26.68c1.12,0,1.87-.64,1.87-1.54s-.61-1.4-1.78-1.87c-1.6-.63-2.59-1.35-2.59-2.72A2.58,2.58,0,0,1,37.23,5V3.46h1V5a4.2,4.2,0,0,1,2,.55l-.39,1a3.8,3.8,0,0,0-2-.53c-1.21,0-1.67.72-1.67,1.35,0,.82.58,1.23,1.95,1.79,1.62.66,2.44,1.48,2.44,2.88a2.73,2.73,0,0,1-2.48,2.67v1.63Z"/></g></g></svg>