<svg xmlns="http://www.w3.org/2000/svg" viewBox="0 0 35.02 35.02">
  <defs>
    <style>
      .cls-1 {
        fill: #1744fe;
      }

      .cls-2 {
        fill: #bed8fd;
      }
    </style>
  </defs>
  <title>vk_icon</title>
  <g id="Слой_2" data-name="Слой 2">
    <g id="Слой_1-2" data-name="Слой 1">
      <g>
        <path class="cls-1" d="M17.51,35A17.51,17.51,0,1,1,35,17.51,17.53,17.53,0,0,1,17.51,35Zm0-34A16.51,16.51,0,1,0,34,17.51,16.53,16.53,0,0,0,17.51,1Z"/>
        <g>
          <path class="cls-2" d="M26.87,25.06c-.75,0-1.68,0-2.07,0h-.22A2.27,2.27,0,0,1,23,24.39c-.36-.34-.7-.72-1-1.08l-.58-.63a4.91,4.91,0,0,0-.57-.52,1.25,1.25,0,0,0-.75-.28,1,1,0,0,0-.92.7,10.47,10.47,0,0,0-.37,1.84c0,.35-.23.53-.62.55l-.74,0a8.21,8.21,0,0,1-4-.9,10,10,0,0,1-3.14-2.75,33.51,33.51,0,0,1-3.57-5.86c-.06-.12-1-2.16-1.11-2.39s0-.28.05-.34.28,0,.91,0c1,0,2.58,0,2.67,0a.84.84,0,0,1,.83.6A18.36,18.36,0,0,0,12.72,18a2.8,2.8,0,0,0,.61.56.92.92,0,0,0,.51.17.76.76,0,0,0,.71-.55,6,6,0,0,0,.26-1.51c0-.94,0-1.56-.05-2.51a1.55,1.55,0,0,0-1.27-1.59,1.46,1.46,0,0,1,1.09-.36l1,0h1.69a4.89,4.89,0,0,1,1,.1.62.62,0,0,1,.5.58,3.39,3.39,0,0,1,0,.64c0,.42,0,.84,0,1.26,0,.59,0,1.2,0,1.81a5.72,5.72,0,0,0,.12,1.28c.11.5.41.8.81.8a1,1,0,0,0,.69-.34,13.43,13.43,0,0,0,1.34-1.67,16.45,16.45,0,0,0,1.77-3.42c.19-.47.23-.5.73-.5h3.67a1.82,1.82,0,0,1,.54.07c.1,0,.18.08.14.29a5.81,5.81,0,0,1-1,2c-.49.69-1,1.39-1.51,2.06l-.79,1.06a4.33,4.33,0,0,0-.29.46,1.23,1.23,0,0,0,.21,1.68c.28.29.56.57.84.84s.8.78,1.17,1.19A11.61,11.61,0,0,1,28.35,24a.73.73,0,0,1,.13.67.68.68,0,0,1-.56.32,9.66,9.66,0,0,1-1,0Zm0,0"/>
          <path class="cls-1" d="M26.87,25.56c-.72,0-1.6,0-2,0h-.17a2.83,2.83,0,0,1-2.05-.78c-.36-.35-.72-.73-1.06-1.11L21,23a4.39,4.39,0,0,0-.51-.47.77.77,0,0,0-.44-.18.52.52,0,0,0-.45.39,10.1,10.1,0,0,0-.33,1.7,1.05,1.05,0,0,1-1.09,1,9.09,9.09,0,0,1-5-.94,10.48,10.48,0,0,1-3.3-2.88,33.94,33.94,0,0,1-3.62-5.94c-.05-.11-1-2.16-1.12-2.42a.8.8,0,0,1,.24-.95l.1-.07h.12c.07,0,.29,0,1,0,1.05,0,2.6,0,2.69,0a1.33,1.33,0,0,1,1.28.92,17.87,17.87,0,0,0,2.58,4.52,2.3,2.3,0,0,0,.5.45.29.29,0,0,0,.47-.14,5.54,5.54,0,0,0,.23-1.35c0-.93,0-1.54-.05-2.47a1.06,1.06,0,0,0-.89-1.13l-.83-.2.58-.62a1.93,1.93,0,0,1,1.43-.52c.56,0,1.3,0,2,0h.69a5.4,5.4,0,0,1,1.11.11,1.12,1.12,0,0,1,.89,1,3.91,3.91,0,0,1,.06.74c0,.42,0,.84,0,1.26,0,.62,0,1.21,0,1.8a5.26,5.26,0,0,0,.11,1.17c0,.12.11.41.32.41A.51.51,0,0,0,20,18a13,13,0,0,0,1.29-1.61A16,16,0,0,0,23,13.09a1,1,0,0,1,1.19-.82h3.67a2.31,2.31,0,0,1,.69.09.68.68,0,0,1,.47.87,6.23,6.23,0,0,1-1.1,2.2c-.49.7-1,1.39-1.51,2.07l-.79,1.06a4,4,0,0,0-.26.41.75.75,0,0,0,.13,1.09c.27.28.56.56.83.83s.81.79,1.19,1.21a12.12,12.12,0,0,1,1.29,1.67,1.21,1.21,0,0,1,.16,1.15,1.15,1.15,0,0,1-.95.61A10.55,10.55,0,0,1,26.87,25.56ZM20,21.38a1.74,1.74,0,0,1,1,.39,5.44,5.44,0,0,1,.63.57l.53.57c.39.42.72.79,1.07,1.13a1.76,1.76,0,0,0,1.27.5h.23c.48,0,1.34,0,2.06,0a9.66,9.66,0,0,0,1,0,.48.48,0,0,0,.18-.06h0s0-.07-.1-.18a11.14,11.14,0,0,0-1.18-1.53c-.36-.4-.76-.79-1.15-1.16s-.58-.56-.86-.85a1.71,1.71,0,0,1-.29-2.27,4.8,4.8,0,0,1,.32-.51l.75-1c.54-.72,1-1.41,1.54-2.1a6.07,6.07,0,0,0,.87-1.58H24l-.08.18A17,17,0,0,1,22.07,17a13.93,13.93,0,0,1-1.39,1.74,1.44,1.44,0,0,1-1.05.49,1.36,1.36,0,0,1-1.3-1.2,6.24,6.24,0,0,1-.13-1.4c0-.59,0-1.19,0-1.78s0-.88,0-1.29a2.86,2.86,0,0,0,0-.55c0-.16-.06-.16-.12-.18a4.43,4.43,0,0,0-.91-.09h-.7c-.62,0-1.29,0-1.81,0a2.24,2.24,0,0,1,.54,1.43c.05,1,.07,1.58.05,2.54A6.5,6.5,0,0,1,15,18.37,1.29,1.29,0,0,1,13,19a3.3,3.3,0,0,1-.71-.66A18.83,18.83,0,0,1,9.6,13.57c-.1-.24-.17-.28-.4-.29-.08,0-1.6,0-2.64,0H6.22c.28.62.9,1.93.94,2A33,33,0,0,0,10.68,21a9.5,9.5,0,0,0,3,2.61,8.19,8.19,0,0,0,4.45.82.34.34,0,0,0,.14,0,10.78,10.78,0,0,1,.4-2.06A1.49,1.49,0,0,1,20,21.38Z"/>
        </g>
      </g>
    </g>
  </g>
</svg>
