<?xml version="1.0" encoding="UTF-8"?>
<svg width="15px" height="16px" viewBox="0 0 15 16" version="1.1" xmlns="http://www.w3.org/2000/svg" xmlns:xlink="http://www.w3.org/1999/xlink">
    <!-- Generator: Sketch 48.2 (47327) - http://www.bohemiancoding.com/sketch -->
    <title>Fill 1</title>
    <desc>Created with Sketch.</desc>
    <defs></defs>
    <g id="#2" stroke="none" stroke-width="1" fill="none" fill-rule="evenodd" transform="translate(-453.000000, -635.000000)">
        <g id="Products" transform="translate(0.000000, 600.000000)" fill="#333743">
            <g id="Filter">
                <g id="Bag" transform="translate(453.000000, 30.000000)">
                    <path d="M3.04803173,16.999625 L11.174254,16.999625 L11.174254,17.9995938 L3.04803173,17.9995938 L3.04803173,16.999625 Z M12.3373922,13.00025 L10.1589206,13.00025 L10.1589206,14.5002031 C10.1589206,14.7761945 9.93086426,14.9996875 9.65099999,14.9996875 C9.37011988,14.9996875 9.14257144,14.7761945 9.14257144,14.5002031 L9.14257144,13.00025 L5.07971427,13.00025 L5.07971427,14.5002031 C5.07971427,14.7761945 4.85165791,14.9996875 4.57179364,14.9996875 C4.29091353,14.9996875 4.063873,14.7761945 4.063873,14.5002031 L4.063873,13.00025 L1.88997268,13.00025 L1.00974622,15.4786725 C1.01025414,15.4896722 1.01634919,15.4986719 1.01634919,15.5101716 L1.01634919,20.0000312 L13.2059365,20.0000312 L13.2059365,15.4996719 C13.2059365,15.4886722 13.2115236,15.4796725 13.2125395,15.4686729 L12.3373922,13.00025 Z M12.1906032,9.79985 C12.1337161,9.7423518 12.0864794,9.67735383 12.0605755,9.60135621 L11.3632005,7.99990625 L11.174254,7.99990625 L10.1589206,7.99990625 L10.1589206,12.0002812 L12.1906032,12.0002812 L12.1906032,9.79985 Z M9.14257144,7.99990625 L5.07971427,7.99990625 L5.07971427,12.0002812 L9.14257144,12.0002812 L9.14257144,7.99990625 Z M7.11139682,5.99996875 C6.36069012,5.99996875 5.71309131,6.4049561 5.36110231,6.9999375 L8.86118341,6.9999375 C8.50919441,6.4049561 7.86159559,5.99996875 7.11139682,5.99996875 L7.11139682,5.99996875 Z M4.063873,7.99990625 L3.04803173,7.99990625 L2.85857734,7.99990625 L2.1612023,9.60135621 C2.13529835,9.67735383 2.08856965,9.7423518 2.03219046,9.79985 L2.03219046,12.0002812 L4.063873,12.0002812 L4.063873,7.99990625 Z M13.7138572,21 L0.507920635,21 C0.227548445,21 0,20.776507 0,20.5005156 L0,15.5101716 C0,15.4866723 0.0101584127,15.4671729 0.0132059365,15.4451736 C0.0162534603,15.4076748 0.026411873,15.3721759 0.0360623651,15.335177 C0.0391098889,15.3266773 0.0406336508,15.3176776 0.0441890953,15.3091778 C0.0558712699,15.271179 0.0619663175,15.2321802 0.0812673017,15.1961814 L1.01634919,12.5637636 L1.01634919,9.49985938 C1.01634919,9.46036061 1.03006305,9.42536171 1.0386977,9.38836286 C1.03971354,9.38536296 1.0386977,9.38286304 1.03971354,9.37936314 L1.0412373,9.37586325 C1.05444324,9.32736477 1.07374422,9.28286616 1.10066402,9.24086747 L1.90216278,7.39892503 C1.98190632,7.16943221 2.22621615,7.02043686 2.48525567,7.01143714 C2.50404873,7.00943721 2.52030219,6.9999375 2.5401111,6.9999375 L4.25027988,6.9999375 C4.66982232,5.83747383 5.78572396,5 7.11139682,5 C8.43605383,5 9.55195547,5.83747383 9.97200584,6.9999375 L11.6821746,6.9999375 C11.7014756,6.9999375 11.7177291,7.00943721 11.7365221,7.01143714 C11.9960696,7.02043686 12.2398715,7.16943221 12.319615,7.39892503 L13.1221296,9.24086747 C13.1485415,9.28286616 13.1673346,9.32686479 13.1805405,9.37536327 L13.1820643,9.37936314 C13.183588,9.38286304 13.1820643,9.38586294 13.183588,9.38886285 C13.1922227,9.42586169 13.2059365,9.4608606 13.2059365,9.49985938 L13.2059365,12.5492641 L14.1410184,15.1861817 C14.1598115,15.2221806 14.1653986,15.2606794 14.1775887,15.2981782 C14.1811441,15.3071779 14.1826679,15.3166776 14.1862233,15.3256773 C14.1958738,15.3626762 14.2055243,15.3981751 14.2085719,15.4351739 C14.2116194,15.4566732 14.2217778,15.4766726 14.2217778,15.4996719 L14.2217778,20.4995156 C14.2217778,20.776507 13.9942293,21 13.7138572,21 L13.7138572,21 Z" id="Fill-1"></path>
                </g>
            </g>
        </g>
    </g>
</svg>