<?xml version="1.0" encoding="UTF-8"?>
<svg width="14px" height="13px" viewBox="0 0 14 13" version="1.1" xmlns="http://www.w3.org/2000/svg" xmlns:xlink="http://www.w3.org/1999/xlink">
    <!-- Generator: Sketch 48.2 (47327) - http://www.bohemiancoding.com/sketch -->
    <title>Fill 1</title>
    <desc>Created with Sketch.</desc>
    <defs></defs>
    <g id="Header" stroke="none" stroke-width="1" fill="none" fill-rule="evenodd" transform="translate(-1189.000000, -16.000000)">
        <g id="Basket" transform="translate(1189.000000, 16.000000)" fill="#333743">
            <path d="M10.074916,11.2666089 C10.5388013,11.2666089 10.9149472,11.6544551 10.9149472,12.1328711 C10.9149472,12.6121537 10.5388013,13 10.074916,13 C9.61145059,13 9.23530472,12.6121537 9.23530472,12.1328711 C9.23530472,11.6544551 9.61145059,11.2666089 10.074916,11.2666089 L10.074916,11.2666089 Z M5.87685944,11.2666089 C6.34074469,11.2666089 6.71647076,11.6544551 6.71647076,12.1328711 C6.71647076,12.6121537 6.34074469,13 5.87685944,13 C5.41339399,13 5.03724812,12.6121537 5.03724812,12.1328711 C5.03724812,11.6544551 5.41339399,11.2666089 5.87685944,11.2666089 L5.87685944,11.2666089 Z M4.4423835,4.33261109 L5.78408239,9.53365112 L11.0157005,9.53365112 L12.4997135,4.33261109 L4.4423835,4.33261109 Z M13.421187,3.96209874 C13.4190879,3.97683256 13.4300029,3.98939965 13.4266444,4.00456682 L11.7419643,9.90459682 C11.7453228,9.92583086 11.7545585,9.94489816 11.7545585,9.9661322 C11.7545585,10.1815061 11.5996502,10.3518117 11.4010821,10.3856129 C11.379672,10.3921131 11.3591016,10.3973132 11.3368519,10.39948 C11.3360122,10.39948 11.3355924,10.3999133 11.3347528,10.3999133 L5.45705378,10.3999133 C5.4515963,10.3999133 5.44697844,10.3964465 5.44110116,10.3964465 C5.23581619,10.4012134 5.04564423,10.2816094 4.99022988,10.0853028 L3.46801456,4.18613954 C3.40168526,4.10900363 3.35802548,4.01063369 3.35802548,3.90013 C3.35802548,3.87152905 3.36852062,3.84726158 3.37355829,3.82039401 L2.61119121,0.866262209 L0.41980566,0.866262209 C0.18765313,0.866262209 0,0.672122404 0,0.43291443 C0,0.193706457 0.18765313,0 0.41980566,0 L2.93863962,0 C2.94409709,0 2.94871496,0.00303343445 2.95459224,0.00303343445 C3.1594574,-0.00130004333 3.34962936,0.118303943 3.40546352,0.313743791 L4.21862708,3.46591553 L12.9841693,3.46591553 C12.9904663,3.46548218 12.9967634,3.46678223 13.0030605,3.46591553 L13.0139755,3.46591553 C13.0152349,3.46591553 13.0169141,3.46764892 13.0185933,3.46764892 C13.0605739,3.46504883 13.1025545,3.46374879 13.1449548,3.47588253 C13.157549,3.47934931 13.1617471,3.49494983 13.1735016,3.49971666 C13.2415101,3.52831761 13.2948255,3.5790193 13.3397447,3.6379546 C13.3598953,3.66568886 13.3783668,3.68518951 13.3918006,3.71769059 C13.4169889,3.77315911 13.4337811,3.83426114 13.4337811,3.90013 C13.4337811,3.92223074 13.4245454,3.9408647 13.421187,3.96209874 L13.421187,3.96209874 Z" id="Fill-1"></path>
        </g>
    </g>
</svg>