<?xml version="1.0" encoding="UTF-8"?>
<svg width="22px" height="34px" viewBox="0 0 22 34" version="1.1" xmlns="http://www.w3.org/2000/svg" xmlns:xlink="http://www.w3.org/1999/xlink">
    <!-- Generator: Sketch 48.2 (47327) - http://www.bohemiancoding.com/sketch -->
    <title>Logo</title>
    <desc>Created with Sketch.</desc>
    <defs></defs>
    <g id="Header" stroke="none" stroke-width="1" fill="none" fill-rule="evenodd" transform="translate(-646.000000, -8.000000)">
        <path d="M646,30.7374016 C646,33.6352477 647.12571,36.3608521 649.176032,38.4214016 C651.247502,40.5032477 654.00872,41.6502807 656.950631,41.6502807 C659.893284,41.6506543 662.654131,40.503995 664.725601,38.4221488 C666.791877,36.3459071 667.916103,33.5993796 667.901262,30.6701488 C667.901262,30.669028 667.901633,30.6675335 667.901633,30.6664126 C667.901633,30.6630499 667.901262,30.6600609 667.901633,30.6566983 C667.901633,30.6533357 667.902004,30.649973 667.901633,30.6466104 C667.901633,30.6451159 667.901262,30.643995 667.901262,30.6428741 C667.913506,27.717006 666.791877,24.9674895 664.725601,22.8912477 C662.65376,20.8094016 659.892913,19.6627423 656.951373,19.6627423 C656.275724,19.6627423 655.727339,20.208984 655.727339,20.883006 C655.727339,21.557028 656.275353,22.1028961 656.951373,22.1028961 C659.235073,22.1028961 661.379266,22.9932477 662.987317,24.6095554 C664.596111,26.2251159 665.462099,28.3794455 665.453194,30.6462368 C665.453194,30.6477313 665.453565,30.6492258 665.453565,30.6510939 C665.453565,30.6525884 665.453194,30.6540829 665.453194,30.655951 C665.452823,30.6832258 665.453565,30.7097532 665.453565,30.7366543 C665.453565,32.987006 664.579415,35.1032258 662.987317,36.7030939 C661.378895,38.3194016 659.235073,39.2093796 656.951373,39.2093796 C654.667673,39.2093796 652.523109,38.319028 650.914687,36.7027203 C649.32296,35.1032258 648.448438,32.9873796 648.448438,30.7366543 C648.448438,30.7131159 648.418014,19.6556434 648.428774,18.8785005 C648.448067,17.4590939 648.826149,16.0643466 649.548177,14.8048521 C649.56005,14.7843027 649.571552,14.7645005 649.583425,14.7443247 C649.584167,14.7432038 649.584538,14.7417093 649.585651,14.7398412 C649.586393,14.7383466 649.587506,14.7372258 649.588248,14.7361049 C649.590103,14.7331159 649.591587,14.7301269 649.593442,14.7271379 C650.698375,12.7327203 652.531272,11.3308741 654.726667,10.7405445 C656.922062,10.1505884 659.220603,10.4588302 661.198573,11.6092258 C663.176544,12.7588741 664.591288,14.6094455 665.181599,16.8186983 C665.719966,18.8336653 665.502913,20.9241049 664.600563,22.7623466 C665.19273,23.4393576 665.810498,24.2254675 666.242379,24.7829181 C666.313617,24.7115554 666.377063,24.6297313 666.430492,24.5385664 C667.909425,21.9982807 668.300863,19.0514895 667.540619,16.2055774 C666.780004,13.3596653 664.958609,10.9766763 662.411105,9.49562137 C659.863601,8.01456643 656.903139,7.61702797 654.075506,8.37661038 C651.276442,9.12872027 648.947847,10.9228741 647.508615,13.4332697 C647.495258,13.4564346 647.481901,13.4795994 647.468915,13.5031379 C647.455558,13.5259291 647.4422,13.5490939 647.428843,13.5726324 C646.717946,14.8126983 646.265659,16.1547642 646.080885,17.5349401 C646.080885,18.9483686 646,30.7071379 646,30.7374016" id="Logo" fill="#333743"></path>
    </g>
</svg>