<?xml version="1.0" encoding="UTF-8"?>
<svg width="21px" height="16px" viewBox="0 0 21 16" version="1.1" xmlns="http://www.w3.org/2000/svg" xmlns:xlink="http://www.w3.org/1999/xlink">
    <!-- Generator: Sketch 48.2 (47327) - http://www.bohemiancoding.com/sketch -->
    <title>Fill 1</title>
    <desc>Created with Sketch.</desc>
    <defs></defs>
    <g id="#2" stroke="none" stroke-width="1" fill="none" fill-rule="evenodd" transform="translate(-148.000000, -635.000000)">
        <g id="Products" transform="translate(0.000000, 600.000000)" fill="#333743">
            <g id="Filter">
                <g id="Tshirt" transform="translate(148.000000, 30.000000)">
                    <path d="M13.9329969,5 C13.9329969,5 13.2996635,8.07692308 10.1336302,8.07692308 C6.96696354,8.07692308 6.33363021,5 6.33363021,5 L0.000296875,8.07692308 L1.26696354,13 L5.06696354,12.3846154 L5.06696354,21 L10.1336302,21 L15.1996635,21 L15.1996635,12.3846154 L18.9996635,13 L20.2663302,8.07692308 L13.9329969,5 Z M5.65849687,6.704 C6.38113021,7.97969231 7.78269687,9.30707692 10.1336302,9.30707692 C12.4832969,9.30707692 13.8854969,7.97969231 14.6074969,6.704 L18.7171969,8.70030769 L18.1395969,11.6129231 L13.9329969,11.1538462 L13.9329969,12.3846154 L13.9329969,19.7686154 L10.1336302,19.7686154 L6.33363021,19.7686154 L6.33363021,12.3846154 L6.33299687,11.1538462 L2.12576354,11.6129231 L1.54879687,8.70030769 L5.65849687,6.704 L5.65849687,6.704 Z" id="Fill-1"></path>
                </g>
            </g>
        </g>
    </g>
</svg>