<?xml version="1.0" encoding="UTF-8"?>
<svg width="38px" height="54px" viewBox="0 0 38 54" version="1.1" xmlns="http://www.w3.org/2000/svg" xmlns:xlink="http://www.w3.org/1999/xlink">
    <!-- Generator: Sketch 48.2 (47327) - http://www.bohemiancoding.com/sketch -->
    <title>Group 4</title>
    <desc>Created with Sketch.</desc>
    <defs></defs>
    <g id="Root" stroke="none" stroke-width="1" fill="none" fill-rule="evenodd" transform="translate(-1088.000000, -4674.000000)">
        <g id="Group-4" transform="translate(1088.000000, 4674.000000)" fill="#53575B">
            <path d="M23.3606557,32.2876377 L23.3606557,29.8971848 L9.3442623,29.8971848 C9.3442623,27.2567635 11.4847467,25.1162791 14.125168,25.1162791 L23.2518811,25.1162791 C25.4176455,25.1162791 27.2470601,26.5563637 27.8348037,28.5312118 L28.0327869,28.5312118 L28.0327869,44.5813953 L23.3606557,44.5813953 L15.4911411,44.5813953 C12.0963137,44.5813953 9.3442623,41.829344 9.3442623,38.4345165 C9.3442623,35.0396891 12.0963137,32.2876377 15.4911411,32.2876377 L23.3606557,32.2876377 Z M20.0014273,13.8023394 L23.5737705,13.792908 L23.5737705,9.87309555 C23.5737705,7.34707186 21.5260237,5.29932506 19,5.29932506 C16.4739763,5.29932506 14.4262295,7.34707186 14.4262295,9.87309555 L14.4262295,13.8084152 L9.3442623,13.8139535 L9.3442623,9.6557377 C9.3442623,4.32302102 13.6672833,-7.96780177e-16 19,-1.77635684e-15 C24.3327167,-2.7559335e-15 28.6557377,4.32302102 28.6557377,9.6557377 L28.6557377,13.792908 L20.0014273,13.8023394 Z M37.9639226,27.6671512 C37.9876982,27.8346912 38,28.0059619 38,28.1801287 C38,30.1632966 36.4050144,31.7709718 34.4375,31.7709718 C32.4699856,31.7709718 30.875,30.1632966 30.875,28.1801287 C30.875,28.0059619 30.8873018,27.8346912 30.9110774,27.6671512 L30.875,27.6671512 L30.875,41.6885382 L30.9110774,41.6885382 C30.8873018,41.5209982 30.875,41.3497275 30.875,41.1755606 C30.875,39.1923928 32.4699856,37.5847176 34.4375,37.5847176 C36.4050144,37.5847176 38,39.1923928 38,41.1755606 C38,41.3497275 37.9876982,41.5209982 37.9639226,41.6885382 L38,41.6885382 L38,46 C38,50.418278 34.418278,54 30,54 L8,54 C3.581722,54 5.41083001e-16,50.418278 0,46 L-8.8817842e-16,23.6976744 C-1.42926142e-15,19.2793964 3.581722,15.6976744 8,15.6976744 L30,15.6976744 C34.418278,15.6976744 38,19.2793964 38,23.6976744 L38,27.6671512 L37.9639226,27.6671512 Z M11.7857143,22.8793605 C9.02429054,22.8793605 6.78571429,25.1179367 6.78571429,27.8793605 L6.78571429,42.160299 C6.78571429,44.9217228 9.02429054,47.160299 11.7857143,47.160299 L30.875,47.160299 L30.875,27.8793605 C30.875,25.1179367 28.6364237,22.8793605 25.875,22.8793605 L11.7857143,22.8793605 Z M14.0163934,37.4100367 L14.0163934,39.4589963 L23.3606557,39.4589963 L23.3606557,37.4100367 L14.0163934,37.4100367 Z" id="Combined-Shape"></path>
        </g>
    </g>
</svg>