<?xml version="1.0" encoding="UTF-8"?>
<svg width="28px" height="35px" viewBox="0 0 28 35" version="1.1" xmlns="http://www.w3.org/2000/svg" xmlns:xlink="http://www.w3.org/1999/xlink">
    <!-- Generator: Sketch 48.2 (47327) - http://www.bohemiancoding.com/sketch -->
    <title>Page 1</title>
    <desc>Created with Sketch.</desc>
    <defs>
        <linearGradient x1="50%" y1="0%" x2="50%" y2="100%" id="linearGradient-1">
            <stop stop-color="#4DA3FC" offset="0%"></stop>
            <stop stop-color="#027EFF" offset="100%"></stop>
        </linearGradient>
    </defs>
    <g id="Root" stroke="none" stroke-width="1" fill="none" fill-rule="evenodd" transform="translate(-67.000000, -40.000000)">
        <path d="M78.8475,65.1122829 C78.8475,65.1122829 79.5454,58.2797306 79.6021,57.1338474 C78.6837,56.6386697 78.06,55.6699346 78.06,54.5568309 C78.06,52.9387853 79.376,51.6276104 81,51.6276104 C82.624,51.6276104 83.94,52.9387853 83.94,54.5568309 C83.94,55.6727244 83.3128,56.6435517 82.3909,57.1373346 C82.4497,58.2741511 83.1525,65.1122829 83.1525,65.1122829 L78.8475,65.1122829 Z M93.25,45.071736 C93.1051,45.071736 93.0302,45.0689463 92.9553,45.0675514 C92.8958,45.066854 92.8356,45.0661565 92.7761,45.0647617 C88.1596,44.9329468 84.0219,43.0219791 81.0014,40 C77.8703,43.132871 73.5373,45.071736 68.75,45.071736 C68.6072,45.071736 68.4651,45.0696437 68.3237,45.0661565 C68.2075,45.0633668 68.092,45.0584848 67.9765,45.0536027 C67.6335,45.0375618 67.3591,45.0173362 67.0868,44.9915312 C67.0581,44.9922286 67.0294,44.9936235 67,44.9943209 L67,53.4409374 C67,62.8960426 72.5545,71.0588036 80.5891,74.8660928 C80.6556,74.8974773 80.7221,74.9288618 80.7879,74.9595489 C80.8558,74.9853539 80.9258,75 81,75 C81.0728,75 81.1421,74.9860513 81.2058,74.9602463 C89.3531,71.1941057 95,62.9748525 95,53.4409374 L95,44.9971106 C94.9608,44.9964132 94.9223,44.9957158 94.8831,44.9943209 C94.3455,45.0445361 93.8009,45.071736 93.25,45.071736 Z" id="Page-1" fill="url(#linearGradient-1)"></path>
    </g>
</svg>