<?xml version="1.0" encoding="UTF-8"?>
<svg width="320px" height="201px" viewBox="0 0 320 201" version="1.1" xmlns="http://www.w3.org/2000/svg" xmlns:xlink="http://www.w3.org/1999/xlink">
    <!-- Generator: Sketch 48.2 (47327) - http://www.bohemiancoding.com/sketch -->
    <title>Group 13</title>
    <desc>Created with Sketch.</desc>
    <defs>
        <rect id="path-1" x="0" y="0" width="320" height="201" rx="5"></rect>
        <polygon id="path-3" points="16.8906065 74.3332603 0.233941232 75.5182239 42.3543859 50.8408919 54.0893092 60.7451816 11.9688645 85.4225137"></polygon>
        <polygon id="path-4" points="64.6589171 84.1422732 55.9862326 94.7018382 50.0906915 59.3942368 69.9839947 56.2172018 75.8795357 91.5248032"></polygon>
        <polygon id="path-5" points="48.0795054 62.208973 32.1597411 66.2913657 23.3189464 57.4169438 9.14178249 54.8322264 10.3770093 44.8228318 1.39373585 35.6362434 12.9184978 24.6234417 15.3496966 14.3202172 27.9853771 10.6427806 38.2121012 1.36943292 53.2091566 4.15596922 68.7976173 0.1276751 77.40297 8.71005368 92.4000254 11.49659 91.3700593 22.5374858 100.059573 32.0404021 90.2032552 41.3111347 89.2919038 51.4687601 74.2042829 55.5017662 63.8017636 65.2696616"></polygon>
        <polygon id="path-6" points="63.7481034 61.9009887 48.1596427 65.9292828 39.5542899 57.3469043 24.5572346 54.560368 25.5872006 43.5194722 16.9818479 34.9370936 27.208572 25.6637459 28.238538 14.6228501 43.8269987 10.594556 54.0537229 1.32120836 69.0507782 4.10774466 84.6392389 0.0794505396 93.2445917 8.66182912 108.241647 11.4483654 107.211681 22.4892612 115.817034 31.0716398 105.59031 40.3449874 104.560344 51.3858833 88.9718829 55.4141774 78.7451587 64.687525"></polygon>
        <polygon id="path-7" points="13.6492255 60.0683837 0.18904689 61.0259476 34.2263947 41.0843032 43.7093351 49.0879165 9.67198727 69.029561"></polygon>
        <polygon id="path-8" points="52.2505891 67.9950042 45.2422305 76.5281427 40.4780695 47.9962239 56.5537611 45.4288758 61.3179221 73.9607946"></polygon>
        <polygon id="path-9" points="38.8528388 50.2707999 25.9881466 53.5697637 18.843939 46.3983821 7.38743459 44.3096831 8.38561602 36.221135 1.12627187 28.7974929 10.4393818 19.8980959 12.4040229 11.5721051 22.6148612 8.60038459 30.8790325 1.10663277 42.9980875 3.35842061 55.5950547 0.103173692 62.5490027 7.03855641 74.6680578 9.29034425 73.8357467 18.212444 80.857705 25.8917093 72.8928574 33.3833479 72.1563983 41.5916807 59.9641576 44.8507354 51.5579271 52.7441291"></polygon>
        <polygon id="path-10" points="51.5145645 50.0219192 38.9175974 53.2771661 31.9636493 46.3417834 19.8445943 44.0899956 20.6769053 35.1678958 13.7229573 28.2325131 21.9871285 20.7387612 22.8194395 11.8166615 35.4164067 8.56141453 43.6805779 1.06766272 55.7996329 3.31945055 68.3966001 0.0642036348 75.3505481 6.99958636 87.4696032 9.25137419 86.6372921 18.173474 93.5912402 25.1088567 85.327069 32.6026085 84.4947579 41.5247083 71.8977908 44.7799552 63.6336196 52.273707"></polygon>
        <polygon id="path-11" points="10.2579869 45.1440043 0.142076964 45.8636552 25.722625 30.8766416 32.8494673 36.8917054 7.26891932 51.878719"></polygon>
        <polygon id="path-12" points="39.2685914 51.1012045 34.001505 57.5142294 30.4210307 36.0712508 42.5026124 34.141777 46.0830868 55.5847556"></polygon>
        <polygon id="path-13" points="29.199599 37.7806937 19.531223 40.2600085 14.1620401 34.8704032 5.55197856 33.3006551 6.30215535 27.2217592 0.846442319 21.6425691 7.84564969 14.954285 9.32216299 8.69694053 16.9960523 6.46356327 23.2069366 0.831682686 32.3149339 2.52399923 41.7821028 0.0775395192 47.0082974 5.28978143 56.1162946 6.98209798 55.4907767 13.6874442 60.7680839 19.4587462 54.7821543 25.0890386 54.2286733 31.2579579 45.0656738 33.7072794 38.7480258 39.6395082"></polygon>
        <polygon id="path-14" points="38.7154369 37.593649 29.2482679 40.0401087 24.0220734 34.8278668 14.9140761 33.1355503 15.5395941 26.430204 10.3133995 21.2179621 16.5242838 15.5860815 17.1498018 8.88073529 26.6169708 6.43427558 32.8278551 0.802394992 41.9358523 2.49471154 51.4030213 0.0482518254 56.6292159 5.26049374 65.7372131 6.95281029 65.1116951 13.6581565 70.3378897 18.8703984 64.1270054 24.502279 63.5014874 31.2076253 54.0343185 33.654085 47.8234342 39.2859656"></polygon>
        <polygon id="path-15" points="11.2558165 49.5353165 0.155897278 50.3249704 28.224753 33.8801186 36.0448478 40.4802882 7.97599205 56.92514"></polygon>
        <polygon id="path-16" points="43.0883821 56.0719941 37.3089481 63.1088359 33.3801888 39.5800252 46.6369874 37.4628649 50.5657468 60.9916756"></polygon>
        <polygon id="path-17" points="32.0399443 41.4557515 21.4310922 44.1762377 15.5396304 38.262367 6.09203858 36.5399241 6.91518763 29.8697131 0.928778669 23.7478161 8.60882296 16.4089396 10.2289618 9.54292178 18.6493167 7.09229626 25.464355 0.912583316 35.4583184 2.7695173 45.8463914 0.0850820543 51.5809559 5.80433663 61.5749192 7.66127062 60.888555 15.0188689 66.679204 21.3515653 60.1110025 27.5295355 59.5036825 34.2985268 49.4493666 36.9861021 42.5171793 43.4953792"></polygon>
        <polygon id="path-18" points="42.4814204 41.2505123 32.0933474 43.9349475 26.3587829 38.215693 16.3648195 36.358759 17.0511838 29.0011607 11.3166193 23.2819061 18.1316576 17.1021932 18.8180219 9.7445949 29.2060949 7.06015965 36.0211332 0.880446708 46.0150966 2.73738069 56.4031696 0.0529454461 62.1377341 5.77220002 72.1316975 7.62913401 71.4453332 14.9867323 77.1798977 20.7059869 70.3648593 26.8856998 69.6784951 34.2432981 59.2904221 36.9277333 52.4753838 43.1074463"></polygon>
        <polygon id="path-19" points="7.52982751 33.137746 0.104290933 33.6660024 18.881573 22.6648549 24.1129984 27.0801844 5.33571635 38.0813319"></polygon>
        <polygon id="path-20" points="28.8249266 37.5106011 24.9586463 42.2180521 22.3304158 26.4779336 31.1988446 25.0616123 33.8270751 40.8017308"></polygon>
        <polygon id="path-21" points="21.4338296 27.7327422 14.3368033 29.5526716 10.3955796 25.596457 4.07540399 24.4441907 4.62606777 19.9820055 0.62132704 15.886627 5.75906259 10.9771232 6.84289031 6.38394867 12.475873 4.7445485 17.0349437 0.6104928 23.7206266 1.85272988 30.6699579 0.0569175227 34.5062217 3.88293941 41.1919046 5.12517649 40.732746 10.0472046 44.6065288 14.283602 40.2125851 18.4164919 39.8063049 22.9447584 33.0802478 24.7426714 28.4428078 29.0971963"></polygon>
        <polygon id="path-22" points="28.4188861 27.5954429 21.4695548 29.3912552 17.633291 25.5652333 10.9476081 24.3229963 11.4067666 19.4009681 7.57050288 15.5749462 12.1295735 11.4408905 12.5887321 6.51886236 19.5380634 4.72305001 24.097134 0.588994305 30.782817 1.83123138 37.7321483 0.0354190276 41.568412 3.86144092 48.254095 5.10367799 47.7949364 10.0257062 51.6312002 13.851728 47.0721295 17.9857837 46.612971 22.9078119 39.6636397 24.7036243 35.104569 28.83768"></polygon>
    </defs>
    <g id="Root" stroke="none" stroke-width="1" fill="none" fill-rule="evenodd" transform="translate(-541.000000, -1387.000000)">
        <g id="How-it-works-" transform="translate(198.000000, 1295.000000)">
            <g id="Group-13" transform="translate(343.000000, 92.000000)">
                <mask id="mask-2" fill="white">
                    <use xlink:href="#path-1"></use>
                </mask>
                <use id="Rectangle-3" fill="#F9FAFB" xlink:href="#path-1"></use>
                <g id="Group-25" mask="url(#mask-2)">
                    <g transform="translate(163.761973, 97.804323) rotate(3.000000) translate(-163.761973, -97.804323) translate(105.261973, 50.304323)">
                        <g id="Path" stroke="none" fill="none">
                            <use fill="#FFFFFF" fill-rule="evenodd" xlink:href="#path-3"></use>
                            <path stroke="#0ABE55" stroke-width="1" d="M13.0557051,84.2062672 L53.2264551,60.6712134 L42.3020819,51.4510289 L2.33357929,74.867591 L17.6852052,73.7754685 L13.0557051,84.2062672 Z"></path>
                        </g>
                        <g id="Path" stroke="none" fill="none">
                            <use fill="#FFFFFF" fill-rule="evenodd" xlink:href="#path-4"></use>
                            <path stroke="#0ABE55" stroke-width="1" d="M75.1977763,90.4777274 L69.5725894,56.7892409 L50.6667973,59.8085667 L56.2981897,93.5342176 L64.5579976,83.4773571 L75.1977763,90.4777274 Z"></path>
                        </g>
                        <polygon id="Rectangle-10" stroke="none" fill="#FFFFFF" fill-rule="evenodd" points="110.327476 31.2403726 114.883775 31.8125962 113.719513 35.2812757 107.30354 35.2098594"></polygon>
                        <g id="Group-14" stroke="none" stroke-width="1" fill="none" fill-rule="evenodd" transform="translate(15.000000, 3.000000)">
                            <g id="Path">
                                <use fill="#FFFFFF" fill-rule="evenodd" xlink:href="#path-5"></use>
                                <path stroke="#0ABE55" stroke-width="1" d="M63.6460822,64.7299685 L73.9536872,55.051197 L88.8251364,51.0759747 L89.7222402,41.0771486 L99.3578881,32.0139757 L90.8516556,22.7114971 L91.8597771,11.9047665 L77.1594706,9.17336782 L68.6465208,0.683145534 L53.3342547,4.64006679 L53.1178171,4.64755553 L38.3643962,1.90628786 L28.2358192,11.090638 L15.7693712,14.7188219 L13.3710931,24.8825313 L2.10484983,35.6482983 L10.9027133,44.6452804 L9.69583038,54.4249961 L23.5626639,56.9531355 L32.3123111,65.7360632 L47.9553062,61.724644 L48.175048,61.7181862 L63.6460822,64.7299685 Z"></path>
                            </g>
                            <path d="M33.184701,62.735207 L32.398501,65.5741211" id="Line-5" stroke="#0ABE55" stroke-linecap="square"></path>
                            <path d="M24.6015943,54.1061703 L23.7968223,56.9245536" id="Line-5" stroke="#0ABE55" stroke-linecap="square"></path>
                            <path d="M2.40167589,32.5060636 L1.96957965,35.2154659" id="Line-5" stroke="#0ABE55" stroke-linecap="square"></path>
                            <path d="M48.6932657,58.8174705 L48.097748,61.594933" id="Line-5" stroke="#0ABE55" stroke-linecap="square"></path>
                            <path d="M63.8244994,61.3215349 L63.3372942,64.0824539" id="Line-5" stroke="#0ABE55" stroke-linecap="square" transform="translate(63.580897, 62.701994) rotate(-5.000000) translate(-63.580897, -62.701994) "></path>
                            <path d="M73.9374986,52.3842392 L73.5163105,55.2081574" id="Line-5" stroke="#0ABE55" stroke-linecap="square"></path>
                            <path d="M100.222835,28.4731969 L99.6622832,31.4575517" id="Line-5" stroke="#0ABE55" stroke-linecap="square"></path>
                        </g>
                        <polygon id="Rectangle-11" stroke="none" fill="#FFFFFF" fill-rule="evenodd" points="17.8779206 35.7394238 23 36 19.2129911 40.0897898 17.4568535 38.3111583"></polygon>
                        <polygon id="Rectangle-11" stroke="none" fill="#FFFFFF" fill-rule="evenodd" points="109.898912 30.5209535 114.371288 33.2847725 114.144006 34.5498967 113.201986 35.420582 109.477845 33.092688"></polygon>
                        <g id="Path" stroke="none" fill="none">
                            <use fill="#FFFFFF" fill-rule="evenodd" xlink:href="#path-6"></use>
                            <path stroke="#0ABE55" stroke-width="1" d="M78.5928638,64.1506701 L88.7273778,54.9609364 L104.095134,50.9896758 L105.110517,40.1050995 L115.091698,31.0544043 L106.691986,22.6771169 L107.701399,11.856542 L93.0010922,9.12514325 L84.4881425,0.634920973 L69.1758764,4.59184222 L68.9594388,4.59933097 L54.2060178,1.8580633 L44.0715038,11.047797 L28.7037481,15.0190576 L27.6883646,25.9036339 L17.7071834,34.9543291 L26.1068959,43.3316165 L25.0974828,54.1521914 L39.7977894,56.8835901 L48.3107392,65.3738124 L63.6230053,61.4168912 L63.8394429,61.4094024 L78.5928638,64.1506701 Z"></path>
                        </g>
                        <path d="M63.7662675,52.2216113 C80.2690026,51.04985 94.3339192,41.3378953 95.2101244,30.6475901 C96.079516,20.0404161 83.5524614,12.2864076 67.0962736,13.4548639 C50.5935385,14.6266253 36.528622,24.3385799 35.6524167,35.0288851 C34.7830251,45.6360591 47.3100797,53.3900676 63.7662675,52.2216113 Z" id="Oval-12" stroke="#0ABE55" stroke-width="1" fill="none"></path>
                        <path d="M59.4142564,37.2573449 L62.8518257,38.1304222 C62.8518257,38.1304222 65.4446981,34.0452541 65.9220982,33.377879 C66.8859966,33.2801468 67.8346102,32.8475999 68.3493119,32.2042133 C69.0956293,31.2713027 68.6495696,30.2484316 67.3527955,29.9190756 C66.0560214,29.5897196 64.4004127,30.078807 63.6540953,31.0117176 C63.1406804,31.6534957 63.1918833,32.3385255 63.6968325,32.8102847 C63.1230229,33.4594633 59.4142564,37.2573449 59.4142564,37.2573449 Z M80.0216443,28.9633178 C80.4615414,29.0750433 80.9089537,29.1698086 81.3613923,29.2498844 C81.3920503,29.2586386 81.4224711,29.2668487 81.4534509,29.2752008 L77.5587676,34.1436269 C73.161285,39.6405613 64.8611006,43.234284 56.6183127,43.7533974 C56.5555454,43.755357 56.4937751,43.7493449 56.4356439,43.7345807 C56.3763947,43.7195325 56.3272548,43.6968917 56.2849387,43.6682429 C56.2465512,43.6372051 56.2079266,43.6056233 56.1693019,43.5740415 C51.5097216,39.7494265 50.8394617,33.9165708 55.2005934,28.4650756 C57.829479,25.225437 59.1516681,23.6074238 59.1671606,23.6110361 C59.3726914,23.6811383 59.5824725,23.7484495 59.8489613,23.8272605 C59.9389369,23.8534993 60.0289126,23.8797381 60.1204123,23.9049126 C60.2317126,23.9355999 60.3442153,23.9656249 60.458242,23.9945855 C64.2809308,24.9654758 68.6351524,24.7263473 72.5803802,23.5550434 C73.5983917,25.9099885 76.0209443,27.850936 79.6464491,28.8631872 C79.6933169,28.8760583 79.7410652,28.8886693 79.7882547,28.9011384 C79.8474194,28.9171327 79.9059408,28.9339313 80.0216443,28.9633178 Z" id="Page-1" stroke="none" fill="#009CFB" fill-rule="evenodd"></path>
                    </g>
                </g>
                <g id="Group-25" mask="url(#mask-2)">
                    <g transform="translate(41.981534, 190.926552) rotate(3.000000) translate(-41.981534, -190.926552) translate(-5.518466, 152.426552)">
                        <g id="Path" stroke="none" fill="none">
                            <use fill="#FFFFFF" fill-rule="evenodd" xlink:href="#path-7"></use>
                            <path stroke="#D6DBDE" stroke-width="1" d="M10.7588278,67.8133145 L42.8464809,49.0139482 L34.1740906,41.6944401 L2.28868495,60.3753147 L14.4438242,59.5105919 L10.7588278,67.8133145 Z"></path>
                        </g>
                        <g id="Path" stroke="none" fill="none">
                            <use fill="#FFFFFF" fill-rule="evenodd" xlink:href="#path-8"></use>
                            <path stroke="#D6DBDE" stroke-width="1" d="M60.6361626,72.9137188 L56.1423558,46.0009149 L41.0541753,48.4105538 L45.5541876,75.3605221 L52.1496696,67.3300882 L60.6361626,72.9137188 Z"></path>
                        </g>
                        <polygon id="Rectangle-10" stroke="none" fill="#FFFFFF" fill-rule="evenodd" points="89.1551529 25.245209 92.8370775 25.7076203 91.8962428 28.5106451 86.7115231 28.4529339"></polygon>
                        <g id="Group-14" stroke="none" stroke-width="1" fill="none" fill-rule="evenodd" transform="translate(12.121435, 2.424287)">
                            <g id="Path">
                                <use fill="#FFFFFF" fill-rule="evenodd" xlink:href="#path-9"></use>
                                <path stroke="#D6DBDE" stroke-width="1" d="M51.4022457,52.204436 L59.7135619,44.4001661 L71.6896309,41.1988953 L72.4118424,33.1493618 L80.1560199,25.8652828 L73.3173429,18.3864553 L74.1278095,9.69852082 L62.3055033,7.50187055 L55.4439582,0.658644126 L43.1231856,3.84251818 L42.906748,3.85000692 L31.0313274,1.64348772 L22.8653033,9.04824207 L12.8236975,11.9707098 L10.8919771,20.1571855 L1.83738584,28.8095479 L8.91131998,36.0435836 L7.94148247,43.9024529 L19.0876565,45.9345737 L26.1407167,53.0144612 L38.7286396,49.7864709 L38.9483814,49.7800132 L51.4022457,52.204436 Z"></path>
                            </g>
                            <path d="M19.8804411,43.7229604 L19.2301084,46.0004837" id="Line-5" stroke="#D6DBDE" stroke-linecap="square"></path>
                            <path d="M1.94078382,26.2680083 L1.59160873,28.4574645" id="Line-5" stroke="#D6DBDE" stroke-linecap="square"></path>
                            <path d="M59.7485703,42.3314754 L59.4082101,44.6134714" id="Line-5" stroke="#D6DBDE" stroke-linecap="square"></path>
                            <path d="M80.9896364,23.0090663 L80.5366567,25.4207104" id="Line-5" stroke="#D6DBDE" stroke-linecap="square"></path>
                        </g>
                        <polygon id="Rectangle-11" stroke="none" fill="#FFFFFF" fill-rule="evenodd" points="14.4470697 28.8808726 18.5861998 29.0914431 15.5259344 32.3963844 14.1068072 30.9590801"></polygon>
                        <polygon id="Rectangle-11" stroke="none" fill="#FFFFFF" fill-rule="evenodd" points="88.8088316 24.6638495 92.4229397 26.8972796 92.2392738 27.919621 91.4780311 28.6232179 88.4685692 26.7420569"></polygon>
                        <g id="Path" stroke="none" fill="none">
                            <use fill="#FFFFFF" fill-rule="evenodd" xlink:href="#path-10"></use>
                            <path stroke="#D6DBDE" stroke-width="1" d="M63.4813246,51.7368521 L71.6532857,44.3267142 L84.0295478,41.1285008 L84.8472764,32.3627206 L92.8659047,25.0916212 L86.1175969,18.3613297 L86.929355,9.65955076 L75.1070487,7.4629005 L68.2455036,0.619674069 L55.9247311,3.80354812 L55.7082935,3.81103686 L43.8328728,1.60451766 L35.6609118,9.01465554 L23.2846496,12.2128689 L22.466921,20.9786492 L14.4482928,28.2497486 L21.1966006,34.9800401 L20.3848425,43.681819 L32.2071488,45.8784693 L39.0686938,52.7216957 L51.3894664,49.5378216 L51.605904,49.5303329 L63.4813246,51.7368521 Z"></path>
                        </g>
                        <path d="M51.522447,42.1043453 C64.8162291,41.1604327 76.1397633,33.3414278 76.8432551,24.7583458 C77.5399332,16.258395 67.474237,10.0279205 54.2270022,10.9685281 C40.93322,11.9124407 29.6096858,19.7314456 28.9061941,28.3145276 C28.209516,36.8144784 38.2752121,43.0449529 51.522447,42.1043453 Z" id="Oval-12" stroke="#D6DBDE" stroke-width="1" fill="none"></path>
                        <path d="M48.0124016,30.1074981 L50.7902864,30.813028 C50.7902864,30.813028 52.8855753,27.5118215 53.2713603,26.9725186 C54.0502823,26.8935415 54.8168528,26.5440024 55.232781,26.0240844 C55.8358769,25.2702034 55.475418,24.4436257 54.4275005,24.1774746 C53.379583,23.9113235 52.0416929,24.3065528 51.438597,25.0604338 C51.0237086,25.5790519 51.0650855,26.1326215 51.4731327,26.5138481 C51.0094397,27.0384465 48.0124016,30.1074981 48.0124016,30.1074981 Z M64.665142,23.4051309 C65.0206209,23.4954158 65.3821729,23.5719952 65.7477865,23.6367041 C65.7725611,23.6437783 65.797144,23.6504129 65.8221786,23.6571622 L62.674902,27.5913161 C59.1213155,32.0333648 52.4139727,34.9374364 45.7530117,35.3569297 C45.7022897,35.3585133 45.6523735,35.3536549 45.6053979,35.341724 C45.5575189,35.3295637 45.5178091,35.3112677 45.4836136,35.2881167 C45.4525929,35.2630353 45.4213805,35.2375142 45.390168,35.211993 C41.6247816,32.1213383 41.0831474,27.4078331 44.607359,23.0025035 C46.7317499,20.3845657 47.8002051,19.0770563 47.8127246,19.0799754 C47.9788131,19.1366247 48.1483363,19.1910185 48.3636848,19.2547053 C48.4363937,19.2759088 48.5091026,19.2971123 48.5830431,19.3174557 C48.6729844,19.3422539 48.7638973,19.366517 48.8560418,19.3899199 C51.94514,20.1744922 55.4637675,19.9812535 58.6518889,19.0347279 C59.4745396,20.9377488 61.4321937,22.50622 64.3619484,23.3242157 C64.399822,23.3346169 64.4384073,23.3448078 64.4765408,23.3548839 C64.5243516,23.3678089 64.5716425,23.3813838 64.665142,23.4051309 Z" id="Page-1" stroke="none" fill="#D6DBDE" fill-rule="evenodd" opacity="0.800000012"></path>
                    </g>
                </g>
                <g id="Group-25" mask="url(#mask-2)">
                    <g transform="translate(281.279372, 157.007825) rotate(3.000000) translate(-281.279372, -157.007825) translate(245.279372, 128.007825)">
                        <g id="Path" stroke="none" fill="none">
                            <use fill="#FFFFFF" fill-rule="evenodd" xlink:href="#path-11"></use>
                            <path stroke="#D6DBDE" stroke-width="1" d="M8.35575987,50.6624725 L31.9866132,36.8177371 L25.6703209,31.4867786 L2.24171502,45.2130223 L11.0525856,44.5862125 L8.35575987,50.6624725 Z"></path>
                        </g>
                        <g id="Path" stroke="none" fill="none">
                            <use fill="#FFFFFF" fill-rule="evenodd" xlink:href="#path-12"></use>
                            <path stroke="#D6DBDE" stroke-width="1" d="M45.4013273,54.5376798 L42.0912072,34.7138161 L30.9971364,36.4855808 L34.3134621,56.3466088 L39.1676719,50.4362885 L45.4013273,54.5376798 Z"></path>
                        </g>
                        <polygon id="Rectangle-10" stroke="none" fill="#FFFFFF" fill-rule="evenodd" points="67.003977 18.9728731 69.7711036 19.3203953 69.0640254 21.4269905 65.1674829 21.383618"></polygon>
                        <g id="Group-14" stroke="none" stroke-width="1" fill="none" fill-rule="evenodd" transform="translate(9.109786, 1.821957)">
                            <g id="Path">
                                <use fill="#FFFFFF" fill-rule="evenodd" xlink:href="#path-13"></use>
                                <path stroke="#D6DBDE" stroke-width="1" d="M38.5923444,39.0998151 L44.8150782,33.2567101 L53.7619059,30.8651726 L54.3011393,24.8550526 L60.0663988,19.4323198 L54.9723729,13.8614555 L55.5760464,7.39027455 L46.7647979,5.75309557 L41.6310064,0.633009953 L32.440032,3.0080968 L32.2235944,3.01558554 L23.3592316,1.36853763 L17.2464944,6.91142075 L9.74183759,9.09554527 L8.29824496,15.2133745 L1.55755629,21.654624 L6.82785931,27.0442078 L6.10602645,32.8934248 L14.4057576,34.4065949 L19.6837931,39.7047061 L29.0753999,37.2963647 L29.2951416,37.289907 L38.5923444,39.0998151 Z"></path>
                            </g>
                            <path d="M20.1537008,38.1002857 L19.6762265,39.8244122" id="Line-5" stroke="#D6DBDE" stroke-linecap="square"></path>
                            <path d="M14.9410166,32.8597074 L14.4522633,34.5713652" id="Line-5" stroke="#D6DBDE" stroke-linecap="square"></path>
                            <path d="M1.45858349,19.7415513 L1.19616322,21.3870229" id="Line-5" stroke="#D6DBDE" stroke-linecap="square"></path>
                            <path d="M29.5723474,35.7209697 L29.2106781,37.4077756" id="Line-5" stroke="#D6DBDE" stroke-linecap="square"></path>
                            <path d="M38.7618336,37.2417357 L38.4659447,38.9184944" id="Line-5" stroke="#D6DBDE" stroke-linecap="square" transform="translate(38.613889, 38.080115) rotate(-5.000000) translate(-38.613889, -38.080115) "></path>
                            <path d="M44.9036506,31.8139458 L44.6478551,33.5289651" id="Line-5" stroke="#D6DBDE" stroke-linecap="square"></path>
                            <path d="M60.8672361,17.2923146 L60.5268021,19.1047701" id="Line-5" stroke="#D6DBDE" stroke-linecap="square"></path>
                        </g>
                        <polygon id="Rectangle-11" stroke="none" fill="#FFFFFF" fill-rule="evenodd" points="10.8576016 21.7052325 13.9683379 21.8634854 11.6684153 24.3472926 10.6018795 23.2670959"></polygon>
                        <polygon id="Rectangle-11" stroke="none" fill="#FFFFFF" fill-rule="evenodd" points="66.7437016 18.5359561 69.459861 20.2144761 69.3218281 20.9828101 68.7497211 21.5115938 66.4879795 20.0978195"></polygon>
                        <g id="Path" stroke="none" fill="none">
                            <use fill="#FFFFFF" fill-rule="evenodd" xlink:href="#path-14"></use>
                            <path stroke="#D6DBDE" stroke-width="1" d="M47.6711392,38.7491106 L53.7898134,33.200844 L63.0362774,30.8114178 L63.6472128,24.2623911 L69.6125542,18.8531629 L64.5919999,13.8460122 L65.1969649,7.36098685 L56.3857164,5.72380788 L51.2519248,0.603722259 L42.0609504,2.97880911 L41.8445128,2.98629785 L32.98015,1.33924993 L26.8614759,6.88751659 L17.6150119,9.27694279 L17.0040764,15.8259695 L11.0387351,21.2351977 L16.0592894,26.2423483 L15.4543244,32.7273737 L24.2655728,34.3645527 L29.3993644,39.4846383 L38.5903388,37.1095514 L38.8067764,37.1020627 L47.6711392,38.7491106 Z"></path>
                        </g>
                        <path d="M38.7125624,31.5193314 C48.6490332,30.8138015 57.1044438,24.9752625 57.627237,18.5968262 C58.1432166,12.3015211 50.6526739,7.66501763 40.7627504,8.36724244 C30.8262796,9.07277231 22.370869,14.9113113 21.8480758,21.2897477 C21.3320962,27.5850528 28.8226389,32.2215562 38.7125624,31.5193314 Z" id="Oval-12" stroke="#D6DBDE" stroke-width="1" fill="none"></path>
                        <path d="M36.0834091,22.6270949 L38.1711104,23.1573314 C38.1711104,23.1573314 39.7458112,20.676331 40.0357454,20.2710214 C40.6211392,20.2116668 41.1972503,19.9489728 41.5098384,19.5582319 C41.9630912,18.9916575 41.6921907,18.3704484 40.9046351,18.1704242 C40.1170795,17.9704001 39.1115968,18.2674322 38.658344,18.8340065 C38.3465374,19.2237706 38.3776339,19.6398022 38.6842992,19.9263106 C38.3358137,20.3205691 36.0834091,22.6270949 36.0834091,22.6270949 Z M48.5986682,17.5899744 C48.865826,17.6578274 49.1375481,17.7153801 49.4123226,17.7640117 C49.4309418,17.7693283 49.449417,17.7743144 49.4682316,17.7793868 L47.1029162,20.7360747 C44.4322413,24.0744676 39.3913813,26.2570038 34.3853793,26.5722713 C34.3472595,26.5734614 34.3097453,26.5698101 34.274441,26.5608435 C34.2384579,26.5517045 34.2086143,26.5379543 34.1829149,26.5205553 C34.1596015,26.5017055 34.136144,26.4825253 34.1126865,26.463345 C31.2828347,24.1405835 30.875773,20.5981792 33.5243714,17.2873824 C35.1209436,15.3198882 35.9239342,14.337238 35.9333431,14.3394318 C36.0581659,14.3820062 36.18557,14.4228856 36.3474137,14.4707489 C36.4020576,14.4866843 36.4567015,14.5026196 36.512271,14.5179086 C36.5798658,14.5365455 36.6481909,14.5547803 36.7174414,14.5723686 C39.0390331,15.1620088 41.6834348,15.0167815 44.0794468,14.3054263 C44.6977046,15.7356293 46.1689669,16.9144037 48.370805,17.5291631 C48.3992686,17.53698 48.4282671,17.5446389 48.4569262,17.5522116 C48.4928581,17.5619253 48.5283992,17.5721274 48.5986682,17.5899744 Z" id="Page-1" stroke="none" fill="#D6DBDE" fill-rule="evenodd" opacity="0.800000012"></path>
                    </g>
                </g>
                <g id="Group-25" mask="url(#mask-2)">
                    <g transform="translate(30.798590, 27.174799) rotate(3.000000) translate(-30.798590, -27.174799) translate(-8.201410, -4.825201)">
                        <g id="Path" stroke="none" fill="none">
                            <use fill="#FFFFFF" fill-rule="evenodd" xlink:href="#path-15"></use>
                            <path stroke="#D6DBDE" stroke-width="1" d="M9.0628326,55.7088936 L35.1819936,40.4063199 L28.1724489,34.4902555 L2.25553534,49.6743374 L12.0504152,48.9775247 L9.0628326,55.7088936 Z"></path>
                        </g>
                        <g id="Path" stroke="none" fill="none">
                            <use fill="#FFFFFF" fill-rule="evenodd" xlink:href="#path-16"></use>
                            <path stroke="#D6DBDE" stroke-width="1" d="M49.8839873,59.9445998 L46.2255822,38.034904 L33.9562945,39.9943552 L37.6209052,61.9412153 L42.9874626,55.407078 L49.8839873,59.9445998 Z"></path>
                        </g>
                        <polygon id="Rectangle-10" stroke="none" fill="#FFFFFF" fill-rule="evenodd" points="73.5216839 20.8184296 76.5579784 21.1997565 75.7821202 23.5112674 71.5065476 23.4636759"></polygon>
                        <g id="Group-14" stroke="none" stroke-width="1" fill="none" fill-rule="evenodd" transform="translate(9.995926, 1.999185)">
                            <g id="Path">
                                <use fill="#FFFFFF" fill-rule="evenodd" xlink:href="#path-17"></use>
                                <path stroke="#D6DBDE" stroke-width="1" d="M42.3614979,42.9556861 L49.198771,36.5355329 L59.0369151,33.9057414 L59.6299875,27.2955495 L65.9775189,21.3251388 L60.3701512,15.1928802 L61.034671,8.06944718 L51.3374564,6.26765077 L45.6952949,0.640552488 L35.5834165,3.25361487 L35.3669789,3.26110361 L25.6166499,1.44943826 L18.8997588,7.54015374 L10.6486364,9.94152653 L9.06141824,16.6680292 L1.63989264,23.759871 L7.44089159,29.6921617 L6.64608646,36.1326938 L15.7833479,37.7985587 L21.5836622,43.6209353 L31.9157451,40.9714225 L32.1354869,40.9649647 L42.3614979,42.9556861 Z"></path>
                            </g>
                            <path d="M22.1141204,41.8064312 L21.5902006,43.6982695" id="Line-5" stroke="#D6DBDE" stroke-linecap="square"></path>
                            <path d="M16.3943806,36.0560839 L15.8580845,37.9342406" id="Line-5" stroke="#D6DBDE" stroke-linecap="square"></path>
                            <path d="M1.60046492,21.6618798 L1.31251812,23.4674121" id="Line-5" stroke="#D6DBDE" stroke-linecap="square"></path>
                            <path d="M32.4489511,39.195671 L32.0521011,41.0465583" id="Line-5" stroke="#D6DBDE" stroke-linecap="square"></path>
                            <path d="M42.5323303,40.8643672 L42.2076591,42.7042299" id="Line-5" stroke="#D6DBDE" stroke-linecap="square" transform="translate(42.369995, 41.784299) rotate(-5.000000) translate(-42.369995, -41.784299) "></path>
                            <path d="M49.2715828,34.9085976 L48.9909052,36.7904426" id="Line-5" stroke="#D6DBDE" stroke-linecap="square"></path>
                            <path d="M66.788001,18.9743974 L66.4144519,20.9631566" id="Line-5" stroke="#D6DBDE" stroke-linecap="square"></path>
                        </g>
                        <polygon id="Rectangle-11" stroke="none" fill="#FFFFFF" fill-rule="evenodd" points="11.9137577 23.816575 15.3270861 23.9902217 12.8034421 26.7156373 11.6331607 25.5303662"></polygon>
                        <polygon id="Rectangle-11" stroke="none" fill="#FFFFFF" fill-rule="evenodd" points="73.2360905 20.3390122 76.2164601 22.1808076 76.0650003 23.0238801 75.4372425 23.6041004 72.9554935 22.0528034"></polygon>
                        <g id="Path" stroke="none" fill="none">
                            <use fill="#FFFFFF" fill-rule="evenodd" xlink:href="#path-18"></use>
                            <path stroke="#D6DBDE" stroke-width="1" d="M52.3230888,42.5705913 L59.045917,36.4744923 L69.213285,33.8470906 L69.8850668,26.6458119 L76.4545622,20.6887513 L70.9256379,15.174588 L71.5914492,8.03731058 L61.8942346,6.23551416 L56.2520732,0.60841588 L46.1401947,3.22147826 L45.9237571,3.228967 L36.1734282,1.41730165 L29.4506,7.51340066 L19.283232,10.1408024 L18.6114502,17.3420811 L12.0419548,23.2991417 L17.570879,28.813305 L16.9050677,35.9505824 L26.6022824,37.7523788 L32.2444438,43.3794771 L42.3563222,40.7664147 L42.5727598,40.758926 L52.3230888,42.5705913 Z"></path>
                        </g>
                        <path d="M42.4817109,34.6338395 C53.4060287,33.8581685 62.7053488,27.4369022 63.2813103,20.4097764 C63.8504582,13.4657818 55.6022088,8.3602723 44.7244383,9.13263826 C33.8001206,9.90830928 24.5008005,16.3295756 23.9248389,23.3567014 C23.3556911,30.300696 31.6039405,35.4062055 42.4817109,34.6338395 Z" id="Oval-12" stroke="#D6DBDE" stroke-width="1" fill="none"></path>
                        <path d="M39.5933662,24.8281101 L41.8841453,25.4099245 C41.8841453,25.4099245 43.6120226,22.6875887 43.9301598,22.2428533 C44.5724969,22.177725 45.2046482,21.8894779 45.5476429,21.4607283 C46.0449852,20.8390413 45.7477332,20.157405 44.8835693,19.9379238 C44.0194055,19.7184426 42.9161161,20.044368 42.4187738,20.666055 C42.0766367,21.0937328 42.110758,21.5502332 42.4472537,21.8646112 C42.0648698,22.2972206 39.5933662,24.8281101 39.5933662,24.8281101 Z M53.3260274,19.3010115 C53.6191727,19.3754649 53.917326,19.438616 54.2188288,19.4919781 C54.2392592,19.4978118 54.2595315,19.503283 54.2801762,19.5088488 L51.6847786,22.7531438 C48.754318,26.4162737 43.2231162,28.8111127 37.7301632,29.1570473 C37.6883353,29.1583532 37.6471719,29.1543467 37.6084336,29.1445079 C37.5689502,29.1344799 37.5362036,29.1193922 37.5080043,29.1003008 C37.4824232,29.0796174 37.4566839,29.0585714 37.4309446,29.0375255 C34.3258234,26.488821 33.8791655,22.6018348 36.7854021,18.9689854 C38.5372784,16.8101063 39.4183786,15.7318703 39.4287028,15.7342775 C39.5656675,15.7809933 39.7054646,15.8258491 39.8830514,15.8783684 C39.9430107,15.8958538 40.00297,15.9133392 40.063945,15.9301154 C40.138115,15.9505652 40.2130862,15.9705737 40.289073,15.9898729 C42.8364939,16.6368694 45.7381256,16.4775154 48.3672059,15.6969643 C49.0456037,17.266288 50.6599807,18.5597258 53.0759992,19.234285 C53.1072316,19.2428622 53.1390509,19.2512662 53.1704977,19.2595755 C53.2099248,19.270234 53.2489232,19.2814285 53.3260274,19.3010115 Z" id="Page-1" stroke="none" fill="#D6DBDE" fill-rule="evenodd" opacity="0.800000012"></path>
                    </g>
                </g>
                <g id="Group-25" mask="url(#mask-2)">
                    <g transform="translate(291.204957, 17.285427) rotate(3.000000) translate(-291.204957, -17.285427) translate(264.704957, -4.214573)">
                        <g id="Path" stroke="none" fill="none">
                            <use fill="#FFFFFF" fill-rule="evenodd" xlink:href="#path-19"></use>
                            <path stroke="#D6DBDE" stroke-width="1" d="M6.4225569,36.8650855 L23.2501443,27.0062161 L18.8292689,23.2749919 L2.20392899,33.0153694 L8.32442621,32.5799542 L6.4225569,36.8650855 Z"></path>
                        </g>
                        <g id="Path" stroke="none" fill="none">
                            <use fill="#FFFFFF" fill-rule="evenodd" xlink:href="#path-20"></use>
                            <path stroke="#D6DBDE" stroke-width="1" d="M33.1453156,39.754655 L30.7874394,25.6336515 L22.9065216,26.8922635 L25.2706034,41.0504315 L28.724007,36.845685 L33.1453156,39.754655 Z"></path>
                        </g>
                        <polygon id="Rectangle-10" stroke="none" fill="#FFFFFF" fill-rule="evenodd" points="49.1839571 13.9269491 51.2151535 14.1820462 50.696126 15.7283825 47.8358871 15.6965452"></polygon>
                        <g id="Group-14" stroke="none" stroke-width="1" fill="none" fill-rule="evenodd" transform="translate(6.686996, 1.337399)">
                            <g id="Path">
                                <use fill="#FFFFFF" fill-rule="evenodd" xlink:href="#path-21"></use>
                                <path stroke="#D6DBDE" stroke-width="1" d="M28.2871264,28.5575032 L32.8296522,24.2921021 L39.3395375,22.551973 L39.7315701,18.1825059 L43.9048438,14.2571755 L40.2143423,10.2212159 L40.6516564,5.53335305 L34.2627222,4.34625355 L30.5188614,0.612387957 L23.8457248,2.33682744 L23.6292871,2.34431619 L17.1872386,1.14734774 L12.7263151,5.19240598 L7.2625649,6.78255341 L6.21165787,11.2362128 L1.33244101,15.8986819 L5.15177173,19.8044541 L4.62945188,24.0369604 L10.6392971,25.1326486 L14.4893733,28.9973692 L21.3096305,27.2484132 L21.5293722,27.2419554 L28.2871264,28.5575032 Z"></path>
                            </g>
                            <path d="M14.7937301,27.9673372 L14.6257843,28.7393861" id="Line-5" stroke="#D6DBDE" stroke-linecap="square"></path>
                            <path d="M10.9673836,24.1205151 L10.6385401,25.1675324" id="Line-5" stroke="#D6DBDE" stroke-linecap="square"></path>
                            <path d="M1.30666167,14.7961881 L1.1999425,15.4627856" id="Line-5" stroke="#D6DBDE" stroke-linecap="square"></path>
                            <path d="M21.7074438,26.2208113 L21.4380403,27.1483799" id="Line-5" stroke="#D6DBDE" stroke-linecap="square"></path>
                            <path d="M28.4413921,27.3393479 L28.1847773,28.3033723" id="Line-5" stroke="#D6DBDE" stroke-linecap="square" transform="translate(28.313085, 27.821360) rotate(-5.000000) translate(-28.313085, -27.821360) "></path>
                            <path d="M32.984144,23.3528787 L32.8397504,24.1414116" id="Line-5" stroke="#D6DBDE" stroke-linecap="square"></path>
                            <path d="M44.3588648,12.9189197 L44.2192719,13.7003371" id="Line-5" stroke="#D6DBDE" stroke-linecap="square"></path>
                        </g>
                        <polygon id="Rectangle-11" stroke="none" fill="#FFFFFF" fill-rule="evenodd" points="9.1269612 15.5140725 11.2520229 15.9964536 9.18683549 17.7143022 8.29878029 16.8612644 8.41590016 16.0936152"></polygon>
                        <polygon id="Rectangle-11" stroke="none" fill="#FFFFFF" fill-rule="evenodd" points="49.6042401 13.2467962 50.6031014 14.2187401 50.4294956 15.0607975 49.7333854 15.7110353 48.8051915 14.7527107"></polygon>
                        <g id="Path" stroke="none" fill="none">
                            <use fill="#FFFFFF" fill-rule="evenodd" xlink:href="#path-22"></use>
                            <path stroke="#D6DBDE" stroke-width="1" d="M34.9522741,28.300825 L39.4191346,24.2503833 L46.1477609,22.5116044 L46.5923369,17.7458958 L50.9058647,13.8344925 L47.2752411,10.2135619 L47.7138467,5.51185456 L41.3249126,4.32475506 L37.5810518,0.590889461 L30.9079151,2.31532895 L30.6914775,2.32281769 L24.249429,1.12584925 L19.7825685,5.17629101 L13.0539422,6.91506985 L12.6093661,11.6807785 L8.29583839,15.5921818 L11.9264619,19.2131124 L11.4878563,23.9148197 L17.8767905,25.1019192 L21.6206513,28.8357848 L28.2937879,27.1113453 L28.5102255,27.1038566 L34.9522741,28.300825 Z"></path>
                        </g>
                        <path d="M28.4073578,23.003975 C35.6429628,22.4902176 41.7910457,18.2449096 42.1684719,13.6400509 C42.5390845,9.11832335 37.1201829,5.76412636 29.9311252,6.27457871 C22.6955202,6.78833611 16.5474373,11.0336441 16.1700111,15.6385028 C15.7993986,20.1602303 21.2183001,23.5144273 28.4073578,23.003975 Z" id="Oval-12" stroke="#D6DBDE" stroke-width="1" fill="none"></path>
                        <path d="M26.4868583,16.6093136 L28.0193257,16.9985312 C28.0193257,16.9985312 29.1752275,15.1773644 29.3880523,14.8798488 C29.817758,14.8362798 30.2406496,14.6434506 30.4701035,14.356629 C30.8028116,13.9407377 30.6039583,13.484742 30.0258568,13.3379152 C29.4477553,13.1910885 28.7096854,13.4091235 28.3769773,13.8250147 C28.1480971,14.1111192 28.1709233,14.4165053 28.3960295,14.6268155 C28.1402254,14.9162191 26.4868583,16.6093136 26.4868583,16.6093136 Z M35.6736259,12.9118387 C35.8697319,12.9616459 36.0691882,13.0038922 36.2708852,13.03959 C36.2845525,13.0434926 36.2981141,13.0471527 36.3119249,13.050876 L34.5756762,15.221219 C32.6152797,17.6717508 28.9150599,19.2738313 25.2404274,19.5052519 C25.2124458,19.5061255 25.1849086,19.5034453 25.1589937,19.4968634 C25.1325805,19.4901549 25.1106739,19.4800617 25.0918094,19.46729 C25.0746963,19.4534534 25.0574774,19.4393743 25.0402585,19.4252951 C22.963019,17.7202829 22.6642173,15.1199975 24.6084086,12.6897225 C25.780365,11.2454925 26.3697965,10.5241827 26.3767031,10.5257931 C26.4683286,10.5570446 26.561849,10.5870519 26.6806496,10.6221858 C26.7207608,10.6338831 26.7608719,10.6455804 26.8016624,10.6568031 C26.8512801,10.6704835 26.9014337,10.6838686 26.9522668,10.6967793 C28.6564204,11.1296019 30.5975311,11.0229985 32.3563125,10.5008315 C32.8101418,11.5506654 33.890115,12.4159392 35.506364,12.8672005 C35.5272576,12.8729385 35.5485438,12.8785604 35.5695809,12.8841191 C35.5959565,12.8912494 35.6220453,12.8987382 35.6736259,12.9118387 Z" id="Page-1" stroke="none" fill="#D6DBDE" fill-rule="evenodd" opacity="0.800000012"></path>
                    </g>
                </g>
            </g>
        </g>
    </g>
</svg>