<?xml version="1.0" encoding="UTF-8"?>
<svg width="320px" height="201px" viewBox="0 0 320 201" version="1.1" xmlns="http://www.w3.org/2000/svg" xmlns:xlink="http://www.w3.org/1999/xlink">
    <!-- Generator: Sketch 48.2 (47327) - http://www.bohemiancoding.com/sketch -->
    <title>Group 2</title>
    <desc>Created with Sketch.</desc>
    <defs>
        <rect id="path-1" x="0" y="0" width="320" height="201" rx="5"></rect>
        <path d="M70.9014893,16.0734863 C71.609967,18.8256607 71.9716725,20.2502442 71.9866059,20.3472369 C72.043162,20.7145712 72.0109173,21.1009125 71.8752218,21.4749277 C71.77312,21.7563492 71.6168364,22.0150239 71.4152128,22.2363172 L58.6920815,36.5724905 C57.7553712,37.600583 56.2912041,37.9624693 54.9833984,37.4891357 L3.44584702,23.0805159 C2.59460353,22.7724257 2.03745779,22.0122108 1.94726562,21.1688232 L1.02737182,17.454563 L70.9014893,16.0734863 Z" id="path-3"></path>
        <polyline id="path-4" points="68.5463257 22.961792 77.354248 25.5714111 67.739624 36.0393066 59.7384033 33.8212891"></polyline>
        <path d="M69.5033409,14.5407928 C70.6924143,14.9721974 71.3066263,16.2858543 70.8752218,17.4749277 C70.77312,17.7563492 70.6168364,18.0150239 70.4152128,18.2363172 C69.5663123,19.1892965 68.9409596,19.8913199 68.539155,20.3423875 C64.8302876,24.5059774 61.9789601,27.7068895 59.9851725,29.9451238 C59.5090295,30.4796438 58.7948152,31.2814238 57.8425293,32.3504639 C56.905819,33.3785563 55.4416519,33.7404427 54.1338463,33.2671091 L2.44584702,19.0805159 C1.25643925,18.650034 0.641208272,17.336854 1.07169017,16.1474462 C1.16766264,15.8822774 1.31178071,15.6371126 1.49679407,15.4242857 L14.6070628,0.817261042 C15.2285902,0.102297752 16.2261506,-0.156227432 17.1166992,0.166870117 L69.5033409,14.5407928 Z" id="path-5"></path>
        <path d="M13.7529297,12.0648193 C14.8574992,12.0648193 15.7529297,11.3426107 15.7529297,10.4517212 C15.7529297,9.56083169 14.8574992,8.83862305 13.7529297,8.83862305 C12.6483602,8.83862305 11.7529297,9.56083169 11.7529297,10.4517212 C11.7529297,11.3426107 12.6483602,12.0648193 13.7529297,12.0648193 Z" id="path-6"></path>
        <polygon id="path-7" points="67.6943359 19.8063965 76.8933105 22.2801514 67.2786865 32.7480469 58.3529053 30.2805786"></polygon>
        <path d="M145.543118,78.948312 L337,119.355372 L337,217 L15,217 L137.96493,81.4018293 C139.875335,79.2951526 142.76052,78.3610436 145.543118,78.948312 Z" id="path-8"></path>
        <path d="M150.363435,97.208816 L340.530753,137.71783 L333.494141,225.832031 L207.976272,208.972656 L75.4868204,181.648127 C73.8641173,181.313462 72.8199563,179.726701 73.1546214,178.103998 C73.2635192,177.575981 73.5126941,177.087067 73.8759387,176.688678 L144.679683,99.0345814 C146.115568,97.4597717 148.279053,96.7648056 150.363435,97.208816 Z" id="path-9"></path>
        <path d="M69.6005024,0.632614572 L87.7265609,4.6330325 C88.2658675,4.75205736 88.6065731,5.28574039 88.4875482,5.82504692 C88.4502532,5.99403223 88.3697436,6.15044707 88.2538916,6.27899766 L85.1711394,9.69964993 C84.6944452,10.2285946 83.9724737,10.4642036 83.2755366,10.3182632 L65.0055096,6.49247158 C64.4649493,6.37927685 64.1185011,5.84930371 64.2316959,5.30874345 C64.267636,5.13711149 64.348076,4.97794759 64.4649469,4.84721727 L67.6784355,1.25264952 C68.1600606,0.713909726 68.8948473,0.476876631 69.6005024,0.632614572 Z" id="path-10"></path>
        <path d="M93.1431049,5.65214582 L111.269163,9.65256375 C111.80847,9.77158861 112.149176,10.3052716 112.030151,10.8445782 C111.992856,11.0135635 111.912346,11.1699783 111.796494,11.2985289 L108.713742,14.7191812 C108.237048,15.2481258 107.515076,15.4837349 106.818139,15.3377944 L88.5481121,11.5120028 C88.0075519,11.3988081 87.6611037,10.868835 87.7742984,10.3282747 C87.8102386,10.1566427 87.8906785,9.99747884 88.0075494,9.86674852 L91.221038,6.27218077 C91.7026631,5.73344098 92.4374499,5.49640788 93.1431049,5.65214582 Z" id="path-11"></path>
        <path d="M117.856606,10.8893284 L135.982664,14.8897464 C136.521971,15.0087712 136.862677,15.5424543 136.743652,16.0817608 C136.706357,16.2507461 136.625847,16.4071609 136.509995,16.5357115 L133.427243,19.9563638 C132.950549,20.4853085 132.228577,20.7209175 131.53164,20.574977 L113.261613,16.7491855 C112.721053,16.6359907 112.374605,16.1060176 112.487799,15.5654573 C112.52374,15.3938254 112.60418,15.2346615 112.72105,15.1039311 L115.934539,11.5093634 C116.416164,10.9706236 117.150951,10.7335905 117.856606,10.8893284 Z" id="path-12"></path>
        <path d="M142.558632,16.1534886 L160.684691,20.1539065 C161.223997,20.2729314 161.564703,20.8066144 161.445678,21.3459209 C161.408383,21.5149063 161.327874,21.6713211 161.212021,21.7998717 L158.129269,25.220524 C157.652575,25.7494686 156.930604,25.9850777 156.233666,25.8391372 L137.963639,22.0133456 C137.423079,21.9001509 137.076631,21.3701777 137.189826,20.8296175 C137.225766,20.6579855 137.306206,20.4988216 137.423077,20.3680913 L140.636565,16.7735235 C141.11819,16.2347837 141.852977,15.9977507 142.558632,16.1534886 Z" id="path-13"></path>
        <path d="M166.174843,21.1515355 L184.300902,25.1519534 C184.840208,25.2709783 185.180914,25.8046613 185.061889,26.3439678 C185.024594,26.5129531 184.944084,26.669368 184.828232,26.7979186 L181.74548,30.2185708 C181.268786,30.7475155 180.546814,30.9831245 179.849877,30.8371841 L161.57985,27.0113925 C161.03929,26.8981977 160.692842,26.3682246 160.806037,25.8276643 C160.841977,25.6560324 160.922417,25.4968685 161.039288,25.3661382 L164.252776,21.7715704 C164.734401,21.2328306 165.469188,20.9957975 166.174843,21.1515355 Z" id="path-14"></path>
        <path d="M189.773905,26.1735139 L207.899963,30.1739319 C208.43927,30.2929567 208.779975,30.8266398 208.660951,31.3659463 C208.623656,31.5349316 208.543146,31.6913464 208.427294,31.819897 L205.344542,35.2405493 C204.867848,35.769494 204.145876,36.005103 203.448939,35.8591625 L185.178912,32.033371 C184.638352,31.9201762 184.291904,31.3902031 184.405098,30.8496428 C184.441038,30.6780109 184.521478,30.518847 184.638349,30.3881166 L187.851838,26.7935489 C188.333463,26.2548091 189.06825,26.017776 189.773905,26.1735139 Z" id="path-15"></path>
        <path d="M213.306009,31.210135 L231.432068,35.210553 C231.971374,35.3295778 232.31208,35.8632609 232.193055,36.4025674 C232.15576,36.5715527 232.075251,36.7279675 231.959398,36.8565181 L228.876646,40.2771704 C228.399952,40.8061151 227.677981,41.0417241 226.981044,40.8957836 L208.711017,37.069992 C208.170456,36.9567973 207.824008,36.4268242 207.937203,35.8862639 C207.973143,35.714632 208.053583,35.5554681 208.170454,35.4247377 L211.383942,31.83017 C211.865567,31.2914302 212.600354,31.0543971 213.306009,31.210135 Z" id="path-16"></path>
        <path d="M236.905008,36.1931673 L255.031067,40.1935852 C255.570373,40.31261 255.911079,40.8462931 255.792054,41.3855996 C255.754759,41.5545849 255.67425,41.7109998 255.558398,41.8395503 L252.475645,45.2602026 C251.998951,45.7891473 251.27698,46.0247563 250.580043,45.8788159 L232.310016,42.0530243 C231.769455,41.9398295 231.423007,41.4098564 231.536202,40.8692961 C231.572142,40.6976642 231.652582,40.5385003 231.769453,40.40777 L234.982941,36.8132022 C235.464567,36.2744624 236.199353,36.0374293 236.905008,36.1931673 Z" id="path-17"></path>
        <path d="M11.4431226,0.402300362 L29.3013594,4.27627086 C29.8410908,4.39335427 30.1837146,4.92580783 30.0666312,5.46553917 C30.0292206,5.63799467 29.9468408,5.79747949 29.8278567,5.92779927 L20.7988377,15.8170205 C20.320263,16.3411893 19.5997274,16.572445 18.9054981,16.4246872 L1.00183192,12.6141222 C0.461646764,12.4991507 0.116942955,11.9680413 0.231914419,11.4278562 C0.26886044,11.2542679 0.35133859,11.0936395 0.470881057,10.9624623 L9.54087581,1.00970413 C10.0212913,0.482530795 10.7460948,0.251094791 11.4431226,0.402300362 Z" id="path-18"></path>
        <path d="M35.1314191,5.37438772 L52.9896559,9.24835821 C53.5293873,9.36544162 53.8720111,9.89789518 53.7549277,10.4376265 C53.7175171,10.610082 53.6351372,10.7695668 53.5161532,10.8998866 L44.4871341,20.7891078 C44.0085595,21.3132767 43.2880239,21.5445324 42.5937946,21.3967746 L24.6901284,17.5862095 C24.1499432,17.4712381 23.8052394,16.9401287 23.9202109,16.3999435 C23.9571569,16.2263553 24.0396351,16.0657269 24.1591775,15.9345496 L33.2291723,5.98179149 C33.7095878,5.45461815 34.4343913,5.22318215 35.1314191,5.37438772 Z" id="path-19"></path>
        <path d="M58.8035074,10.3730899 L76.6617443,14.2470604 C77.2014756,14.3641438 77.5440995,14.8965973 77.4270161,15.4363287 C77.3896055,15.6087842 77.3072256,15.768269 77.1882416,15.8985888 L68.1592225,25.78781 C67.6806479,26.3119788 66.9601122,26.5432345 66.265883,26.3954767 L48.3622168,22.5849117 C47.8220316,22.4699402 47.4773278,21.9388308 47.5922993,21.3986457 C47.6292453,21.2250574 47.7117234,21.064429 47.8312659,20.9332518 L56.9012607,10.9804936 C57.3816762,10.4533203 58.1064797,10.2218843 58.8035074,10.3730899 Z" id="path-20"></path>
        <path d="M82.42264,15.3901445 L100.280877,19.264115 C100.820608,19.3811984 101.163232,19.9136519 101.046149,20.4533833 C101.008738,20.6258388 100.926358,20.7853236 100.807374,20.9156434 L91.7783551,30.8048646 C91.2997804,31.3290334 90.5792448,31.5602891 89.8850155,31.4125314 L71.9813493,27.6019663 C71.4411642,27.4869948 71.0964604,26.9558854 71.2114318,26.4157003 C71.2483778,26.2421121 71.330856,26.0814837 71.4503985,25.9503064 L80.5203932,15.9975482 C81.0008087,15.4703749 81.7256123,15.2389389 82.42264,15.3901445 Z" id="path-21"></path>
        <path d="M106.076983,20.4038532 L123.93522,24.2778237 C124.474951,24.3949071 124.817575,24.9273607 124.700492,25.467092 C124.663081,25.6395475 124.580701,25.7990323 124.461717,25.9293521 L115.432698,35.8185733 C114.954124,36.3427422 114.233588,36.5739979 113.539359,36.4262401 L95.6356926,32.615675 C95.0955075,32.5007035 94.7508036,31.9695942 94.8657751,31.429409 C94.9027211,31.2558208 94.9851993,31.0951924 95.1047417,30.9640151 L104.174737,21.011257 C104.655152,20.4840836 105.379956,20.2526476 106.076983,20.4038532 Z" id="path-22"></path>
        <path d="M129.669262,25.3955369 L225.993346,45.810176 C226.53363,45.9246822 226.878791,46.4554945 226.764285,46.9957785 C226.727362,47.1699944 226.644585,47.3311897 226.52451,47.4627051 L217.500483,57.3464587 C217.022715,57.8697433 216.30373,58.1011669 215.610425,57.9548212 L119.236955,37.6118917 C118.696577,37.4978265 118.350983,36.9672961 118.465048,36.4269189 C118.501821,36.2527121 118.584437,36.0914819 118.704363,35.959884 L127.776348,26.0049419 C128.254468,25.4802877 128.974854,25.2483663 129.669262,25.3955369 Z" id="path-23"></path>
        <path d="M39.6497342,6.19475319 L57.507971,10.0687237 C58.0477023,10.1858071 58.3903262,10.7182607 58.2732428,11.257992 C58.2358322,11.4304475 58.1534523,11.5899323 58.0344683,11.7202521 L49.0054492,21.6094733 C48.5268746,22.1336422 47.806339,22.3648979 47.1121097,22.2171401 L29.2084435,18.406575 C28.6682583,18.2916035 28.3235545,17.7604942 28.438526,17.220309 C28.475472,17.0467208 28.5579502,16.8860924 28.6774926,16.7549151 L37.7474874,6.80215696 C38.2279029,6.27498363 38.9527064,6.04354762 39.6497342,6.19475319 Z" id="path-24"></path>
        <path d="M63.3380306,11.1668405 L81.1962675,15.040811 C81.7359988,15.1578945 82.0786227,15.690348 81.9615393,16.2300794 C81.9241287,16.4025349 81.8417488,16.5620197 81.7227648,16.6923395 L72.6937457,26.5815607 C72.2151711,27.1057295 71.4946354,27.3369852 70.8004062,27.1892274 L52.89674,23.3786624 C52.3565548,23.2636909 52.011851,22.7325815 52.1268225,22.1923964 C52.1637685,22.0188081 52.2462466,21.8581797 52.3657891,21.7270025 L61.4357839,11.7742443 C61.9161994,11.247071 62.6410029,11.015635 63.3380306,11.1668405 Z" id="path-25"></path>
        <path d="M87.010119,16.1655427 L104.868356,20.0395132 C105.408087,20.1565966 105.750711,20.6890502 105.633628,21.2287815 C105.596217,21.401237 105.513837,21.5607218 105.394853,21.6910416 L96.3658341,31.5802628 C95.8872594,32.1044317 95.1667238,32.3356874 94.4724945,32.1879296 L76.5688283,28.3773645 C76.0286432,28.262393 75.6839394,27.7312837 75.7989108,27.1910985 C75.8358569,27.0175103 75.918335,26.8568819 76.0378775,26.7257046 L85.1078722,16.7729465 C85.5882878,16.2457731 86.3130913,16.0143371 87.010119,16.1655427 Z" id="path-26"></path>
        <path d="M110.629252,21.1825973 L128.487488,25.0565678 C129.02722,25.1736512 129.369844,25.7061048 129.25276,26.2458361 C129.21535,26.4182916 129.13297,26.5777764 129.013986,26.7080962 L119.984967,36.5973174 C119.506392,37.1214863 118.785856,37.352742 118.091627,37.2049842 L100.187961,33.3944191 C99.6477757,33.2794477 99.3030719,32.7483383 99.4180434,32.2081531 C99.4549894,32.0345649 99.5374676,31.8739365 99.65701,31.7427592 L108.727005,21.7900011 C109.20742,21.2628277 109.932224,21.0313917 110.629252,21.1825973 Z" id="path-27"></path>
        <path d="M11.3727379,0.140812256 L33.896851,4.99920114 C34.4367198,5.11564934 34.77997,5.64769934 34.6635218,6.18756809 C34.62623,6.36045766 34.5437517,6.52036381 34.4244985,6.65097835 L25.3966664,16.5388995 C24.9183117,17.0628275 24.1981983,17.2941291 23.5042206,17.1467563 L0.933760977,12.3537024 C0.393523344,12.2389777 0.048576918,11.7080259 0.163301569,11.1677882 C0.200200474,10.9940315 0.28271635,10.8332393 0.402363216,10.7019474 L9.47279148,0.748713617 C9.95264081,0.222161561 10.6763544,-0.00939574299 11.3727379,0.140812256 Z" id="path-28"></path>
        <path d="M134.283595,26.196306 L152.141832,30.0702765 C152.681563,30.1873599 153.024187,30.7198135 152.907103,31.2595448 C152.869693,31.4320003 152.787313,31.5914851 152.668329,31.7218049 L143.63931,41.6110261 C143.160735,42.135195 142.4402,42.3664507 141.74597,42.2186929 L123.842304,38.4081278 C123.302119,38.2931564 122.957415,37.762047 123.072387,37.2218618 C123.109333,37.0482736 123.191811,36.8876452 123.311353,36.7564679 L132.381348,26.8037098 C132.861764,26.2765365 133.586567,26.0451004 134.283595,26.196306 Z" id="path-29"></path>
        <path d="M157.962669,31.1970983 L175.820906,35.0710688 C176.360638,35.1881522 176.703262,35.7206058 176.586178,36.2603371 C176.548767,36.4327926 176.466388,36.5922775 176.347404,36.7225972 L167.318385,46.6118184 C166.83981,47.1359873 166.119274,47.367243 165.425045,47.2194852 L147.521379,43.4089201 C146.981194,43.2939487 146.63649,42.7628393 146.751461,42.2226541 C146.788407,42.0490659 146.870885,41.8884375 146.990428,41.7572602 L156.060423,31.8045021 C156.540838,31.2773288 157.265642,31.0458928 157.962669,31.1970983 Z" id="path-30"></path>
        <path d="M181.619109,36.1987267 L199.477345,40.0726972 C200.017077,40.1897806 200.359701,40.7222342 200.242617,41.2619655 C200.205207,41.434421 200.122827,41.5939058 200.003843,41.7242256 L190.974824,51.6134468 C190.496249,52.1376157 189.775713,52.3688714 189.081484,52.2211136 L171.177818,48.4105485 C170.637633,48.295577 170.292929,47.7644677 170.4079,47.2242825 C170.444846,47.0506943 170.527325,46.8900659 170.646867,46.7588886 L179.716862,36.8061305 C180.197277,36.2789571 180.922081,36.0475211 181.619109,36.1987267 Z" id="path-31"></path>
        <path d="M205.240818,41.4221402 L223.099055,45.2961107 C223.638786,45.4131941 223.98141,45.9456477 223.864327,46.485379 C223.826916,46.6578345 223.744536,46.8173194 223.625552,46.9476392 L214.596533,56.8368604 C214.117959,57.3610292 213.397423,57.5922849 212.703194,57.4445271 L194.799528,53.6339621 C194.259342,53.5189906 193.914639,52.9878812 194.02961,52.4476961 C194.066556,52.2741078 194.149034,52.1134794 194.268577,51.9823021 L203.338571,42.029544 C203.818987,41.5023707 204.54379,41.2709347 205.240818,41.4221402 Z" id="path-32"></path>
        <path d="M12.0434618,0.301482694 L57.4840382,9.9164718 C58.0243596,10.030801 58.3696946,10.5615002 58.2553654,11.1018217 C58.2184766,11.2761584 58.135673,11.4374713 58.0155223,11.5690687 L48.990881,21.4534952 C48.513685,21.976154 47.7957956,22.2076951 47.103147,22.0623466 L1.61428631,12.5167597 C1.07377401,12.4033362 0.72755015,11.8732164 0.84097368,11.3327041 C0.877621876,11.1580596 0.960335545,10.9964031 1.08053266,10.8645074 L10.1511889,0.91102347 C10.6291512,0.386542081 11.3492351,0.154587952 12.0434618,0.301482694 Z" id="path-33"></path>
        <path d="M63.2155033,11.0814892 L81.0737402,14.9554597 C81.6134715,15.0725431 81.9560954,15.6049967 81.8390119,16.144728 C81.8016013,16.3171835 81.7192215,16.4766683 81.6002374,16.6069881 L72.5712184,26.4962093 C72.0926437,27.0203782 71.3721081,27.2516339 70.6778788,27.1038761 L52.7742127,23.293311 C52.2340275,23.1783396 51.8893237,22.6472302 52.0042952,22.107045 C52.0412412,21.9334568 52.1237193,21.7728284 52.2432618,21.6416511 L61.3132565,11.688893 C61.7936721,11.1617196 62.5184756,10.9302836 63.2155033,11.0814892 Z" id="path-34"></path>
        <path d="M86.8743178,16.0956586 L104.732555,19.9696291 C105.272286,20.0867125 105.61491,20.6191661 105.497826,21.1588974 C105.460416,21.3313529 105.378036,21.4908377 105.259052,21.6211575 L96.2300329,31.5103787 C95.7514582,32.0345476 95.0309226,32.2658032 94.3366933,32.1180455 L76.4330271,28.3074804 C75.892842,28.1925089 75.5481382,27.6613996 75.6631096,27.1212144 C75.7000557,26.9476262 75.7825338,26.7869978 75.9020763,26.6558205 L84.972071,16.7030624 C85.4524865,16.175889 86.1772901,15.944453 86.8743178,16.0956586 Z" id="path-35"></path>
        <path d="M110.520976,21.1011886 L128.379213,24.9751591 C128.918944,25.0922425 129.261568,25.6246961 129.144485,26.1644274 C129.107074,26.3368829 129.024694,26.4963677 128.90571,26.6266875 L119.876691,36.5159087 C119.398117,37.0400776 118.677581,37.2713333 117.983352,37.1235755 L100.079686,33.3130104 C99.5395004,33.198039 99.1947966,32.6669296 99.309768,32.1267444 C99.3467141,31.9531562 99.4291922,31.7925278 99.5487347,31.6613505 L108.618729,21.7085924 C109.099145,21.181419 109.823948,20.949983 110.520976,21.1011886 Z" id="path-36"></path>
        <path d="M134.170289,26.0982186 L152.028526,29.9721891 C152.568258,30.0892725 152.910881,30.6217261 152.793798,31.1614574 C152.756387,31.3339129 152.674008,31.4933977 152.555023,31.6237175 L143.526004,41.5129387 C143.04743,42.0371076 142.326894,42.2683633 141.632665,42.1206055 L123.728999,38.3100404 C123.188814,38.195069 122.84411,37.6639596 122.959081,37.1237744 C122.996027,36.9501862 123.078505,36.7895578 123.198048,36.6583805 L132.268043,26.7056224 C132.748458,26.178449 133.473262,25.947013 134.170289,26.0982186 Z" id="path-37"></path>
        <path d="M157.849364,31.0990109 L175.707601,34.9729814 C176.247332,35.0900648 176.589956,35.6225184 176.472873,36.1622497 C176.435462,36.3347052 176.353082,36.49419 176.234098,36.6245098 L167.205079,46.513731 C166.726504,47.0378999 166.005969,47.2691556 165.31174,47.1213978 L147.408073,43.3108327 C146.867888,43.1958613 146.523184,42.6647519 146.638156,42.1245667 C146.675102,41.9509785 146.75758,41.7903501 146.877122,41.6591728 L155.947117,31.7064147 C156.427533,31.1792413 157.152336,30.9478053 157.849364,31.0990109 Z" id="path-38"></path>
        <path d="M181.505803,36.1006393 L199.36404,39.9746098 C199.903771,40.0916932 200.246395,40.6241468 200.129312,41.1638781 C200.091901,41.3363336 200.009521,41.4958184 199.890537,41.6261382 L190.861518,51.5153594 C190.382944,52.0395283 189.662408,52.2707839 188.968179,52.1230262 L171.064513,48.3124611 C170.524327,48.1974896 170.179624,47.6663803 170.294595,47.1261951 C170.331541,46.9526069 170.414019,46.7919785 170.533562,46.6608012 L179.603556,36.7080431 C180.083972,36.1808697 180.808775,35.9494337 181.505803,36.1006393 Z" id="path-39"></path>
        <path d="M205.187812,41.0674316 L223.046049,44.941402 C223.58578,45.0584855 223.928404,45.590939 223.811321,46.1306704 C223.77391,46.3031259 223.69153,46.4626107 223.572546,46.5929305 L214.543527,56.4821517 C214.064952,57.0063205 213.344417,57.2375762 212.650188,57.0898184 L194.746521,53.2792534 C194.206336,53.1642819 193.861632,52.6331725 193.976604,52.0929874 C194.01355,51.9193991 194.096028,51.7587707 194.21557,51.6275935 L203.285565,41.6748353 C203.765981,41.147662 204.490784,40.916226 205.187812,41.0674316 Z" id="path-40"></path>
        <path d="M241.936011,96.192508 L259.794248,100.066479 C260.333979,100.183562 260.676603,100.716015 260.55952,101.255747 C260.522109,101.428202 260.439729,101.587687 260.320745,101.718007 L251.291726,111.607228 C250.813151,112.131397 250.092616,112.362653 249.398387,112.214895 L231.49472,108.40433 C230.954535,108.289358 230.609831,107.758249 230.724803,107.218064 C230.761749,107.044476 230.844227,106.883847 230.96377,106.75267 L240.033764,96.7999118 C240.51418,96.2727385 241.238983,96.0413024 241.936011,96.192508 Z" id="path-41"></path>
        <path d="M11.0928769,0.672754554 L47.0450617,8.25731046 C47.5854522,8.3713125 47.9311085,8.90180254 47.8171064,9.44219312 C47.7802808,9.61675311 47.6974274,9.77828336 47.5771382,9.91003253 L38.5524179,19.7945455 C38.0757102,20.3166696 37.3587574,20.5483103 36.6666706,20.4038128 L0.6667271,12.8875598 C0.126099964,12.7746849 -0.220661729,12.2449168 -0.10778682,11.7042897 C-0.0712455072,11.5292709 0.0115510149,11.3672498 0.131980085,11.2350996 L9.20178879,1.28254564 C9.67946,0.758383702 10.3989844,0.526369374 11.0928769,0.672754554 Z" id="path-42"></path>
        <path d="M52.7242929,9.43715259 L70.5825297,13.3111231 C71.1222611,13.4282065 71.4648849,13.9606601 71.3478015,14.5003914 C71.3103909,14.6728469 71.2280111,14.8323317 71.109027,14.9626515 L62.080008,24.8518727 C61.6014333,25.3760416 60.8808977,25.6072973 60.1866684,25.4595395 L42.2830022,21.6489744 C41.7428171,21.5340029 41.3981133,21.0028936 41.5130847,20.4627084 C41.5500307,20.2891202 41.6325089,20.1284918 41.7520514,19.9973145 L50.8220461,10.0445564 C51.3024616,9.51738302 52.0272651,9.28594702 52.7242929,9.43715259 Z" id="path-43"></path>
        <path d="M76.4088168,14.4319531 L94.2670536,18.3059236 C94.806785,18.423007 95.1494088,18.9554605 95.0323254,19.4951919 C94.9949148,19.6676474 94.912535,19.8271322 94.7935509,19.957452 L85.7645319,29.8466732 C85.2859572,30.3708421 84.5654216,30.6020977 83.8711923,30.45434 L65.9675261,26.6437749 C65.427341,26.5288034 65.0826372,25.9976941 65.1976086,25.4575089 C65.2345546,25.2839207 65.3170328,25.1232923 65.4365753,24.992115 L74.50657,15.0393569 C74.9869855,14.5121835 75.7117891,14.2807475 76.4088168,14.4319531 Z" id="path-44"></path>
        <path d="M100.087193,19.4508602 L117.94543,23.3248307 C118.485161,23.4419141 118.827785,23.9743676 118.710701,24.514099 C118.673291,24.6865545 118.590911,24.8460393 118.471927,24.9763591 L109.442908,34.8655803 C108.964333,35.3897491 108.243798,35.6210048 107.549568,35.473247 L89.6459021,31.662682 C89.105717,31.5477105 88.7610132,31.0166011 88.8759846,30.476416 C88.9129306,30.3028277 88.9954088,30.1421993 89.1149513,30.0110221 L98.184946,20.0582639 C98.6653615,19.5310906 99.3901651,19.2996546 100.087193,19.4508602 Z" id="path-45"></path>
        <path d="M123.721416,24.4576443 L141.579653,28.3316148 C142.119384,28.4486982 142.462008,28.9811517 142.344924,29.5208831 C142.307514,29.6933386 142.225134,29.8528234 142.10615,29.9831432 L133.077131,39.8723644 C132.598556,40.3965333 131.87802,40.6277889 131.183791,40.4800312 L113.280125,36.6694661 C112.73994,36.5544946 112.395236,36.0233852 112.510207,35.4832001 C112.547154,35.3096119 112.629632,35.1489835 112.749174,35.0178062 L121.819169,25.065048 C122.299584,24.5378747 123.024388,24.3064387 123.721416,24.4576443 Z" id="path-46"></path>
        <path d="M147.435142,29.4647071 L165.293379,33.3386776 C165.83311,33.455761 166.175734,33.9882145 166.058651,34.5279459 C166.02124,34.7004014 165.93886,34.8598862 165.819876,34.990206 L156.790857,44.8794272 C156.312283,45.4035961 155.591747,45.6348517 154.897518,45.487094 L136.993851,41.6765289 C136.453666,41.5615574 136.108962,41.0304481 136.223934,40.4902629 C136.26088,40.3166747 136.343358,40.1560463 136.462901,40.024869 L145.532895,30.0721109 C146.013311,29.5449375 146.738114,29.3135015 147.435142,29.4647071 Z" id="path-47"></path>
        <path d="M171.056091,34.4748355 L188.914328,38.348806 C189.454059,38.4658894 189.796683,38.9983429 189.6796,39.5380743 C189.642189,39.7105298 189.559809,39.8700146 189.440825,40.0003344 L180.411806,49.8895556 C179.933232,50.4137244 179.212696,50.6449801 178.518467,50.4972224 L160.6148,46.6866573 C160.074615,46.5716858 159.729911,46.0405764 159.844883,45.5003913 C159.881829,45.326803 159.964307,45.1661746 160.08385,45.0349974 L169.153844,35.0822392 C169.63426,34.5550659 170.359063,34.3236299 171.056091,34.4748355 Z" id="path-48"></path>
        <path d="M194.767861,39.4772999 L212.626098,43.3512704 C213.16583,43.4683538 213.508453,44.0008074 213.39137,44.5405387 C213.353959,44.7129942 213.27158,44.872479 213.152596,45.0027988 L204.123576,54.89202 C203.645002,55.4161889 202.924466,55.6474446 202.230237,55.4996868 L184.326571,51.6891217 C183.786386,51.5741503 183.441682,51.0430409 183.556653,50.5028557 C183.593599,50.3292675 183.676077,50.1686391 183.79562,50.0374618 L192.865615,40.0847037 C193.34603,39.5575303 194.070834,39.3260943 194.767861,39.4772999 Z" id="path-49"></path>
        <path d="M11.8518917,0.765418983 L41.1487911,6.93838445 C41.6892099,7.0522527 42.0349974,7.58265714 41.9211292,8.12307593 C41.8843295,8.29772724 41.8014557,8.4593464 41.6811099,8.5911576 L32.6561218,18.4759639 C32.1797408,18.9977301 31.4634145,19.2294371 30.771704,19.0855083 L1.42760039,12.9796866 C0.886896738,12.8671788 0.5397754,12.3376463 0.652283186,11.7969426 C0.688752588,11.6216735 0.771604372,11.4594083 0.892188642,11.3270878 L9.96128802,1.37531223 C10.4388402,0.851280913 11.1581358,0.619242047 11.8518917,0.765418983 Z" id="path-50"></path>
        <path d="M46.9357726,8.10940647 L64.7940095,11.983377 C65.3337408,12.1004604 65.6763647,12.6329139 65.5592813,13.1726453 C65.5218707,13.3451008 65.4394908,13.5045856 65.3205068,13.6349054 L56.2914877,23.5241266 C55.8129131,24.0482954 55.0923775,24.2795511 54.3981482,24.1317934 L36.494482,20.3212283 C35.9542968,20.2062568 35.609593,19.6751474 35.7245645,19.1349623 C35.7615105,18.961374 35.8439886,18.8007457 35.9635311,18.6695684 L45.0335259,8.71681024 C45.5139414,8.1896369 46.2387449,7.9582009 46.9357726,8.10940647 Z" id="path-51"></path>
        <path d="M70.5803352,13.1242726 L88.438572,16.9982431 C88.9783034,17.1153265 89.3209272,17.64778 89.2038438,18.1875114 C89.1664332,18.3599669 89.0840533,18.5194517 88.9650693,18.6497715 L79.9360502,28.5389927 C79.4574756,29.0631615 78.73694,29.2944172 78.0427107,29.1466594 L60.1390445,25.3360944 C59.5988593,25.2211229 59.2541555,24.6900135 59.369127,24.1498284 C59.406073,23.9762401 59.4885512,23.8156117 59.6080936,23.6844345 L68.6780884,13.7316763 C69.1585039,13.204503 69.8833074,12.973067 70.5803352,13.1242726 Z" id="path-52"></path>
        <path d="M94.1504242,18.1578108 L112.008661,22.0317813 C112.548392,22.1488647 112.891016,22.6813183 112.773933,23.2210496 C112.736522,23.3935051 112.654142,23.5529899 112.535158,23.6833097 L103.506139,33.5725309 C103.027565,34.0966998 102.307029,34.3279555 101.6128,34.1801977 L83.7091335,30.3696326 C83.1689484,30.2546612 82.8242446,29.7235518 82.939216,29.1833666 C82.9761621,29.0097784 83.0586402,28.84915 83.1781827,28.7179727 L92.2481774,18.7652146 C92.7285929,18.2380412 93.4533965,18.0066052 94.1504242,18.1578108 Z" id="path-53"></path>
        <path d="M117.809937,23.1140129 L135.668174,26.9879834 C136.207906,27.1050668 136.550529,27.6375204 136.433446,28.1772517 C136.396035,28.3497072 136.313655,28.509192 136.194671,28.6395118 L127.165652,38.528733 C126.687078,39.0529019 125.966542,39.2841576 125.272313,39.1363998 L107.368647,35.3258347 C106.828461,35.2108632 106.483758,34.6797539 106.598729,34.1395687 C106.635675,33.9659805 106.718153,33.8053521 106.837696,33.6741748 L115.907691,23.7214167 C116.388106,23.1942433 117.11291,22.9628073 117.809937,23.1140129 Z" id="path-54"></path>
        <path d="M141.461905,28.1131331 L159.320142,31.9871036 C159.859873,32.104187 160.202497,32.6366405 160.085414,33.1763719 C160.048003,33.3488274 159.965623,33.5083122 159.846639,33.638632 L150.81762,43.5278532 C150.339046,44.052022 149.61851,44.2832777 148.924281,44.13552 L131.020615,40.3249549 C130.480429,40.2099834 130.135726,39.678874 130.250697,39.1386889 C130.287643,38.9651006 130.370121,38.8044723 130.489664,38.673295 L139.559659,28.7205368 C140.040074,28.1933635 140.764878,27.9619275 141.461905,28.1131331 Z" id="path-55"></path>
        <path d="M165.088024,33.1617205 L182.946261,37.035691 C183.485992,37.1527744 183.828616,37.685228 183.711533,38.2249593 C183.674122,38.3974148 183.591742,38.5568996 183.472758,38.6872194 L174.443739,48.5764406 C173.965165,49.1006095 173.244629,49.3318652 172.5504,49.1841074 L154.646733,45.3735423 C154.106548,45.2585709 153.761844,44.7274615 153.876816,44.1872763 C153.913762,44.0136881 153.99624,43.8530597 154.115783,43.7218824 L163.185777,33.7691243 C163.666193,33.2419509 164.390996,33.0105149 165.088024,33.1617205 Z" id="path-56"></path>
        <path d="M188.700031,38.1917751 L206.558268,42.0657456 C207.097999,42.182829 207.440623,42.7152826 207.323539,43.2550139 C207.286129,43.4274694 207.203749,43.5869543 207.084765,43.717274 L198.055746,53.6064953 C197.577171,54.1306641 196.856635,54.3619198 196.162406,54.214162 L178.25874,50.403597 C177.718555,50.2886255 177.373851,49.7575161 177.488822,49.2173309 C177.525769,49.0437427 177.608247,48.8831143 177.727789,48.751937 L186.797784,38.7991789 C187.278199,38.2720056 188.003003,38.0405696 188.700031,38.1917751 Z" id="path-57"></path>
        <path d="M0,6 L206,6 L206,154 L4.76685459,111.739537 C1.98900749,111.156168 2.61047831e-14,108.706067 2.57571742e-14,105.867624 L0,6 Z" id="path-58"></path>
        <polygon id="path-59" points="7 0 213 0 213 148 7 104.738462"></polygon>
        <path d="M39.5382583,44.508665 L69.2579848,49.4871149 C69.7397993,49.5678253 70.0927734,49.9848454 70.0927734,50.4733731 L70.0927734,54.4455065 C70.0927734,54.9977913 69.6450582,55.4455065 69.0927734,55.4455065 C69.0374176,55.4455065 68.9821573,55.4409101 68.9275621,55.4317647 L39.2078355,50.4533148 C38.726021,50.3726044 38.3730469,49.9555843 38.3730469,49.4670566 L38.3730469,45.4949232 C38.3730469,44.9426384 38.8207621,44.4949232 39.3730469,44.4949232 C39.4284028,44.4949232 39.4836631,44.4995196 39.5382583,44.508665 Z" id="path-60"></path>
        <path d="M39.5574054,69.5356311 L99.8274249,80.8407036 C100.300365,80.9294147 100.643066,81.3423744 100.643066,81.8235626 L100.643066,90.7886829 C100.643066,91.3409676 100.195351,91.7886829 99.6430664,91.7886829 C99.5812157,91.7886829 99.5194984,91.7829446 99.4587079,91.7715419 L39.1886883,80.4664695 C38.7157481,80.3777583 38.3730469,79.9647987 38.3730469,79.4836104 L38.3730469,70.5184902 C38.3730469,69.9662054 38.8207621,69.5184902 39.3730469,69.5184902 C39.4348976,69.5184902 39.4966149,69.5242284 39.5574054,69.5356311 Z" id="path-61"></path>
        <path d="M39.5552293,61.532515 L58.4177781,65.0274273 C58.8917337,65.1152432 59.2355957,65.5286696 59.2355957,66.010692 L59.2355957,67.9766519 C59.2355957,68.5289366 58.7878805,68.9766519 58.2355957,68.9766519 C58.1744845,68.9766519 58.1135019,68.97105 58.0534133,68.9599166 L39.1908645,65.4650044 C38.7169089,65.3771884 38.3730469,64.963762 38.3730469,64.4817396 L38.3730469,62.5157798 C38.3730469,61.963495 38.8207621,61.5157798 39.3730469,61.5157798 C39.4341581,61.5157798 39.4951407,61.5213816 39.5552293,61.532515 Z" id="path-62"></path>
        <path d="M109.557405,82.5356311 L169.827425,93.8407036 C170.300365,93.9294147 170.643066,94.3423744 170.643066,94.8235626 L170.643066,103.788683 C170.643066,104.340968 170.195351,104.788683 169.643066,104.788683 C169.581216,104.788683 169.519498,104.782945 169.458708,104.771542 L109.188688,93.4664695 C108.715748,93.3777583 108.373047,92.9647987 108.373047,92.4836104 L108.373047,83.5184902 C108.373047,82.9662054 108.820762,82.5184902 109.373047,82.5184902 C109.434898,82.5184902 109.496615,82.5242284 109.557405,82.5356311 Z" id="path-63"></path>
        <path d="M109.555229,74.532515 L128.417778,78.0274273 C128.891734,78.1152432 129.235596,78.5286696 129.235596,79.010692 L129.235596,80.9766519 C129.235596,81.5289366 128.78788,81.9766519 128.235596,81.9766519 C128.174484,81.9766519 128.113502,81.97105 128.053413,81.9599166 L109.190864,78.4650044 C108.716909,78.3771884 108.373047,77.963762 108.373047,77.4817396 L108.373047,75.5157798 C108.373047,74.963495 108.820762,74.5157798 109.373047,74.5157798 C109.434158,74.5157798 109.495141,74.5213816 109.555229,74.532515 Z" id="path-64"></path>
    </defs>
    <g id="Root" stroke="none" stroke-width="1" fill="none" fill-rule="evenodd" transform="translate(-201.000000, -1387.000000)">
        <g id="How-it-works-" transform="translate(198.000000, 1295.000000)">
            <g id="Group-2" transform="translate(3.000000, 92.000000)">
                <mask id="mask-2" fill="white">
                    <use xlink:href="#path-1"></use>
                </mask>
                <use id="Rectangle-3" fill="#F9FAFB" xlink:href="#path-1"></use>
                <g id="Group-12" mask="url(#mask-2)">
                    <g transform="translate(49.907715, 80.685425)">
                        <g id="Rectangle-9" stroke="none" fill="none" opacity="0.699999988">
                            <use fill="#FCFCFC" fill-rule="evenodd" xlink:href="#path-3"></use>
                            <path stroke="#0ABE55" stroke-width="1" d="M70.515849,16.5812062 L1.66245899,17.942108 L2.44443086,21.1156562 C2.51672395,21.7916693 2.96546001,22.3749089 3.58047227,22.5989809 L55.1535611,37.0189818 C56.2710292,37.4234267 57.5221021,37.1142091 58.3181161,36.2406021 L71.0456153,21.8995714 C71.2032226,21.7265885 71.3253881,21.5243849 71.4052001,21.3044004 C71.509115,21.0179813 71.5376588,20.7170933 71.4924287,20.4233221 C71.4822826,20.3574226 71.1338034,18.9836493 70.515849,16.5812062 Z"></path>
                        </g>
                        <g id="Rectangle-9" stroke="none" fill="none">
                            <use fill="#FCFCFC" fill-rule="evenodd" xlink:href="#path-4"></use>
                            <path stroke="#D6DBDE" stroke-width="1" d="M68.7243642,23.5360254 L60.607596,33.5433821 L67.5783494,35.4757439 L76.4440615,25.8232243 L68.7243642,23.5360254 Z"></path>
                        </g>
                        <g id="Rectangle-9" stroke="none" fill="none">
                            <use fill="#FCFCFC" fill-rule="evenodd" xlink:href="#path-5"></use>
                            <path stroke-opacity="0.7" stroke="#0ABE55" stroke-width="1" d="M69.3505055,15.0173368 L16.9461719,0.636891853 C16.2500384,0.384329516 15.4702547,0.586416238 14.9791662,1.15123567 L1.87414381,15.752321 C1.72952059,15.9186858 1.61686484,16.1103288 1.54184406,16.3176089 C1.20534038,17.2473578 1.68626069,18.2738584 2.57818582,18.5983475 L54.3040089,32.7969552 C55.4214771,33.2014 56.6725499,32.8921824 57.4691765,32.0178865 C58.7785696,30.5479564 58.7785696,30.5479564 59.6118197,29.6125464 C63.0312711,25.7738561 63.0312711,25.7738561 68.1658022,20.0098101 C68.8802832,19.2077308 68.8802832,19.2077308 70.0456153,17.8995714 C70.2032226,17.7265885 70.3253881,17.5243849 70.4052001,17.3044004 C70.7402788,16.3808284 70.2683794,15.3611062 69.3505055,15.0173368 Z"></path>
                        </g>
                        <g id="Oval-7" stroke="none" fill="none" opacity="0.699999988">
                            <use fill="#FFFFFF" fill-rule="evenodd" xlink:href="#path-6"></use>
                            <path stroke="#0ABE55" stroke-width="1" d="M13.7529297,11.5648193 C14.6021665,11.5648193 15.2529297,11.0399469 15.2529297,10.4517212 C15.2529297,9.86349553 14.6021665,9.33862305 13.7529297,9.33862305 C12.9036929,9.33862305 12.2529297,9.86349553 12.2529297,10.4517212 C12.2529297,11.0399469 12.9036929,11.5648193 13.7529297,11.5648193 Z"></path>
                        </g>
                        <path d="M38.9680012,18.2145527 C38.9680012,18.2145527 36.3390257,17.3346244 35.8854244,17.2039251 C35.4910046,17.4110902 34.9662048,17.4883923 34.51399,17.3768322 C33.8566351,17.2146645 33.6008592,16.7152858 33.9425758,16.2611987 C34.2842923,15.8071117 35.0938847,15.5705563 35.7512396,15.7327239 C36.2045878,15.8445636 36.4670274,16.1172357 36.473651,16.4244975 C36.9478719,16.5219932 39.8738446,17.0108306 39.8738446,17.0108306 L38.9680012,18.2145527 Z M34.1056646,12.1937049 C34.0751753,12.2342204 34.0582817,12.2548836 34.0419548,12.2756866 C34.0291517,12.2922535 34.0162012,12.3090162 34.0031148,12.3255132 C32.9781748,13.6031228 31.3311752,14.5685406 29.4678883,15.1102274 C30.081828,16.2997051 29.9577854,17.7055778 28.950458,19.0441559 C28.9204105,19.0840843 28.8896603,19.1236072 28.8584906,19.1627946 C28.8329069,19.1950057 28.8066204,19.2268114 28.7803338,19.2586171 C28.7016441,19.3529157 28.6356888,19.4276136 28.5679087,19.5011652 C28.5640716,19.5065617 29.7022155,19.7969306 31.9823404,20.3722718 C35.8236164,21.3199039 40.3086175,20.5849164 43.5459981,18.7199431 C43.5727412,18.7044945 43.5994843,18.6890459 43.6257968,18.6737231 C43.6505677,18.6573239 43.6712471,18.6392191 43.68686,18.618472 C43.7021783,18.5981164 43.7110934,18.5773414 43.7140132,18.5569439 C43.8982902,15.9014163 41.7472988,13.4987156 37.8740052,12.5431849 L34.443576,11.6969077 C34.4350443,11.7077985 34.42666,11.7184936 34.4178449,11.7293145 C34.3251256,11.8846658 34.2215831,12.0396676 34.1056646,12.1937049 Z" id="Page-1" stroke="none" fill="#009CFB" fill-rule="evenodd"></path>
                        <g id="Rectangle-9" stroke="none" fill="none" opacity="0.699999988">
                            <use fill="#FCFCFC" fill-rule="evenodd" xlink:href="#path-7"></use>
                            <path stroke="#0ABE55" stroke-width="1" d="M67.8622569,20.3693166 L59.2615075,30.0130017 L67.1172464,32.1846644 L75.9675191,22.5489543 L67.8622569,20.3693166 Z"></path>
                        </g>
                        <path d="M68.4242991,29.8801075 L65.6318359,28.7470703" id="Line-6" stroke="#D6DBDE" stroke-width="1" fill="none" stroke-linecap="square" transform="translate(67.028068, 29.313589) rotate(-3.000000) translate(-67.028068, -29.313589) "></path>
                        <path d="M73.1068138,24.6671732 L70.2765092,23.6322817" id="Line-6" stroke="#D6DBDE" stroke-width="1" fill="none" stroke-linecap="square"></path>
                        <path d="M69.626337,27.949614 L68.2402052,27.3588141" id="Line-6" stroke="#D6DBDE" stroke-width="1" fill="none" stroke-linecap="square"></path>
                        <path d="M71.0700975,26.2716646 L69.6839656,25.6808647" id="Line-6" stroke="#D6DBDE" stroke-width="1" fill="none" stroke-linecap="square"></path>
                        <path d="M67.0934512,32.5955919 L67.2539284,35.2359859" id="Line-4" stroke="#979797" stroke-width="1" fill="none" stroke-linecap="square"></path>
                    </g>
                </g>
                <g id="Rectangle-5" mask="url(#mask-2)">
                    <use fill="#FCFCFC" fill-rule="evenodd" xlink:href="#path-8"></use>
                    <path stroke="#D6DBDE" stroke-width="1" d="M16.1283882,216.5 L336.5,216.5 L336.5,119.760861 L145.439867,79.4375352 C142.831182,78.886971 140.12632,79.7626982 138.335316,81.7377076 L16.1283882,216.5 Z"></path>
                </g>
                <g id="Rectangle-5" opacity="0.699999988" mask="url(#mask-2)">
                    <use fill="#FFFFFF" fill-rule="evenodd" xlink:href="#path-9"></use>
                    <path stroke="#D6DBDE" stroke-width="1" d="M333.037732,225.266237 L339.997409,138.115437 L150.259263,97.6978439 C148.34858,97.2908344 146.365386,97.9278866 145.049157,99.3714622 L74.2454131,177.025559 C73.9427093,177.35755 73.7350635,177.764978 73.6443154,178.204992 C73.3654278,179.557245 74.235562,180.879545 75.5878145,181.158433 L208.042834,208.477106 L333.037732,225.266237 Z"></path>
                </g>
                <g id="Group-3" mask="url(#mask-2)">
                    <g transform="translate(80.000000, 102.000000)">
                        <g id="Rectangle-8" opacity="0.5">
                            <use fill="#FFFFFF" fill-rule="evenodd" xlink:href="#path-10"></use>
                            <path stroke="#D6DBDE" stroke-width="1" d="M69.4927456,1.12086499 C68.9635043,1.00406154 68.4124142,1.18183636 68.0511954,1.58589121 L64.8377069,5.18045896 C64.7792714,5.24582412 64.7390514,5.32540607 64.7210813,5.41122205 C64.664484,5.68150218 64.8377081,5.94648875 65.1079882,6.00308612 L83.3780152,9.82887771 C83.900718,9.93833305 84.4421966,9.76162627 84.7997173,9.36491777 L87.8824695,5.94426551 C87.9403955,5.87999021 87.9806503,5.80178279 87.9992978,5.71729013 C88.0588102,5.44763687 87.8884574,5.18079536 87.6188041,5.12128293 L69.4927456,1.12086499 Z"></path>
                        </g>
                        <g id="Rectangle-8" opacity="0.5">
                            <use fill="#FFFFFF" fill-rule="evenodd" xlink:href="#path-11"></use>
                            <path stroke="#D6DBDE" stroke-width="1" d="M93.0353481,6.14039624 C92.5061069,6.02359279 91.9550168,6.20136761 91.5937979,6.60542246 L88.3803094,10.1999902 C88.3218739,10.2653554 88.281654,10.3449373 88.2636839,10.4307533 C88.2070865,10.7010334 88.3803106,10.96602 88.6505907,11.0226174 L106.920618,14.848409 C107.443321,14.9578643 107.984799,14.7811575 108.34232,14.384449 L111.425072,10.9637968 C111.482998,10.8995215 111.523253,10.821314 111.5419,10.7368214 C111.601413,10.4671681 111.43106,10.2003266 111.161407,10.1408142 L93.0353481,6.14039624 Z"></path>
                        </g>
                        <g id="Rectangle-8" opacity="0.5">
                            <use fill="#FFFFFF" fill-rule="evenodd" xlink:href="#path-12"></use>
                            <path stroke="#D6DBDE" stroke-width="1" d="M117.748849,11.3775789 C117.219608,11.2607754 116.668518,11.4385502 116.307299,11.8426051 L113.09381,15.4371728 C113.035375,15.502538 112.995155,15.5821199 112.977185,15.6679359 C112.920587,15.938216 113.093812,16.2032026 113.364092,16.2598 L131.634119,20.0855916 C132.156822,20.1950469 132.6983,20.0183401 133.055821,19.6216316 L136.138573,16.2009794 C136.196499,16.1367041 136.236754,16.0584967 136.255401,15.974004 C136.314914,15.7043507 136.144561,15.4375092 135.874908,15.3779968 L117.748849,11.3775789 Z"></path>
                        </g>
                        <g id="Rectangle-8" opacity="0.5">
                            <use fill="#FFFFFF" fill-rule="evenodd" xlink:href="#path-13"></use>
                            <path stroke="#D6DBDE" stroke-width="1" d="M142.450875,16.641739 C141.921634,16.5249356 141.370544,16.7027104 141.009325,17.1067652 L137.795837,20.701333 C137.737401,20.7666981 137.697181,20.8462801 137.679211,20.9320961 C137.622614,21.2023762 137.795838,21.4673628 138.066118,21.5239601 L156.336145,25.3497517 C156.858848,25.4592071 157.400327,25.2825003 157.757847,24.8857918 L160.840599,21.4651395 C160.898525,21.4008642 160.93878,21.3226568 160.957428,21.2381642 C161.01694,20.9685109 160.846587,20.7016694 160.576934,20.642157 L142.450875,16.641739 Z"></path>
                        </g>
                        <g id="Rectangle-8" opacity="0.5">
                            <use fill="#FFFFFF" fill-rule="evenodd" xlink:href="#path-14"></use>
                            <path stroke="#D6DBDE" stroke-width="1" d="M166.067086,21.6397859 C165.537845,21.5229824 164.986755,21.7007573 164.625536,22.1048121 L161.412048,25.6993799 C161.353612,25.764745 161.313392,25.844327 161.295422,25.9301429 C161.238825,26.2004231 161.412049,26.4654096 161.682329,26.522007 L179.952356,30.3477986 C180.475059,30.4572539 181.016537,30.2805472 181.374058,29.8838387 L184.45681,26.4631864 C184.514736,26.3989111 184.554991,26.3207037 184.573639,26.236211 C184.633151,25.9665578 184.462798,25.6997163 184.193145,25.6402038 L166.067086,21.6397859 Z"></path>
                        </g>
                        <g id="Rectangle-8" opacity="0.5">
                            <use fill="#FFFFFF" fill-rule="evenodd" xlink:href="#path-15"></use>
                            <path stroke="#D6DBDE" stroke-width="1" d="M189.666148,26.6617644 C189.136907,26.5449609 188.585817,26.7227357 188.224598,27.1267906 L185.011109,30.7213583 C184.952674,30.7867235 184.912454,30.8663054 184.894484,30.9521214 C184.837886,31.2224015 185.01111,31.4873881 185.281391,31.5439855 L203.551418,35.3697771 C204.07412,35.4792324 204.615599,35.3025256 204.97312,34.9058171 L208.055872,31.4851649 C208.113798,31.4208896 208.154053,31.3426822 208.1727,31.2581895 C208.232213,30.9885362 208.06186,30.7216947 207.792207,30.6621823 L189.666148,26.6617644 Z"></path>
                        </g>
                        <g id="Rectangle-8" opacity="0.5">
                            <use fill="#FFFFFF" fill-rule="evenodd" xlink:href="#path-16"></use>
                            <path stroke="#D6DBDE" stroke-width="1" d="M213.198253,31.6983855 C212.669011,31.581582 212.117921,31.7593568 211.756702,32.1634117 L208.543214,35.7579794 C208.484778,35.8233446 208.444558,35.9029265 208.426588,35.9887425 C208.369991,36.2590226 208.543215,36.5240092 208.813495,36.5806066 L227.083522,40.4063982 C227.606225,40.5158535 228.147704,40.3391467 228.505224,39.9424382 L231.587976,36.521786 C231.645902,36.4575107 231.686157,36.3793033 231.704805,36.2948106 C231.764317,36.0251573 231.593964,35.7583158 231.324311,35.6988034 L213.198253,31.6983855 Z"></path>
                        </g>
                        <g id="Rectangle-8" opacity="0.5">
                            <use fill="#FFFFFF" fill-rule="evenodd" xlink:href="#path-17"></use>
                            <path stroke="#D6DBDE" stroke-width="1" d="M236.797252,36.6814177 C236.26801,36.5646142 235.71692,36.742389 235.355701,37.1464439 L232.142213,40.7410116 C232.083777,40.8063768 232.043557,40.8859588 232.025587,40.9717747 C231.96899,41.2420549 232.142214,41.5070414 232.412494,41.5636388 L250.682521,45.3894304 C251.205224,45.4988857 251.746703,45.322179 252.104223,44.9254705 L255.186975,41.5048182 C255.244901,41.4405429 255.285156,41.3623355 255.303804,41.2778428 C255.363316,41.0081896 255.192963,40.741348 254.92331,40.6818356 L236.797252,36.6814177 Z"></path>
                        </g>
                        <g id="Group-5" stroke-width="1" fill-rule="evenodd" transform="translate(0.163944, 62.734713)" opacity="0.5">
                            <g id="Group-10" transform="translate(0.627686, 0.313721)">
                                <g id="Rectangle-8">
                                    <use fill="#FFFFFF" fill-rule="evenodd" xlink:href="#path-18"></use>
                                    <path stroke="#D6DBDE" stroke-width="1" d="M11.3371235,0.890935383 C10.8143526,0.777531205 10.27075,0.951108208 9.91043837,1.34648821 L0.840443615,11.2992463 C0.780672382,11.364835 0.739433307,11.4451492 0.720960296,11.5319433 C0.663474565,11.8020359 0.835826469,12.0675906 1.10591905,12.1250763 L19.0095852,15.9356414 C19.5302572,16.0464597 20.0706589,15.8730179 20.4295899,15.4798913 L29.4586089,5.59067009 C29.518101,5.5255102 29.5592909,5.44576778 29.5779962,5.35954003 C29.6365379,5.08967436 29.465226,4.82344758 29.1953603,4.76490588 L11.3371235,0.890935383 Z"></path>
                                </g>
                                <g id="Rectangle-8">
                                    <use fill="#FFFFFF" fill-rule="evenodd" xlink:href="#path-19"></use>
                                    <path stroke="#D6DBDE" stroke-width="1" d="M35.0254199,5.86302274 C34.5026491,5.74961856 33.9590465,5.92319556 33.5987349,6.31857557 L24.5287401,16.2713337 C24.4689689,16.3369223 24.4277298,16.4172365 24.4092568,16.5040307 C24.351771,16.7741232 24.524123,17.0396779 24.7942155,17.0971637 L42.6978817,20.9077287 C43.2185537,21.0185471 43.7589554,20.8451053 44.1178864,20.4519787 L53.1469054,10.5627574 C53.2063975,10.4975976 53.2475874,10.4178551 53.2662927,10.3316274 C53.3248344,10.0617617 53.1535225,9.79553494 52.8836568,9.73699323 L35.0254199,5.86302274 Z"></path>
                                </g>
                                <g id="Rectangle-8">
                                    <use fill="#FFFFFF" fill-rule="evenodd" xlink:href="#path-20"></use>
                                    <path stroke="#D6DBDE" stroke-width="1" d="M58.6975083,10.8617249 C58.1747375,10.7483207 57.6311349,10.9218977 57.2708232,11.3172777 L48.2008285,21.2700358 C48.1410572,21.3356245 48.0998182,21.4159387 48.0813452,21.5027328 C48.0238594,21.7728254 48.1962113,22.0383801 48.4663039,22.0958658 L66.3699701,25.9064309 C66.890642,26.0172492 67.4310438,25.8438074 67.7899747,25.4506808 L76.8189938,15.5614596 C76.8784858,15.4962997 76.9196757,15.4165573 76.938381,15.3303295 C76.9969227,15.0604639 76.8256108,14.7942371 76.5557452,14.7356954 L58.6975083,10.8617249 Z"></path>
                                </g>
                                <g id="Rectangle-8">
                                    <use fill="#FFFFFF" fill-rule="evenodd" xlink:href="#path-21"></use>
                                    <path stroke="#D6DBDE" stroke-width="1" d="M82.3166409,15.8787795 C81.7938701,15.7653753 81.2502674,15.9389523 80.8899558,16.3343323 L71.819961,26.2870905 C71.7601898,26.3526791 71.7189507,26.4329933 71.7004777,26.5197874 C71.642992,26.78988 71.8153439,27.0554347 72.0854365,27.1129204 L89.9891026,30.9234855 C90.5097746,31.0343038 91.0501763,30.8608621 91.4091073,30.4677354 L100.438126,20.5785142 C100.497618,20.5133543 100.538808,20.4336119 100.557514,20.3473841 C100.616055,20.0775185 100.444743,19.8112917 100.174878,19.75275 L82.3166409,15.8787795 Z"></path>
                                </g>
                                <g id="Rectangle-8">
                                    <use fill="#FFFFFF" fill-rule="evenodd" xlink:href="#path-22"></use>
                                    <path stroke="#D6DBDE" stroke-width="1" d="M105.970984,20.8924882 C105.448213,20.779084 104.904611,20.952661 104.544299,21.348041 L95.4743043,31.3007992 C95.4145331,31.3663878 95.373294,31.446702 95.354821,31.5334961 C95.2973353,31.8035887 95.4696872,32.0691434 95.7397797,32.1266291 L113.643446,35.9371942 C114.164118,36.0480125 114.70452,35.8745708 115.063451,35.4814441 L124.09247,25.5922229 C124.151962,25.527063 124.193152,25.4473206 124.211857,25.3610929 C124.270399,25.0912272 124.099087,24.8250004 123.829221,24.7664587 L105.970984,20.8924882 Z"></path>
                                </g>
                                <g id="Rectangle-8">
                                    <use fill="#FFFFFF" fill-rule="evenodd" xlink:href="#path-23"></use>
                                    <path stroke="#D6DBDE" stroke-width="1" d="M129.565596,25.8846722 C129.04479,25.7742943 128.5045,25.9482353 128.14591,26.341726 L119.073925,36.2966681 C119.013963,36.362467 118.972654,36.4430821 118.954268,36.5301855 C118.897236,36.8003741 119.070033,37.0656393 119.340221,37.1226719 L215.713692,57.4656014 C216.23367,57.5753607 216.772909,57.401793 217.131235,57.0093296 L226.155262,47.1255759 C226.2153,47.0598182 226.256688,46.9792205 226.27515,46.8921126 C226.332403,46.6219706 226.159822,46.3565645 225.88968,46.2993114 L129.565596,25.8846722 Z"></path>
                                </g>
                            </g>
                        </g>
                        <g id="Group-9" stroke-width="1" fill-rule="evenodd" transform="translate(13.371338, 49.642090)" opacity="0.5">
                            <g id="Rectangle-8">
                                <use fill="#FFFFFF" fill-rule="evenodd" xlink:href="#path-24"></use>
                                <path stroke="#D6DBDE" stroke-width="1" d="M39.543735,6.68338821 C39.0209642,6.56998404 38.4773616,6.74356104 38.1170499,7.13894104 L29.0470552,17.0916992 C28.987284,17.1572878 28.9460449,17.237602 28.9275719,17.3243961 C28.8700861,17.5944887 29.042438,17.8600434 29.3125306,17.9175291 L47.2161968,21.7280942 C47.7368688,21.8389125 48.2772705,21.6654708 48.6362015,21.2723441 L57.6652205,11.3831229 C57.7247125,11.317963 57.7659025,11.2382206 57.7846078,11.1519929 C57.8431495,10.8821272 57.6718375,10.6159004 57.4019719,10.5573587 L39.543735,6.68338821 Z"></path>
                            </g>
                            <g id="Rectangle-8">
                                <use fill="#FFFFFF" fill-rule="evenodd" xlink:href="#path-25"></use>
                                <path stroke="#D6DBDE" stroke-width="1" d="M63.2320315,11.6554756 C62.7092607,11.5420714 62.1656581,11.7156484 61.8053464,12.1110284 L52.7353517,22.0637865 C52.6755804,22.1293752 52.6343414,22.2096894 52.6158684,22.2964835 C52.5583826,22.5665761 52.7307345,22.8321308 53.0008271,22.8896165 L70.9044933,26.7001816 C71.4251652,26.8109999 71.965567,26.6375581 72.3244979,26.2444315 L81.353517,16.3552103 C81.413009,16.2900504 81.4541989,16.210308 81.4729042,16.1240802 C81.5314459,15.8542145 81.360134,15.5879878 81.0902684,15.5294461 L63.2320315,11.6554756 Z"></path>
                            </g>
                            <g id="Rectangle-8">
                                <use fill="#FFFFFF" fill-rule="evenodd" xlink:href="#path-26"></use>
                                <path stroke="#D6DBDE" stroke-width="1" d="M86.9041199,16.6541777 C86.3813491,16.5407735 85.8377464,16.7143505 85.4774348,17.1097305 L76.40744,27.0624887 C76.3476688,27.1280773 76.3064297,27.2083915 76.2879567,27.2951856 C76.230471,27.5652782 76.4028229,27.8308329 76.6729155,27.8883186 L94.5765816,31.6988837 C95.0972536,31.809702 95.6376553,31.6362603 95.9965863,31.2431336 L105.025605,21.3539124 C105.085097,21.2887525 105.126287,21.2090101 105.144993,21.1227824 C105.203534,20.8529167 105.032222,20.5866899 104.762357,20.5281482 L86.9041199,16.6541777 Z"></path>
                            </g>
                            <g id="Rectangle-8">
                                <use fill="#FFFFFF" fill-rule="evenodd" xlink:href="#path-27"></use>
                                <path stroke="#D6DBDE" stroke-width="1" d="M110.523252,21.6712323 C110.000482,21.5578281 109.456879,21.7314052 109.096567,22.1267852 L100.026573,32.0795433 C99.9668014,32.1451319 99.9255623,32.2254461 99.9070893,32.3122402 C99.8496035,32.5823328 100.021955,32.8478875 100.292048,32.9053732 L118.195714,36.7159383 C118.716386,36.8267566 119.256788,36.6533149 119.615719,36.2601882 L128.644738,26.370967 C128.70423,26.3058071 128.74542,26.2260647 128.764125,26.139837 C128.822667,25.8699713 128.651355,25.6037445 128.381489,25.5452028 L110.523252,21.6712323 Z"></path>
                            </g>
                            <g id="Rectangle-8">
                                <use fill="#FFFFFF" fill-rule="evenodd" xlink:href="#path-28"></use>
                                <path stroke="#D6DBDE" stroke-width="1" d="M11.2673139,0.629571675 C10.7450262,0.516915675 10.202241,0.690583653 9.84235404,1.08549769 L0.771925775,11.0387315 C0.712102341,11.1043774 0.670844404,11.1847736 0.652394951,11.2716519 C0.595032626,11.5417707 0.767505839,11.8072467 1.03762465,11.864609 L23.6080843,16.6576629 C24.1285676,16.7681925 24.6686526,16.5947163 25.0274186,16.2017703 L34.0552507,6.31384917 C34.1148773,6.2485419 34.1561165,6.16858882 34.1747624,6.08214404 C34.2329865,5.81220966 34.0613614,5.54618466 33.791427,5.48796056 L11.2673139,0.629571675 Z"></path>
                            </g>
                            <g id="Rectangle-8">
                                <use fill="#FFFFFF" fill-rule="evenodd" xlink:href="#path-29"></use>
                                <path stroke="#D6DBDE" stroke-width="1" d="M134.177596,26.684941 C133.654825,26.5715369 133.111222,26.7451139 132.750911,27.1404939 L123.680916,37.093252 C123.621145,37.1588406 123.579906,37.2391548 123.561433,37.325949 C123.503947,37.5960415 123.676299,37.8615962 123.946391,37.919082 L141.850057,41.729647 C142.370729,41.8404654 142.911131,41.6670236 143.270062,41.273897 L152.299081,31.3846757 C152.358573,31.3195159 152.399763,31.2397734 152.418468,31.1535457 C152.47701,30.88368 152.305698,30.6174532 152.035833,30.5589115 L134.177596,26.684941 Z"></path>
                            </g>
                            <g id="Rectangle-8">
                                <use fill="#FFFFFF" fill-rule="evenodd" xlink:href="#path-30"></use>
                                <path stroke="#D6DBDE" stroke-width="1" d="M157.85667,31.6857333 C157.3339,31.5723292 156.790297,31.7459062 156.429985,32.1412862 L147.359991,42.0940443 C147.300219,42.1596329 147.25898,42.2399471 147.240507,42.3267413 C147.183021,42.5968338 147.355373,42.8623885 147.625466,42.9198743 L165.529132,46.7304393 C166.049804,46.8412577 166.590206,46.6678159 166.949137,46.2746893 L175.978156,36.385468 C176.037648,36.3203082 176.078838,36.2405657 176.097543,36.154338 C176.156085,35.8844723 175.984773,35.6182455 175.714907,35.5597038 L157.85667,31.6857333 Z"></path>
                            </g>
                            <g id="Rectangle-8">
                                <use fill="#FFFFFF" fill-rule="evenodd" xlink:href="#path-31"></use>
                                <path stroke="#D6DBDE" stroke-width="1" d="M181.513109,36.6873617 C180.990339,36.5739575 180.446736,36.7475345 180.086424,37.1429145 L171.01643,47.0956727 C170.956658,47.1612613 170.915419,47.2415755 170.896946,47.3283696 C170.839461,47.5984622 171.011813,47.8640169 171.281905,47.9215026 L189.185571,51.7320677 C189.706243,51.842886 190.246645,51.6694443 190.605576,51.2763176 L199.634595,41.3870964 C199.694087,41.3219365 199.735277,41.2421941 199.753982,41.1559664 C199.812524,40.8861007 199.641212,40.6198739 199.371346,40.5613322 L181.513109,36.6873617 Z"></path>
                            </g>
                            <g id="Rectangle-8">
                                <use fill="#FFFFFF" fill-rule="evenodd" xlink:href="#path-32"></use>
                                <path stroke="#D6DBDE" stroke-width="1" d="M205.134819,41.9107753 C204.612048,41.7973711 204.068446,41.9709481 203.708134,42.3663281 L194.638139,52.3190862 C194.578368,52.3846749 194.537129,52.4649891 194.518656,52.5517832 C194.46117,52.8218758 194.633522,53.0874304 194.903615,53.1449162 L212.807281,56.9554813 C213.327953,57.0662996 213.868355,56.8928578 214.227285,56.4997312 L223.256305,46.61051 C223.315797,46.5453501 223.356986,46.4656077 223.375692,46.3793799 C223.434233,46.1095142 223.262922,45.8432875 222.993056,45.7847458 L205.134819,41.9107753 Z"></path>
                            </g>
                        </g>
                        <g id="Group-8" stroke-width="1" fill-rule="evenodd" transform="translate(25.852783, 35.040527)" opacity="0.5">
                            <g id="Rectangle-8">
                                <use fill="#FFFFFF" fill-rule="evenodd" xlink:href="#path-33"></use>
                                <path stroke="#D6DBDE" stroke-width="1" d="M11.9399561,0.790651966 C11.4192861,0.680480909 10.8792232,0.854446506 10.5207514,1.24780755 L1.45009522,11.2012915 C1.38999666,11.2672393 1.34863983,11.3480676 1.33031573,11.4353899 C1.27360396,11.705646 1.44671589,11.9707059 1.71697204,12.0274176 L47.2058328,21.5730046 C47.7253192,21.6820159 48.2637363,21.5083601 48.6216333,21.116366 L57.6462746,11.2319395 C57.7063499,11.1661408 57.7477517,11.0854844 57.7661961,10.998316 C57.8233607,10.7281553 57.6506932,10.4628057 57.3805325,10.4056411 L11.9399561,0.790651966 Z"></path>
                            </g>
                            <g id="Rectangle-8">
                                <use fill="#FFFFFF" fill-rule="evenodd" xlink:href="#path-34"></use>
                                <path stroke="#D6DBDE" stroke-width="1" d="M63.1095042,11.5701242 C62.5867334,11.4567201 62.0431307,11.6302971 61.6828191,12.0256771 L52.6128243,21.9784352 C52.5530531,22.0440238 52.511814,22.124338 52.493341,22.2111322 C52.4358553,22.4812247 52.6082072,22.7467794 52.8782998,22.8042652 L70.781966,26.6148302 C71.3026379,26.7256486 71.8430396,26.5522068 72.2019706,26.1590802 L81.2309897,16.2698589 C81.2904817,16.204699 81.3316716,16.1249566 81.3503769,16.0387289 C81.4089186,15.7688632 81.2376067,15.5026364 80.967741,15.4440947 L63.1095042,11.5701242 Z"></path>
                            </g>
                            <g id="Rectangle-8">
                                <use fill="#FFFFFF" fill-rule="evenodd" xlink:href="#path-35"></use>
                                <path stroke="#D6DBDE" stroke-width="1" d="M86.7683187,16.5842936 C86.2455479,16.4708894 85.7019452,16.6444664 85.3416336,17.0398464 L76.2716388,26.9926046 C76.2118676,27.0581932 76.1706285,27.1385074 76.1521555,27.2253015 C76.0946698,27.4953941 76.2670217,27.7609488 76.5371143,27.8184345 L94.4407804,31.6289996 C94.9614524,31.7398179 95.5018541,31.5663762 95.8607851,31.1732495 L104.889804,21.2840283 C104.949296,21.2188684 104.990486,21.139126 105.009191,21.0528983 C105.067733,20.7830326 104.896421,20.5168058 104.626556,20.4582641 L86.7683187,16.5842936 Z"></path>
                            </g>
                            <g id="Rectangle-8">
                                <use fill="#FFFFFF" fill-rule="evenodd" xlink:href="#path-36"></use>
                                <path stroke="#D6DBDE" stroke-width="1" d="M110.414977,21.5898236 C109.892206,21.4764194 109.348604,21.6499964 108.988292,22.0453765 L99.9182972,31.9981346 C99.858526,32.0637232 99.8172869,32.1440374 99.7988139,32.2308315 C99.7413282,32.5009241 99.9136801,32.7664788 100.183773,32.8239645 L118.087439,36.6345296 C118.608111,36.7453479 119.148513,36.5719062 119.507444,36.1787795 L128.536463,26.2895583 C128.595955,26.2243984 128.637145,26.144656 128.65585,26.0584283 C128.714392,25.7885626 128.54308,25.5223358 128.273214,25.4637941 L110.414977,21.5898236 Z"></path>
                            </g>
                            <g id="Rectangle-8">
                                <use fill="#FFFFFF" fill-rule="evenodd" xlink:href="#path-37"></use>
                                <path stroke="#D6DBDE" stroke-width="1" d="M134.06429,26.5868536 C133.541519,26.4734494 132.997917,26.6470265 132.637605,27.0424065 L123.56761,36.9951646 C123.507839,37.0607532 123.4666,37.1410674 123.448127,37.2278615 C123.390641,37.4979541 123.562993,37.7635088 123.833086,37.8209945 L141.736752,41.6315596 C142.257424,41.7423779 142.797826,41.5689362 143.156757,41.1758095 L152.185776,31.2865883 C152.245268,31.2214284 152.286458,31.141686 152.305163,31.0554583 C152.363705,30.7855926 152.192393,30.5193658 151.922527,30.4608241 L134.06429,26.5868536 Z"></path>
                            </g>
                            <g id="Rectangle-8">
                                <use fill="#FFFFFF" fill-rule="evenodd" xlink:href="#path-38"></use>
                                <path stroke="#D6DBDE" stroke-width="1" d="M157.743365,31.5876459 C157.220594,31.4742418 156.676991,31.6478188 156.31668,32.0431988 L147.246685,41.9959569 C147.186914,42.0615455 147.145675,42.1418597 147.127202,42.2286538 C147.069716,42.4987464 147.242068,42.7643011 147.51216,42.8217868 L165.415827,46.6323519 C165.936499,46.7431703 166.4769,46.5697285 166.835831,46.1766018 L175.86485,36.2873806 C175.924342,36.2222207 175.965532,36.1424783 175.984238,36.0562506 C176.042779,35.7863849 175.871467,35.5201581 175.601602,35.4616164 L157.743365,31.5876459 Z"></path>
                            </g>
                            <g id="Rectangle-8">
                                <use fill="#FFFFFF" fill-rule="evenodd" xlink:href="#path-39"></use>
                                <path stroke="#D6DBDE" stroke-width="1" d="M181.399804,36.5892743 C180.877033,36.4758701 180.333431,36.6494471 179.973119,37.0448271 L170.903124,46.9975853 C170.843353,47.0631739 170.802114,47.1434881 170.783641,47.2302822 C170.726155,47.5003748 170.898507,47.7659295 171.1686,47.8234152 L189.072266,51.6339803 C189.592938,51.7447986 190.133339,51.5713569 190.49227,51.1782302 L199.52129,41.289009 C199.580782,41.2238491 199.621971,41.1441067 199.640677,41.057879 C199.699218,40.7880133 199.527907,40.5217865 199.258041,40.4632448 L181.399804,36.5892743 Z"></path>
                            </g>
                            <g id="Rectangle-8">
                                <use fill="#FFFFFF" fill-rule="evenodd" xlink:href="#path-40"></use>
                                <path stroke="#D6DBDE" stroke-width="1" d="M205.081813,41.5560666 C204.559042,41.4426624 204.015439,41.6162394 203.655128,42.0116194 L194.585133,51.9643775 C194.525362,52.0299662 194.484123,52.1102804 194.46565,52.1970745 C194.408164,52.4671671 194.580516,52.7327218 194.850608,52.7902075 L212.754275,56.6007726 C213.274947,56.7115909 213.815348,56.5381491 214.174279,56.1450225 L223.203298,46.2558013 C223.26279,46.1906414 223.30398,46.110899 223.322686,46.0246712 C223.381227,45.7548056 223.209915,45.4885788 222.94005,45.4300371 L205.081813,41.5560666 Z"></path>
                            </g>
                        </g>
                        <g id="Rectangle-8" opacity="0.300000012">
                            <use fill="#D8D8D8" fill-rule="evenodd" xlink:href="#path-41"></use>
                            <path stroke="#979797" stroke-width="1" d="M241.830012,96.681143 C241.307241,96.5677389 240.763638,96.7413159 240.403327,97.1366959 L231.333332,107.089454 C231.273561,107.155043 231.232322,107.235357 231.213849,107.322151 C231.156363,107.592244 231.328715,107.857798 231.598807,107.915284 L249.502474,111.725849 C250.023146,111.836667 250.563547,111.663226 250.922478,111.270099 L259.951497,101.380878 C260.010989,101.315718 260.052179,101.235975 260.070885,101.149748 C260.129426,100.879882 259.958114,100.613655 259.688249,100.555114 L241.830012,96.681143 Z"></path>
                        </g>
                        <g id="Group-7" stroke-width="1" fill-rule="evenodd" transform="translate(39.227295, 21.091553)" opacity="0.5">
                            <g id="Rectangle-8">
                                <use fill="#FFFFFF" fill-rule="evenodd" xlink:href="#path-42"></use>
                                <path stroke="#D6DBDE" stroke-width="1" d="M10.9896675,1.1619864 C10.469248,1.05219752 9.92960476,1.22620826 9.57135135,1.61932972 L0.501542643,11.5718837 C0.441328108,11.6379588 0.399929847,11.7189693 0.381659191,11.8064787 C0.325221736,12.0767923 0.498602583,12.3416763 0.768916151,12.3981138 L36.7688596,19.9143668 C37.2879248,20.0227399 37.8256393,19.8490094 38.1831701,19.4574164 L47.2078905,9.57290334 C47.268035,9.50702876 47.3094618,9.42626363 47.3278746,9.33898364 C47.3848756,9.06878835 47.2120475,8.80354333 46.9418522,8.74654231 L10.9896675,1.1619864 Z"></path>
                            </g>
                            <g id="Rectangle-8">
                                <use fill="#FFFFFF" fill-rule="evenodd" xlink:href="#path-43"></use>
                                <path stroke="#D6DBDE" stroke-width="1" d="M52.6182938,9.92578761 C52.0955229,9.81238343 51.5519203,9.98596043 51.1916087,10.3813404 L42.1216139,20.3340986 C42.0618427,20.3996872 42.0206036,20.4800014 42.0021306,20.5667955 C41.9446449,20.8368881 42.1169968,21.1024428 42.3870894,21.1599285 L60.2907555,24.9704936 C60.8114275,25.0813119 61.3518292,24.9078702 61.7107602,24.5147435 L70.7397792,14.6255223 C70.7992713,14.5603624 70.8404612,14.48062 70.8591665,14.3943923 C70.9177082,14.1245266 70.7463963,13.8582998 70.4765306,13.7997581 L52.6182938,9.92578761 Z"></path>
                            </g>
                            <g id="Rectangle-8">
                                <use fill="#FFFFFF" fill-rule="evenodd" xlink:href="#path-44"></use>
                                <path stroke="#D6DBDE" stroke-width="1" d="M76.3028177,14.9205881 C75.7800469,14.8071839 75.2364442,14.9807609 74.8761326,15.3761409 L65.8061378,25.3288991 C65.7463666,25.3944877 65.7051275,25.4748019 65.6866545,25.561596 C65.6291688,25.8316886 65.8015207,26.0972433 66.0716133,26.154729 L83.9752794,29.9652941 C84.4959514,30.0761124 85.0363531,29.9026707 85.3952841,29.509544 L94.4243031,19.6203228 C94.4837952,19.5551629 94.5249851,19.4754205 94.5436904,19.3891928 C94.6022321,19.1193271 94.4309202,18.8531003 94.1610545,18.7945586 L76.3028177,14.9205881 Z"></path>
                            </g>
                            <g id="Rectangle-8">
                                <use fill="#FFFFFF" fill-rule="evenodd" xlink:href="#path-45"></use>
                                <path stroke="#D6DBDE" stroke-width="1" d="M99.9811937,19.9394952 C99.4584229,19.826091 98.9148202,19.999668 98.5545086,20.395048 L89.4845138,30.3478061 C89.4247426,30.4133948 89.3835035,30.493709 89.3650305,30.5805031 C89.3075448,30.8505957 89.4798967,31.1161504 89.7499893,31.1736361 L107.653655,34.9842012 C108.174327,35.0950195 108.714729,34.9215777 109.07366,34.5284511 L118.102679,24.6392299 C118.162171,24.57407 118.203361,24.4943276 118.222066,24.4080998 C118.280608,24.1382342 118.109296,23.8720074 117.839431,23.8134657 L99.9811937,19.9394952 Z"></path>
                            </g>
                            <g id="Rectangle-8">
                                <use fill="#FFFFFF" fill-rule="evenodd" xlink:href="#path-46"></use>
                                <path stroke="#D6DBDE" stroke-width="1" d="M123.615417,24.9462793 C123.092646,24.8328751 122.549043,25.0064521 122.188731,25.4018321 L113.118737,35.3545903 C113.058965,35.4201789 113.017726,35.5004931 112.999253,35.5872872 C112.941768,35.8573798 113.11412,36.1229345 113.384212,36.1804202 L131.287878,39.9909853 C131.80855,40.1018036 132.348952,39.9283619 132.707883,39.5352352 L141.736902,29.646014 C141.796394,29.5808541 141.837584,29.5011117 141.856289,29.4148839 C141.914831,29.1450183 141.743519,28.8787915 141.473653,28.8202498 L123.615417,24.9462793 Z"></path>
                            </g>
                            <g id="Rectangle-8">
                                <use fill="#FFFFFF" fill-rule="evenodd" xlink:href="#path-47"></use>
                                <path stroke="#D6DBDE" stroke-width="1" d="M147.329143,29.9533421 C146.806372,29.8399379 146.26277,30.0135149 145.902458,30.4088949 L136.832463,40.3616531 C136.772692,40.4272417 136.731453,40.5075559 136.71298,40.59435 C136.655494,40.8644426 136.827846,41.1299973 137.097939,41.187483 L155.001605,44.9980481 C155.522277,45.1088664 156.062678,44.9354247 156.421609,44.542298 L165.450628,34.6530768 C165.51012,34.5879169 165.55131,34.5081745 165.570016,34.4219468 C165.628557,34.1520811 165.457245,33.8858543 165.18738,33.8273126 L147.329143,29.9533421 Z"></path>
                            </g>
                            <g id="Rectangle-8">
                                <use fill="#FFFFFF" fill-rule="evenodd" xlink:href="#path-48"></use>
                                <path stroke="#D6DBDE" stroke-width="1" d="M170.950092,34.9634705 C170.427321,34.8500663 169.883719,35.0236433 169.523407,35.4190233 L160.453412,45.3717814 C160.393641,45.4373701 160.352402,45.5176843 160.333929,45.6044784 C160.276443,45.874571 160.448795,46.1401257 160.718888,46.1976114 L178.622554,50.0081765 C179.143226,50.1189948 179.683627,49.945553 180.042558,49.5524264 L189.071577,39.6632052 C189.131069,39.5980453 189.172259,39.5183029 189.190965,39.4320751 C189.249506,39.1622095 189.078194,38.8959827 188.808329,38.837441 L170.950092,34.9634705 Z"></path>
                            </g>
                            <g id="Rectangle-8">
                                <use fill="#FFFFFF" fill-rule="evenodd" xlink:href="#path-49"></use>
                                <path stroke="#D6DBDE" stroke-width="1" d="M194.661862,39.9659349 C194.139091,39.8525307 193.595489,40.0261077 193.235177,40.4214878 L184.165182,50.3742459 C184.105411,50.4398345 184.064172,50.5201487 184.045699,50.6069428 C183.988213,50.8770354 184.160565,51.1425901 184.430658,51.2000758 L202.334324,55.0106409 C202.854996,55.1214592 203.395398,54.9480175 203.754329,54.5548908 L212.783348,44.6656696 C212.84284,44.6005097 212.88403,44.5207673 212.902735,44.4345396 C212.961277,44.1646739 212.789965,43.8984471 212.520099,43.8399054 L194.661862,39.9659349 Z"></path>
                            </g>
                        </g>
                        <g id="Group-6" stroke-width="1" fill-rule="evenodd" transform="translate(50.919434, 7.290283)" opacity="0.5">
                            <g id="Rectangle-8">
                                <use fill="#FFFFFF" fill-rule="evenodd" xlink:href="#path-50"></use>
                                <path stroke="#D6DBDE" stroke-width="1" d="M11.7488033,1.25467637 C11.2284864,1.14504367 10.6890147,1.31907282 10.3308506,1.7120963 L1.2617512,11.6638719 C1.20145907,11.7300322 1.16003317,11.8111648 1.14179847,11.8987993 C1.08554458,12.1691511 1.25910525,12.4339174 1.52945708,12.4901713 L30.8735607,18.595993 C31.3923436,18.7039396 31.9295883,18.5301594 32.286874,18.1388347 L41.3118622,8.25402842 C41.3720351,8.18812281 41.413472,8.10731324 41.4318718,8.01998758 C41.4888059,7.74977818 41.3159121,7.48457596 41.0457028,7.42764184 L11.7488033,1.25467637 Z"></path>
                            </g>
                            <g id="Rectangle-8">
                                <use fill="#FFFFFF" fill-rule="evenodd" xlink:href="#path-51"></use>
                                <path stroke="#D6DBDE" stroke-width="1" d="M46.8297735,8.59804149 C46.3070027,8.48463731 45.7634001,8.65821431 45.4030884,9.05359432 L36.3330937,19.0063524 C36.2733224,19.0719411 36.2320834,19.1522553 36.2136104,19.2390494 C36.1561246,19.509142 36.3284765,19.7746967 36.5985691,19.8321824 L54.5022353,23.6427475 C55.0229073,23.7535658 55.563309,23.580124 55.9222399,23.1869974 L64.951259,13.2977762 C65.010751,13.2326163 65.0519409,13.1528739 65.0706462,13.0666461 C65.1291879,12.7967805 64.957876,12.5305537 64.6880104,12.472012 L46.8297735,8.59804149 Z"></path>
                            </g>
                            <g id="Rectangle-8">
                                <use fill="#FFFFFF" fill-rule="evenodd" xlink:href="#path-52"></use>
                                <path stroke="#D6DBDE" stroke-width="1" d="M70.474336,13.6129076 C69.9515652,13.4995034 69.4079626,13.6730804 69.047651,14.0684604 L59.9776562,24.0212185 C59.917885,24.0868072 59.8766459,24.1671214 59.8581729,24.2539155 C59.8006871,24.5240081 59.973039,24.7895628 60.2431316,24.8470485 L78.1467978,28.6576136 C78.6674698,28.7684319 79.2078715,28.5949901 79.5668025,28.2018635 L88.5958215,18.3126423 C88.6553135,18.2474824 88.6965035,18.16774 88.7152088,18.0815122 C88.7737505,17.8116466 88.6024386,17.5454198 88.3325729,17.4868781 L70.474336,13.6129076 Z"></path>
                            </g>
                            <g id="Rectangle-8">
                                <use fill="#FFFFFF" fill-rule="evenodd" xlink:href="#path-53"></use>
                                <path stroke="#D6DBDE" stroke-width="1" d="M94.0444251,18.6464458 C93.5216543,18.5330416 92.9780516,18.7066186 92.61774,19.1019986 L83.5477452,29.0547568 C83.487974,29.1203454 83.4467349,29.2006596 83.4282619,29.2874537 C83.3707762,29.5575463 83.5431281,29.823101 83.8132207,29.8805867 L101.716887,33.6911518 C102.237559,33.8019701 102.777961,33.6285284 103.136892,33.2354017 L112.165911,23.3461805 C112.225403,23.2810206 112.266593,23.2012782 112.285298,23.1150505 C112.34384,22.8451848 112.172528,22.578958 111.902662,22.5204163 L94.0444251,18.6464458 Z"></path>
                            </g>
                            <g id="Rectangle-8">
                                <use fill="#FFFFFF" fill-rule="evenodd" xlink:href="#path-54"></use>
                                <path stroke="#D6DBDE" stroke-width="1" d="M117.703938,23.6026479 C117.181167,23.4892437 116.637565,23.6628207 116.277253,24.0582007 L107.207258,34.0109589 C107.147487,34.0765475 107.106248,34.1568617 107.087775,34.2436558 C107.030289,34.5137484 107.202641,34.7793031 107.472734,34.8367888 L125.3764,38.6473539 C125.897072,38.7581722 126.437474,38.5847305 126.796405,38.1916038 L135.825424,28.3023826 C135.884916,28.2372227 135.926106,28.1574803 135.944811,28.0712526 C136.003353,27.8013869 135.832041,27.5351601 135.562175,27.4766184 L117.703938,23.6026479 Z"></path>
                            </g>
                            <g id="Rectangle-8">
                                <use fill="#FFFFFF" fill-rule="evenodd" xlink:href="#path-55"></use>
                                <path stroke="#D6DBDE" stroke-width="1" d="M141.355906,28.6017681 C140.833135,28.4883639 140.289533,28.6619409 139.929221,29.0573209 L130.859226,39.010079 C130.799455,39.0756677 130.758216,39.1559819 130.739743,39.242776 C130.682257,39.5128686 130.854609,39.7784233 131.124702,39.835909 L149.028368,43.6464741 C149.54904,43.7572924 150.089442,43.5838506 150.448373,43.190724 L159.477392,33.3015028 C159.536884,33.2363429 159.578074,33.1566005 159.596779,33.0703727 C159.655321,32.8005071 159.484009,32.5342803 159.214143,32.4757386 L141.355906,28.6017681 Z"></path>
                            </g>
                            <g id="Rectangle-8">
                                <use fill="#FFFFFF" fill-rule="evenodd" xlink:href="#path-56"></use>
                                <path stroke="#D6DBDE" stroke-width="1" d="M164.982025,33.6503555 C164.459254,33.5369513 163.915652,33.7105284 163.55534,34.1059084 L154.485345,44.0586665 C154.425574,44.1242551 154.384335,44.2045693 154.365862,44.2913634 C154.308376,44.561456 154.480728,44.8270107 154.750821,44.8844964 L172.654487,48.6950615 C173.175159,48.8058798 173.71556,48.6324381 174.074491,48.2393114 L183.10351,38.3500902 C183.163002,38.2849303 183.204192,38.2051879 183.222898,38.1189602 C183.281439,37.8490945 183.110127,37.5828677 182.840262,37.524326 L164.982025,33.6503555 Z"></path>
                            </g>
                            <g id="Rectangle-8">
                                <use fill="#FFFFFF" fill-rule="evenodd" xlink:href="#path-57"></use>
                                <path stroke="#D6DBDE" stroke-width="1" d="M188.594032,38.6804102 C188.071261,38.567006 187.527658,38.740583 187.167346,39.135963 L178.097352,49.0887211 C178.03758,49.1543098 177.996341,49.234624 177.977868,49.3214181 C177.920383,49.5915107 178.092735,49.8570653 178.362827,49.9145511 L196.266493,53.7251161 C196.787165,53.8359345 197.327567,53.6624927 197.686498,53.2693661 L206.715517,43.3801449 C206.775009,43.314985 206.816199,43.2352426 206.834904,43.1490148 C206.893446,42.8791491 206.722134,42.6129224 206.452268,42.5543807 L188.594032,38.6804102 Z"></path>
                            </g>
                        </g>
                    </g>
                </g>
                <g id="Group-11" mask="url(#mask-2)">
                    <g transform="translate(141.005859, -31.749023)">
                        <g id="Rectangle-6">
                            <use fill="#FCFCFC" fill-rule="evenodd" xlink:href="#path-58"></use>
                            <path stroke="#D6DBDE" stroke-width="1" d="M0.5,6.5 L0.5,105.867624 C0.5,108.46953 2.32325687,110.715456 4.86961671,111.250211 L205.5,153.384089 L205.5,6.5 L0.5,6.5 Z"></path>
                        </g>
                        <g id="Rectangle-6" opacity="0.699999988">
                            <use fill="#FFFFFF" fill-rule="evenodd" xlink:href="#path-59"></use>
                            <path stroke="#D6DBDE" stroke-width="1" d="M7.5,0.5 L7.5,104.332558 L212.5,147.384089 L212.5,0.5 L7.5,0.5 Z"></path>
                        </g>
                        <g id="Rectangle-12">
                            <use fill="#FFFFFF" fill-rule="evenodd" xlink:href="#path-60"></use>
                            <path stroke="#D6DBDE" stroke-width="1" d="M39.4556526,45.0017941 C39.428355,44.9972214 39.4007248,44.9949232 39.3730469,44.9949232 C39.0969045,44.9949232 38.8730469,45.2187808 38.8730469,45.4949232 L38.8730469,49.4670566 C38.8730469,49.7113205 39.049534,49.9198305 39.2904412,49.9601857 L69.0101677,54.9386356 C69.0374653,54.9432083 69.0650955,54.9455065 69.0927734,54.9455065 C69.3689158,54.9455065 69.5927734,54.7216489 69.5927734,54.4455065 L69.5927734,50.4733731 C69.5927734,50.2291092 69.4162864,50.0205992 69.1753791,49.980244 L39.4556526,45.0017941 Z"></path>
                        </g>
                        <g id="Rectangle-12">
                            <use fill="#FFFFFF" fill-rule="evenodd" xlink:href="#path-61"></use>
                            <path stroke="#D6DBDE" stroke-width="1" d="M39.4652261,70.0270606 C39.4348309,70.0213593 39.4039722,70.0184902 39.3730469,70.0184902 C39.0969045,70.0184902 38.8730469,70.2423478 38.8730469,70.5184902 L38.8730469,79.4836104 C38.8730469,79.7242045 39.0443975,79.9306844 39.2808676,79.9750399 L99.5508871,91.2801124 C99.5812824,91.2858138 99.6121411,91.2886829 99.6430664,91.2886829 C99.9192088,91.2886829 100.143066,91.0648252 100.143066,90.7886829 L100.143066,81.8235626 C100.143066,81.5829685 99.9717158,81.3764887 99.7352457,81.3321331 L39.4652261,70.0270606 Z"></path>
                        </g>
                        <g id="Rectangle-12">
                            <use fill="#FFFFFF" fill-rule="evenodd" xlink:href="#path-62"></use>
                            <path stroke="#D6DBDE" stroke-width="1" d="M39.4641381,62.0241474 C39.4340938,62.0185807 39.4036025,62.0157798 39.3730469,62.0157798 C39.0969045,62.0157798 38.8730469,62.2396374 38.8730469,62.5157798 L38.8730469,64.4817396 C38.8730469,64.7227508 39.0449779,64.929464 39.2819557,64.973372 L58.1445045,68.4682842 C58.1745488,68.4738509 58.2050401,68.4766519 58.2355957,68.4766519 C58.5117381,68.4766519 58.7355957,68.2527942 58.7355957,67.9766519 L58.7355957,66.010692 C58.7355957,65.7696808 58.5636647,65.5629676 58.3266869,65.5190596 L39.4641381,62.0241474 Z"></path>
                        </g>
                        <g id="Rectangle-12">
                            <use fill="#FFFFFF" fill-rule="evenodd" xlink:href="#path-63"></use>
                            <path stroke="#D6DBDE" stroke-width="1" d="M109.465226,83.0270606 C109.434831,83.0213593 109.403972,83.0184902 109.373047,83.0184902 C109.096905,83.0184902 108.873047,83.2423478 108.873047,83.5184902 L108.873047,92.4836104 C108.873047,92.7242045 109.044397,92.9306844 109.280868,92.9750399 L169.550887,104.280112 C169.581282,104.285814 169.612141,104.288683 169.643066,104.288683 C169.919209,104.288683 170.143066,104.064825 170.143066,103.788683 L170.143066,94.8235626 C170.143066,94.5829685 169.971716,94.3764887 169.735246,94.3321331 L109.465226,83.0270606 Z"></path>
                        </g>
                        <g id="Rectangle-12">
                            <use fill="#FFFFFF" fill-rule="evenodd" xlink:href="#path-64"></use>
                            <path stroke="#D6DBDE" stroke-width="1" d="M109.464138,75.0241474 C109.434094,75.0185807 109.403602,75.0157798 109.373047,75.0157798 C109.096905,75.0157798 108.873047,75.2396374 108.873047,75.5157798 L108.873047,77.4817396 C108.873047,77.7227508 109.044978,77.929464 109.281956,77.973372 L128.144505,81.4682842 C128.174549,81.4738509 128.20504,81.4766519 128.235596,81.4766519 C128.511738,81.4766519 128.735596,81.2527942 128.735596,80.9766519 L128.735596,79.010692 C128.735596,78.7696808 128.563665,78.5629676 128.326687,78.5190596 L109.464138,75.0241474 Z"></path>
                        </g>
                    </g>
                </g>
            </g>
        </g>
    </g>
</svg>