<?xml version="1.0" encoding="UTF-8"?>
<svg width="13px" height="5px" viewBox="0 0 13 5" version="1.1" xmlns="http://www.w3.org/2000/svg" xmlns:xlink="http://www.w3.org/1999/xlink">
    <!-- Generator: Sketch 48.2 (47327) - http://www.bohemiancoding.com/sketch -->
    <title>Imported Layers Copy 3</title>
    <desc>Created with Sketch.</desc>
    <defs></defs>
    <g id="#2" stroke="none" stroke-width="1" fill="none" fill-rule="evenodd" transform="translate(-479.000000, -1381.000000)">
        <g id="Products" transform="translate(0.000000, 600.000000)" fill="#FFFFFF">
            <g id="4" transform="translate(119.000000, 584.000000)">
                <g id="Hover" transform="translate(0.000000, 169.000000)">
                    <g id="Add-cart" transform="translate(291.000000, 22.000000)">
                        <path d="M76.7243419,12.687619 L75.7117265,13.7008497 L75.7117265,3.05900359 C75.7117265,2.88915744 75.5741881,2.75131129 75.4043419,2.75131129 C75.2344958,2.75131129 75.0969573,2.88915744 75.0969573,3.05900359 L75.0969573,13.7008497 L74.0843419,12.687619 C73.9643419,12.5673113 73.7695727,12.5673113 73.6495727,12.687619 C73.5295727,12.8079267 73.5295727,13.0023882 73.6495727,13.1226959 L75.1868035,14.6611574 C75.2424958,14.7168497 75.3194188,14.7513113 75.4043419,14.7513113 C75.489265,14.7513113 75.5661881,14.7168497 75.6218804,14.6611574 L77.1591112,13.1226959 C77.2791112,13.0023882 77.2791112,12.8079267 77.1591112,12.687619 C77.0388035,12.5673113 76.8443419,12.5673113 76.7243419,12.687619 Z" id="Imported-Layers-Copy-3" transform="translate(75.404342, 8.751311) rotate(-90.000000) translate(-75.404342, -8.751311) "></path>
                    </g>
                </g>
            </g>
        </g>
    </g>
</svg>