<?xml version="1.0" encoding="UTF-8"?>
<svg width="12px" height="12px" viewBox="0 0 12 12" version="1.1" xmlns="http://www.w3.org/2000/svg" xmlns:xlink="http://www.w3.org/1999/xlink">
    <!-- Generator: Sketch 48.2 (47327) - http://www.bohemiancoding.com/sketch -->
    <title>Page 1</title>
    <desc>Created with Sketch.</desc>
    <defs></defs>
    <g id="#2" stroke="none" stroke-width="1" fill="none" fill-rule="evenodd" transform="translate(-394.000000, -637.000000)">
        <g id="Products" transform="translate(0.000000, 600.000000)" fill="#9297A3">
            <g id="Filter">
                <g id="Tshirt" transform="translate(148.000000, 30.000000)">
                    <path d="M252.267487,14.7539152 C252.263737,14.75804 252.265612,14.7640397 252.261487,14.7681645 C252.187616,14.841661 252.090495,14.8761594 251.99375,14.8742845 C251.896629,14.8754095 251.799884,14.8401611 251.726387,14.7662896 C251.722638,14.7625397 251.724512,14.756165 251.720763,14.7524152 L248.736278,11.748806 C248.591159,11.6033128 248.591909,11.3674489 248.737402,11.2223307 C248.883646,11.0772125 249.119135,11.0775875 249.264253,11.2238306 L251.996375,13.9732017 L254.745746,11.2407048 C254.891614,11.0955866 255.127103,11.0963366 255.272221,11.2425797 C255.417339,11.3884479 255.416589,11.6243119 255.270721,11.7690551 L252.267487,14.7539152 Z M252.015874,7.74999346 C249.11651,7.74136887 246.75862,10.084259 246.749996,12.9836231 C246.740996,15.8833622 249.083886,18.2405017 251.98325,18.2495013 C254.882614,18.2585009 257.240129,15.9156107 257.249503,13.0162466 C257.258128,10.1165075 254.914863,7.75899304 252.015874,7.74999346 L252.015874,7.74999346 Z M251.981,18.9998411 C248.667281,18.9893416 245.989531,16.2947179 246.000031,12.9809983 C246.010155,9.66765357 248.704779,6.98990409 252.017749,7.00002862 C255.331468,7.01090311 258.009593,9.70477683 257.999093,13.0184965 C257.988969,16.3314662 255.29472,19.0103406 251.981,18.9998411 L251.981,18.9998411 Z" id="Page-1" transform="translate(251.999644, 13.000000) rotate(-90.000000) translate(-251.999644, -13.000000) "></path>
                </g>
            </g>
        </g>
    </g>
</svg>