<?xml version="1.0" encoding="UTF-8"?>
<svg width="16px" height="16px" viewBox="0 0 16 16" version="1.1" xmlns="http://www.w3.org/2000/svg" xmlns:xlink="http://www.w3.org/1999/xlink">
    <!-- Generator: Sketch 48.2 (47327) - http://www.bohemiancoding.com/sketch -->
    <title>Fill 1</title>
    <desc>Created with Sketch.</desc>
    <defs></defs>
    <g id="#2" stroke="none" stroke-width="1" fill="none" fill-rule="evenodd" transform="translate(-1045.000000, -636.000000)">
        <g id="Products" transform="translate(0.000000, 600.000000)" fill="#333743">
            <g id="Filter">
                <g id="Home" transform="translate(1045.000000, 34.000000)">
                    <path d="M13.5009219,8.00018751 C12.672396,8.00018751 12.000875,8.67170849 12.000875,9.50023438 C12.000875,10.3282603 12.672396,11.0002813 13.5009219,11.0002813 C14.3289478,11.0002813 15.0004688,10.3282603 15.0004688,9.50023438 C15.0004688,8.67170849 14.3289478,8.00018751 13.5009219,8.00018751 L13.5009219,8.00018751 Z M13.0004063,7.00015625 C13.0004063,4.79058721 11.2098503,2.99953124 9.00078127,2.99953124 L7.00071877,2.99953124 C4.79114972,2.99953124 3.00059377,4.79058721 3.00059377,7.00015625 L3.00059377,7.05015782 C4.14162943,7.28216507 5.00015625,8.29069658 5.00015625,9.50023438 C5.00015625,9.7857433 4.94265446,10.0562518 4.85365168,10.3122598 C5.80968155,10.1397544 6.89621551,10.00025 8.00025001,10.00025 C9.11278477,10.00025 10.1958186,10.1377543 11.1463483,10.3087596 C11.0583456,10.0537517 11.0008438,9.78474327 11.0008438,9.50023438 C11.0008438,8.29069658 11.8598706,7.28216507 13.0004063,7.05015782 L13.0004063,7.00015625 Z M1.00053127,9.50023438 C1.00053127,10.3282603 1.67205225,11.0002813 2.50007813,11.0002813 C3.32860402,11.0002813 4.000125,10.3282603 4.000125,9.50023438 C4.000125,8.67170849 3.32860402,8.00018751 2.50007813,8.00018751 C1.67205225,8.00018751 1.00053127,8.67170849 1.00053127,9.50023438 L1.00053127,9.50023438 Z M2.0000625,15.5004219 C2.0000625,15.7764305 2.2240695,15.9999375 2.50007813,15.9999375 L3.50010938,15.9999375 L12.5008907,15.9999375 L13.5009219,15.9999375 C13.7769305,15.9999375 14.0009375,15.7764305 14.0009375,15.5004219 L14.0009375,12.4998281 C14.0009375,12.2238195 13.7769305,12.0003125 13.5009219,12.0003125 C12.9979062,12.0003125 12.5323916,11.8488078 12.1403794,11.5932998 C11.0828463,11.3162911 9.55179849,11.0002813 8.00025001,11.0002813 C6.45070158,11.0002813 4.91765368,11.3167911 3.85962061,11.5942998 C3.46810838,11.8493078 3.00259383,12.0003125 2.50007813,12.0003125 C2.2240695,12.0003125 2.0000625,12.2238195 2.0000625,12.4998281 L2.0000625,15.5004219 Z M14.8974655,11.5737992 C14.9594675,11.7043033 15.0004688,11.8463077 15.0004688,12.0003125 L15.0004688,15.9999375 C15.0004688,16.5529548 14.5529548,17.0004688 14.0009375,17.0004688 L13.5009219,17.0004688 L13.5009219,18 L12.5008907,18 L12.5008907,17.0004688 L9.00078127,17.0004688 L7.00071877,17.0004688 L3.50010938,17.0004688 L3.50010938,18 L2.50007813,18 L2.50007813,17.0004688 L2.0000625,17.0004688 C1.44804525,17.0004688 1.00053127,16.5529548 1.00053127,15.9999375 L1.00053127,12.0003125 C1.00053127,11.8463077 1.04153255,11.7043033 1.1040345,11.5737992 C0.438013688,11.1247851 0,10.3637614 0,9.50023438 C0,8.29069658 0.85952686,7.28216507 2.0000625,7.05015782 L2.0000625,7.00015625 C2.0000625,4.23856996 4.23913247,2 7.00071877,2 L9.00078127,2 C11.7618676,2 14.0009375,4.23856996 14.0009375,7.00015625 L14.0009375,7.05015782 C15.1419732,7.28216507 16.0005,8.29069658 16.0005,9.50023438 C16.0005,10.3637614 15.5629863,11.1247851 14.8974655,11.5737992 L14.8974655,11.5737992 Z" id="Fill-1"></path>
                </g>
            </g>
        </g>
    </g>
</svg>