<?xml version="1.0" encoding="UTF-8"?>
<svg width="23px" height="20px" viewBox="0 0 23 20" version="1.1" xmlns="http://www.w3.org/2000/svg" xmlns:xlink="http://www.w3.org/1999/xlink">
    <!-- Generator: Sketch 48.2 (47327) - http://www.bohemiancoding.com/sketch -->
    <title>Menu</title>
    <desc>Created with Sketch.</desc>
    <defs></defs>
    <g id="Header" stroke="none" stroke-width="1" fill="none" fill-rule="evenodd" transform="translate(0.000000, -15.000000)">
        <g id="Menu" transform="translate(0.000000, 15.000000)" fill="#333743">
            <path d="M20.9705882,8.66666667 L2.02941176,8.66666667 C1.28258824,8.66666667 0.676470588,9.264 0.676470588,10 C0.676470588,10.736 1.28258824,11.3333333 2.02941176,11.3333333 L20.9705882,11.3333333 C21.7174118,11.3333333 22.3235294,10.736 22.3235294,10 C22.3235294,9.264 21.7174118,8.66666667 20.9705882,8.66666667" id="Fill-1"></path>
            <path d="M21.4908088,0.666666667 L9.83272059,0.666666667 C9.37305882,0.666666667 9,1.264 9,2 C9,2.736 9.37305882,3.33333333 9.83272059,3.33333333 L21.4908088,3.33333333 C21.9504706,3.33333333 22.3235294,2.736 22.3235294,2 C22.3235294,1.264 21.9504706,0.666666667 21.4908088,0.666666667" id="Fill-2"></path>
            <path d="M1.57169118,16.6666667 C1.07752941,16.6666667 0.676470588,17.264 0.676470588,18 C0.676470588,18.736 1.07752941,19.3333333 1.57169118,19.3333333 L14.1047794,19.3333333 C14.5989412,19.3333333 15,18.736 15,18 C15,17.264 14.5989412,16.6666667 14.1047794,16.6666667 L1.57169118,16.6666667 Z" id="Fill-3"></path>
        </g>
    </g>
</svg>