<?xml version="1.0" encoding="UTF-8"?>
<svg width="13px" height="13px" viewBox="0 0 13 13" version="1.1" xmlns="http://www.w3.org/2000/svg" xmlns:xlink="http://www.w3.org/1999/xlink">
    <!-- Generator: Sketch 48.2 (47327) - http://www.bohemiancoding.com/sketch -->
    <title>search</title>
    <desc>Created with Sketch.</desc>
    <defs></defs>
    <g id="Header" stroke="none" stroke-width="1" fill="none" fill-rule="evenodd" transform="translate(-1140.000000, -18.000000)">
        <g id="search" transform="translate(1140.000000, 18.000000)" fill="#333743">
            <path d="M5.69052309,0.81293187 C2.99687334,0.81293187 0.81293187,2.99687334 0.81293187,5.69052309 C0.81293187,8.38417284 2.99687334,10.5677078 5.69052309,10.5677078 C8.38457931,10.5677078 10.5681143,8.38417284 10.5681143,5.69052309 C10.5681143,2.99687334 8.38457931,0.81293187 5.69052309,0.81293187 M5.69052309,11.3810462 C2.54772848,11.3810462 0,8.83291123 0,5.69052309 C0,2.54772848 2.54772848,0 5.69052309,0 C8.8333177,0 11.3810462,2.54772848 11.3810462,5.69052309 C11.3810462,8.83291123 8.8333177,11.3810462 5.69052309,11.3810462 M12.8780602,12.8780602 C12.7158803,13.0406466 12.4528969,13.0406466 12.2903105,12.8780602 L9.98158397,10.5685208 C10.1896945,10.3856111 10.3856111,10.1892881 10.5693337,9.9811775 L12.8780602,12.2903105 C13.0406466,12.4524904 13.0406466,12.7154738 12.8780602,12.8780602" id="Fill-1"></path>
        </g>
    </g>
</svg>