<?xml version="1.0" encoding="UTF-8"?>
<svg width="17px" height="10px" viewBox="0 0 17 10" version="1.1" xmlns="http://www.w3.org/2000/svg" xmlns:xlink="http://www.w3.org/1999/xlink">
    <!-- Generator: Sketch 48.2 (47327) - http://www.bohemiancoding.com/sketch -->
    <title>Fill 1</title>
    <desc>Created with Sketch.</desc>
    <defs></defs>
    <g id="#2" stroke="none" stroke-width="1" fill="none" fill-rule="evenodd" transform="translate(-748.000000, -639.000000)">
        <g id="Products" transform="translate(0.000000, 600.000000)" fill="#333743">
            <g id="Filter">
                <g id="Shoes" transform="translate(748.000000, 30.000000)">
                    <path d="M15.4067812,16.8824375 L1.59375,16.8824375 C1.3005,16.8824375 1.0625,17.119375 1.0625,17.4120938 C1.0625,17.70375 1.3005,17.9406875 1.59375,17.9406875 L15.4067812,17.9406875 C15.7000312,17.9406875 15.9380312,17.70375 15.9380312,17.4120938 C15.9380312,17.119375 15.7000312,16.8824375 15.4067812,16.8824375 M14.8755312,14.501375 C14.8755312,14.1300313 14.0223437,13.5297188 13.447,13.3060625 L13.4252187,13.2975625 L13.4039688,13.2885313 L12.8429687,13.0404375 L10.0756875,15.058125 L9.56090625,14.0328125 L11.7693125,12.5670938 L10.5575313,12.0326563 L7.9506875,13.9334688 L7.43590625,12.907625 L9.4743125,11.5550625 L7.7041875,10.7735938 C6.8371875,11.622 5.88146875,12.251 4.78178125,12.251 C3.76603125,12.251 2.8230625,11.67725 2.12553125,11.2920938 L2.12553125,15.8135625 L14.8755312,15.8135625 C15.0179062,15.3019688 14.8739375,14.6634063 14.8755312,14.501375 M15.9380312,19 L1.0625,19 C0.476,19 0,18.5255937 0,17.9406875 L0,16.8824375 C0,16.2980625 0.476,15.823125 1.0625,15.823125 L1.06303125,15.823125 L1.06303125,10.0016875 C1.06303125,10.0016875 1.532125,10.0043438 1.84715625,10.0043438 C2.003875,10.0043438 2.122875,10.0038125 2.12553125,10.0016875 C2.7911875,10.4245625 3.76390625,11.1258125 4.78178125,11.1258125 C5.658875,11.1258125 6.559875,10.5536563 7.43803125,9.4375 L13.8130312,12.2499375 C13.8130312,12.2499375 15.9380312,13.0760313 15.9380312,14.5019063 C15.9380312,14.8068438 15.8115938,15.3481875 15.6825,15.823125 L15.9380312,15.823125 C16.5245312,15.823125 17,16.2980625 17,16.8824375 L17,17.9406875 C17,18.5255937 16.5245312,19 15.9380312,19" id="Fill-1"></path>
                </g>
            </g>
        </g>
    </g>
</svg>