<svg xmlns="http://www.w3.org/2000/svg" viewBox="0 0 149.46 59.34"><title>2 2</title><g id="Слой_2" data-name="Слой 2"><g id="Слой_1-2" data-name="Слой 1"><path d="M43.42,33c5.36-5.79,5.88-10.9,5.88-14.22C49.3,8.85,43.59,0,26.05,0,11.24,0,.43,5.36.43,21.8v1.3H17.22a16,16,0,0,1-.1-2.16c0-7.24,4.09-8.68,7.49-8.68,5.11,0,7,3.15,7,6.81,0,4.68-3.15,7.75-6.39,10.73a127.27,127.27,0,0,1-11.32,8.94C9.37,42.06,4.68,45.21,0,48.28V59.34H48.53V45.72H25.12C35,40.1,39.68,37.12,43.42,33Z"/><path d="M143.59,33c5.36-5.79,5.88-10.9,5.88-14.22,0-10-5.7-18.82-23.24-18.82-14.81,0-25.63,5.36-25.63,21.8v1.3h16.79a16,16,0,0,1-.1-2.16c0-7.24,4.09-8.68,7.49-8.68,5.11,0,7,3.15,7,6.81,0,4.68-3.15,7.75-6.39,10.73A127.27,127.27,0,0,1,114,38.74c-4.51,3.32-9.2,6.47-13.88,9.54V59.34H148.7V45.72H125.28C135.16,40.1,139.84,37.12,143.59,33Z"/></g></g></svg>