<svg xmlns="http://www.w3.org/2000/svg" viewBox="0 0 35.02 35.02">
  <defs>
    <style>
      .cls-1 {
        fill: #1744fe;
      }

      .cls-2 {
        fill: #bed8fd;
      }
    </style>
  </defs>
  <title>Ресурс 11</title>
  <g id="Слой_2" data-name="Слой 2">
    <g id="Слой_1-2" data-name="Слой 1">
      <g>
        <path class="cls-1" d="M17.51,35A17.51,17.51,0,1,1,35,17.51,17.53,17.53,0,0,1,17.51,35Zm0-34A16.51,16.51,0,1,0,34,17.51,16.53,16.53,0,0,0,17.51,1Z"/>
        <g>
          <path class="cls-2" d="M23.27,17.58a2.08,2.08,0,0,0-2.08-2.06h-1.9V12.63a1.46,1.46,0,0,1,1.46-1.46h.7a1.87,1.87,0,0,0,0-3.74H19.73A4.59,4.59,0,0,0,15.13,12v3.49H13.78a2.08,2.08,0,1,0,0,4.15h1.35v7.91h4.15V19.67h1.9a2.08,2.08,0,0,0,2.08-2.1Z"/>
          <path class="cls-1" d="M19.79,28.08H14.63V20.17h-.85a2.58,2.58,0,1,1,0-5.15h.85V12a5.1,5.1,0,0,1,5.09-5.09h1.72a2.37,2.37,0,0,1,0,4.74h-.7a1,1,0,0,0-1,1V15h1.4a2.59,2.59,0,0,1,2.58,2.55h0a2.58,2.58,0,0,1-2.58,2.6h-1.4Zm-4.15-1h3.15V19.17h2.4a1.58,1.58,0,0,0,1.58-1.59h0A1.58,1.58,0,0,0,21.19,16h-2.4V12.63a2,2,0,0,1,2-2h.7a1.37,1.37,0,0,0,0-2.74H19.73A4.1,4.1,0,0,0,15.63,12v4H13.78a1.58,1.58,0,1,0,0,3.15h1.85Z"/>
        </g>
      </g>
    </g>
  </g>
</svg>
