<svg xmlns="http://www.w3.org/2000/svg" viewBox="0 0 51.67 35.02"><defs><style>.cls-1{fill:#bed8fd;stroke-miterlimit:10;}.cls-1,.cls-2{stroke:#1547fe;stroke-linecap:round;}.cls-2{fill:#fff;stroke-linejoin:round;}.cls-3{fill:#1547fe;}</style></defs><title>icon_9_mobile</title><g id="Слой_2" data-name="Слой 2"><g id="Слой_1-2" data-name="Слой 1"><rect class="cls-1" x="0.5" y="23.55" width="10.97" height="10.97"/><rect class="cls-1" x="16.95" y="12.58" width="10.97" height="21.94"/><rect class="cls-1" x="33.41" y="1.61" width="10.97" height="32.91"/><circle class="cls-2" cx="44" cy="7.67" r="7.17"/><path class="cls-3" d="M43.64,12.93V11.68a3.59,3.59,0,0,1-1.88-.54l.3-.83a3.28,3.28,0,0,0,1.77.53c.87,0,1.47-.5,1.47-1.21s-.48-1.1-1.39-1.47c-1.26-.49-2-1.06-2-2.13a2,2,0,0,1,1.86-2V2.82h.76V4a3.28,3.28,0,0,1,1.6.43l-.31.81a3,3,0,0,0-1.55-.42c-.95,0-1.31.57-1.31,1.06s.46,1,1.53,1.4c1.27.52,1.91,1.16,1.91,2.25a2.14,2.14,0,0,1-1.95,2.09v1.28Z"/></g></g></svg>