<svg xmlns="http://www.w3.org/2000/svg" viewBox="0 0 76.49 81.88"><defs><style>.cls-1{fill:#bed8fd;stroke-linecap:round;stroke-linejoin:round;}.cls-1,.cls-2,.cls-3{stroke:#1547fe;}.cls-2{fill:none;}.cls-2,.cls-3{stroke-miterlimit:10;}.cls-3{fill:#fff;}.cls-4{fill:#1547fe;}</style></defs><title>icon_2_mobile</title><g id="Слой_2" data-name="Слой 2"><g id="Слой_1-2" data-name="Слой 1"><polygon class="cls-1" points="19.1 7.66 17.74 0.5 3.38 0.5 3.38 18.66 24.69 18.66 24.69 0.5 21.43 0.5 19.1 7.66"/><rect class="cls-2" x="0.5" y="18.66" width="27.07" height="9.26" rx="3.65" ry="3.65"/><path class="cls-2" d="M24.69,27.92V30a2.33,2.33,0,0,1-.9,1.86,19,19,0,0,0-7.51,15.25c0,2.34.4,13.47,1.16,15.52a3.72,3.72,0,0,1-.3,3.27h0a3.65,3.65,0,0,1-6.19,0h0a3.72,3.72,0,0,1-.29-3.29c.77-2.06,1.15-13.14,1.15-15.52A19.1,19.1,0,0,0,4.4,31.88,2.33,2.33,0,0,1,3.51,30V27.92"/><path class="cls-1" d="M76,53.72a5.84,5.84,0,0,0-2.67-4.91A8.6,8.6,0,0,1,70,44.88l-.05-.13a9,9,0,0,1-.46-5.27,5.85,5.85,0,0,0-6.91-6.91,9,9,0,0,1-5.27-.46l-.13-.05a8.6,8.6,0,0,1-3.93-3.33,5.85,5.85,0,0,0-9.81,0,8.6,8.6,0,0,1-3.93,3.33l-.13.05a9,9,0,0,1-5.27.46,5.85,5.85,0,0,0-6.91,6.91,9,9,0,0,1-.46,5.27l-.05.13a8.6,8.6,0,0,1-3.33,3.93,5.85,5.85,0,0,0,0,9.81,8.6,8.6,0,0,1,3.33,3.93l.05.13A9,9,0,0,1,27.19,68a5.85,5.85,0,0,0,6.91,6.91,9,9,0,0,1,5.27.46l.13.05a8.6,8.6,0,0,1,3.93,3.33,5.85,5.85,0,0,0,9.81,0,8.6,8.6,0,0,1,3.93-3.33l.13-.05a9,9,0,0,1,5.27-.46A5.85,5.85,0,0,0,69.48,68a9,9,0,0,1,.46-5.27l.05-.13a8.6,8.6,0,0,1,3.33-3.93A5.84,5.84,0,0,0,76,53.72Z"/><circle class="cls-3" cx="48.33" cy="53.72" r="18.04"/><path class="cls-4" d="M42.76,47.26A3,3,0,0,1,45,46.41a3,3,0,0,1,2.22.82A3.6,3.6,0,0,1,48,49.86a3.6,3.6,0,0,1-.82,2.63,3.42,3.42,0,0,1-4.45,0,3.6,3.6,0,0,1-.82-2.63A3.59,3.59,0,0,1,42.76,47.26Zm10.38-.87L54,47,43.9,61.11,43,60.44ZM45,52.26a1.59,1.59,0,0,0,1.3-.54,3,3,0,0,0,.45-1.86A3,3,0,0,0,46.27,48a1.84,1.84,0,0,0-2.6,0,3,3,0,0,0-.45,1.86Q43.22,52.26,45,52.26Zm4.81,2.56A3,3,0,0,1,52,54a3,3,0,0,1,2.22.82A3.6,3.6,0,0,1,55,57.42,3.6,3.6,0,0,1,54.22,60a3.42,3.42,0,0,1-4.45,0A3.6,3.6,0,0,1,49,57.42,3.59,3.59,0,0,1,49.78,54.82Zm2.21,5a1.59,1.59,0,0,0,1.3-.54,4.09,4.09,0,0,0,0-3.72,1.84,1.84,0,0,0-2.6,0,3,3,0,0,0-.45,1.86Q50.25,59.81,52,59.81Z"/></g></g></svg>