<svg xmlns="http://www.w3.org/2000/svg" viewBox="0 0 89 76.92"><defs><style>.cls-1{fill:#bed8fd;stroke-miterlimit:10;}.cls-1,.cls-2{stroke:#1547fe;stroke-linecap:round;stroke-width:2px;}.cls-2{fill:none;stroke-linejoin:round;}.cls-3{fill:#1547fe;}</style></defs><title>icon_7</title><g id="Слой_2" data-name="Слой 2"><g id="Слой_1-2" data-name="Слой 1"><polyline class="cls-1" points="1 66.72 6.54 66.72 22.09 50.11 35.8 59.33 52.75 39.75 68.23 51.43 88 36.89 88 75.92 1 75.92 1 4.76"/><circle class="cls-2" cx="69.41" cy="17.89" r="16.89"/><path class="cls-3" d="M68.57,30.26V27.33a8.44,8.44,0,0,1-4.44-1.28l.7-1.94A7.73,7.73,0,0,0,69,25.36c2.06,0,3.45-1.19,3.45-2.84s-1.13-2.58-3.28-3.45c-3-1.16-4.78-2.49-4.78-5s1.71-4.23,4.38-4.67V6.46h1.8V9.27a7.72,7.72,0,0,1,3.77,1l-.72,1.91a7,7,0,0,0-3.65-1c-2.23,0-3.07,1.33-3.07,2.49C66.89,15.21,68,16,70.48,17c3,1.22,4.49,2.73,4.49,5.31a5,5,0,0,1-4.58,4.93v3Z"/></g></g></svg>