<svg xmlns="http://www.w3.org/2000/svg" viewBox="0 0 101.91 109.04"><defs><style>.cls-1{fill:#bed8fd;stroke-linecap:round;stroke-linejoin:round;}.cls-1,.cls-2,.cls-3{stroke:#1547fe;stroke-width:2px;}.cls-2{fill:none;}.cls-2,.cls-3{stroke-miterlimit:10;}.cls-3{fill:#fff;}.cls-4{fill:#1547fe;}</style></defs><title>icon_2</title><g id="Слой_2" data-name="Слой 2"><g id="Слой_1-2" data-name="Слой 1"><polygon class="cls-1" points="25.61 10.48 23.82 1 4.81 1 4.81 25.04 33.01 25.04 33.01 1 28.71 1 25.61 10.48"/><rect class="cls-2" x="1" y="25.04" width="35.82" height="12.25" rx="3.65" ry="3.65"/><path class="cls-2" d="M33,37.28v2.78a3.09,3.09,0,0,1-1.19,2.47,25.08,25.08,0,0,0-9.94,20.18c0,3.1.53,17.82,1.54,20.55a4.93,4.93,0,0,1-.4,4.33v0a4.83,4.83,0,0,1-8.19,0h0a4.93,4.93,0,0,1-.39-4.36c1-2.72,1.52-17.39,1.52-20.54A25.28,25.28,0,0,0,6.16,42.53,3.08,3.08,0,0,1,5,40.08V37.28"/><path class="cls-1" d="M100.91,71.44a7.73,7.73,0,0,0-3.53-6.49A11.38,11.38,0,0,1,93,59.74l-.07-.17a11.91,11.91,0,0,1-.6-7,7.74,7.74,0,0,0-9.14-9.14,11.92,11.92,0,0,1-7-.6L76,42.78a11.38,11.38,0,0,1-5.2-4.41,7.74,7.74,0,0,0-13,0,11.38,11.38,0,0,1-5.2,4.41l-.17.07a11.92,11.92,0,0,1-7,.6,7.74,7.74,0,0,0-9.14,9.14,11.91,11.91,0,0,1-.6,7l-.07.17a11.38,11.38,0,0,1-4.41,5.2,7.74,7.74,0,0,0,0,13,11.38,11.38,0,0,1,4.41,5.2l.07.17a11.91,11.91,0,0,1,.6,7,7.74,7.74,0,0,0,9.14,9.14,11.91,11.91,0,0,1,7,.6l.17.07a11.38,11.38,0,0,1,5.2,4.41,7.74,7.74,0,0,0,13,0A11.38,11.38,0,0,1,76,100.1l.17-.07a11.91,11.91,0,0,1,7-.6,7.74,7.74,0,0,0,9.14-9.14,11.91,11.91,0,0,1,.6-7l.07-.17a11.38,11.38,0,0,1,4.41-5.2A7.73,7.73,0,0,0,100.91,71.44Z"/><circle class="cls-3" cx="64.31" cy="71.44" r="23.87"/><path class="cls-4" d="M56.93,62.89a3.91,3.91,0,0,1,2.93-1.13,4,4,0,0,1,2.94,1.09,4.77,4.77,0,0,1,1.09,3.48,4.77,4.77,0,0,1-1.09,3.48,4.52,4.52,0,0,1-5.88,0,4.77,4.77,0,0,1-1.09-3.48A4.75,4.75,0,0,1,56.93,62.89Zm13.73-1.16,1.18.86L58.43,81.22l-1.21-.89ZM59.86,69.5a2.11,2.11,0,0,0,1.72-.71,3.91,3.91,0,0,0,.59-2.46,3.91,3.91,0,0,0-.59-2.46,2.43,2.43,0,0,0-3.44,0,3.9,3.9,0,0,0-.59,2.46Q57.54,69.5,59.86,69.5Zm6.37,3.39a3.91,3.91,0,0,1,2.93-1.13,4,4,0,0,1,2.94,1.09,4.77,4.77,0,0,1,1.09,3.48,4.76,4.76,0,0,1-1.09,3.48,4.52,4.52,0,0,1-5.88,0,4.76,4.76,0,0,1-1.09-3.48A4.75,4.75,0,0,1,66.22,72.89Zm2.93,6.61a2.11,2.11,0,0,0,1.72-.71,5.41,5.41,0,0,0,0-4.92,2.43,2.43,0,0,0-3.44,0,3.91,3.91,0,0,0-.59,2.46Q66.84,79.5,69.15,79.5Z"/></g></g></svg>