<?xml version="1.0" encoding="UTF-8"?>
<svg width="320px" height="201px" viewBox="0 0 320 201" version="1.1" xmlns="http://www.w3.org/2000/svg" xmlns:xlink="http://www.w3.org/1999/xlink">
    <!-- Generator: Sketch 48.2 (47327) - http://www.bohemiancoding.com/sketch -->
    <title>Group 15</title>
    <desc>Created with Sketch.</desc>
    <defs>
        <rect id="path-1" x="0" y="0" width="320" height="201" rx="5"></rect>
        <path d="M183.148452,51.9213231 L363.471809,79.8429523 C345.404034,109.471498 322.875747,139.942049 295.886947,171.254606 C268.898147,202.567162 238.117526,233.945905 203.545084,265.390834 L26.6627096,230.476446 C63.9887271,196.407094 95.0819782,165.189123 119.942463,136.822533 C144.802947,108.455943 165.87161,80.15554 183.148452,51.9213231 Z" id="path-3"></path>
        <path d="M183.148452,51.9213231 L363.471809,79.8429523 C345.404034,109.471498 322.875747,139.942049 295.886947,171.254606 C268.898147,202.567162 238.117526,233.945905 203.545084,265.390834 L26.6627096,230.476446 C63.9887271,196.407094 95.0819782,165.189123 119.942463,136.822533 C144.802947,108.455943 165.87161,80.15554 183.148452,51.9213231 Z" id="path-4"></path>
        <path d="M183.148452,51.9213231 L363.471809,79.8429523 C345.404034,109.471498 322.875747,139.942049 295.886947,171.254606 C268.898147,202.567162 238.117526,233.945905 203.545084,265.390834 L26.6627096,230.476446 C63.9887271,196.407094 95.0819782,165.189123 119.942463,136.822533 C144.802947,108.455943 165.87161,80.15554 183.148452,51.9213231 Z" id="path-5"></path>
        <polygon id="path-6" points="0.283739893 21.5543391 4.82790992 23.6276863 0.201384106 26.6869537 16.5764616 24.7449774 24.6106652 23.7447935 26.4658922 18.4515664"></polygon>
        <polygon id="path-7" points="11.2255063 36.1009025 15.7453675 34.1499589 15.8392611 38.594157 23.2530517 27.3999874 26.2978438 22.1615241 21.1285855 19.7325602"></polygon>
        <polygon id="path-8" points="16.1410123 19.6558118 11.1339287 15.0902896 15.3069284 10.9939525 14.7665293 5.63002308 22.0142825 4.3602408 26.1872822 0.263903709 33.7287203 2.2920514 40.9764735 1.02226912 45.9835571 5.5877914 53.5249951 7.61593909 54.0653942 12.9798685 59.0724778 17.5453908 54.8994781 21.6417279 55.4398771 27.0056572 48.1921239 28.2754395 44.0191242 32.3717766 36.4776862 30.3436289 29.229933 31.6134112 24.2228494 27.0478889 16.6814113 25.0197412"></polygon>
    </defs>
    <g id="Root" stroke="none" stroke-width="1" fill="none" fill-rule="evenodd" transform="translate(-880.000000, -1387.000000)">
        <g id="How-it-works-" transform="translate(198.000000, 1295.000000)">
            <g id="Group-15" transform="translate(682.000000, 92.000000)">
                <mask id="mask-2" fill="white">
                    <use xlink:href="#path-1"></use>
                </mask>
                <use id="Rectangle-3" fill="#F9FAFB" xlink:href="#path-1"></use>
                <g id="Group-29" mask="url(#mask-2)">
                    <g transform="translate(187.191337, 83.621597) rotate(1.000000) translate(-187.191337, -83.621597) translate(-52.808663, -139.378403)" id="Group-22">
                        <g transform="translate(242.102494, 229.725599) rotate(-20.000000) translate(-242.102494, -229.725599) translate(47.102494, 71.225599)">
                            <g id="Rectangle-15" transform="translate(195.067259, 158.656079) rotate(20.000000) translate(-195.067259, -158.656079) ">
                                <use fill="#FCFCFC" fill-rule="evenodd" xlink:href="#path-3"></use>
                                <path stroke="#D6DBDE" stroke-width="1" d="M183.400978,52.4663833 C166.141388,80.6314276 145.113776,108.859887 120.31849,137.152084 C95.6073716,165.348242 64.7451157,196.356426 27.7312666,230.177718 L203.394878,264.851538 C237.877098,233.476543 268.581516,202.168674 295.508213,170.928169 C322.285663,139.860822 344.667581,109.625332 362.654223,80.2223142 L183.400978,52.4663833 Z"></path>
                            </g>
                        </g>
                        <g transform="translate(239.980632, 222.761570) rotate(-20.000000) translate(-239.980632, -222.761570) translate(44.980632, 64.261570)">
                            <g id="Rectangle-15" transform="translate(195.067259, 158.656079) rotate(20.000000) translate(-195.067259, -158.656079) ">
                                <use fill="#FCFCFC" fill-rule="evenodd" xlink:href="#path-4"></use>
                                <path stroke="#D6DBDE" stroke-width="1" d="M183.400978,52.4663833 C166.141388,80.6314276 145.113776,108.859887 120.31849,137.152084 C95.6073716,165.348242 64.7451157,196.356426 27.7312666,230.177718 L203.394878,264.851538 C237.877098,233.476543 268.581516,202.168674 295.508213,170.928169 C322.285663,139.860822 344.667581,109.625332 362.654223,80.2223142 L183.400978,52.4663833 Z"></path>
                            </g>
                        </g>
                        <g transform="translate(237.858769, 215.797541) rotate(-20.000000) translate(-237.858769, -215.797541) translate(42.858769, 57.297541)">
                            <g id="Rectangle-15" transform="translate(195.067259, 158.656079) rotate(20.000000) translate(-195.067259, -158.656079) ">
                                <use fill="#FCFCFC" fill-rule="evenodd" xlink:href="#path-5"></use>
                                <path stroke="#D6DBDE" stroke-width="1" d="M183.400978,52.4663833 C166.141388,80.6314276 145.113776,108.859887 120.31849,137.152084 C95.6073716,165.348242 64.7451157,196.356426 27.7312666,230.177718 L203.394878,264.851538 C237.877098,233.476543 268.581516,202.168674 295.508213,170.928169 C322.285663,139.860822 344.667581,109.625332 362.654223,80.2223142 L183.400978,52.4663833 Z"></path>
                            </g>
                            <g id="signature" transform="translate(172.540082, 215.280094) rotate(29.000000) translate(-172.540082, -215.280094) translate(153.540082, 207.780094)" stroke="#4DA3FC" stroke-width="0.699999988">
                                <path d="M27.823904,8.62830816 C26.2879916,9.95314883 22.7102206,12.6028301 23.2116485,12.9340403 C23.7130763,13.2652505 28.3141874,9.77643311 28.8132045,10.284359 C29.3122215,10.7922849 26.7532722,12.9340403 27.7606463,13.2652505 C28.7680204,13.5964606 35.1890306,13.2652505 37.8890374,13.2652505" id="Path-3" stroke-linecap="round"></path>
                                <path d="M20.6792206,13.2084716 C20.1876245,12.2148411 25.293359,8.24031911 24.7882076,8.24031911 C24.2830562,8.24031911 18.667652,12.5460513 18.1625006,12.5460513 C15.278228,12.5460513 20.2373269,8.57152928 20.2373269,8.57152928 C20.2373269,8.57152928 18.7263913,8.24031911 18.7354281,7.57789878 C18.7444649,6.91547845 15.6322254,12.8772614 14.1212897,12.5460513 C12.610354,12.2148411 15.6909647,8.57152928 15.6909647,8.57152928 C15.6909647,8.57152928 10.571675,13.5396818 9.57040905,12.8772614 C8.56914313,12.2148411 13.1877999,6.91547845 17.7477174,5.92184796" id="Path-4"></path>
                                <path d="M5.84178517,3.9852038 C5.84178517,3.9852038 13.9758039,0.0925490514 14.9859182,0.0925490514 C15.9960325,0.0925490514 0.246327548,6.90475236 0.206500321,9.82418593 C0.14897097,14.0412286 11.2867806,12.0949012 13.395516,5.60714328 C14.3177098,2.76991173 1.22546532,9.17541014 1.1590853,14.0412286" id="Path-5"></path>
                            </g>
                            <g id="Group-28" transform="translate(77.447358, 170.380478) rotate(-7.000000) translate(-77.447358, -170.380478) translate(47.447358, 150.880478)">
                                <g id="Path">
                                    <use fill="#FFFFFF" fill-rule="evenodd" xlink:href="#path-6"></use>
                                    <path stroke="#0ABE55" stroke-width="1" d="M2.11591612,21.8407118 L5.8560986,23.5472274 L2.23386388,25.9424122 L16.5146931,24.2488074 L24.2413264,23.2869132 L25.7289913,19.0423931 L2.11591612,21.8407118 Z"></path>
                                </g>
                                <g id="Path">
                                    <use fill="#FFFFFF" fill-rule="evenodd" xlink:href="#path-7"></use>
                                    <path stroke="#0ABE55" stroke-width="1" d="M12.4623877,35.022428 L16.229558,33.3963744 L16.3053764,36.9850331 L22.8207685,27.1487282 L25.591366,22.3820074 L21.323363,20.3765311 L12.4623877,35.022428 Z"></path>
                                </g>
                                <g id="Path">
                                    <use fill="#FCFCFC" fill-rule="evenodd" xlink:href="#path-8"></use>
                                    <path stroke="#0ABE55" stroke-width="1" d="M17.1443213,24.6264677 L24.469989,26.5965874 L29.385434,31.0785525 L36.391402,29.8511301 L36.6075392,29.8607851 L43.8728893,31.8146834 L47.9527656,27.8097588 L54.8958085,26.5933608 L54.3779378,21.4530451 L58.3450784,17.5587853 L53.5870955,13.2203963 L53.0620851,8.00921266 L45.7364175,6.03909292 L40.8209724,1.55712786 L33.8150044,2.78455018 L33.5988672,2.77489525 L26.3335172,0.820996963 L22.2536408,4.82592149 L15.310598,6.04231953 L15.8284687,11.1826352 L11.8613281,15.076895 L16.6193109,19.415284 L17.1443213,24.6264677 Z"></path>
                                </g>
                                <path d="M28.9633431,17.1895388 L30.6137197,18.7894751 C30.6137197,18.7894751 33.6534065,17.0440279 34.1809939,16.7754228 C34.7733678,17.010865 35.4836165,17.0332379 36.0236206,16.791027 C36.8066265,16.4398213 36.9366259,15.6661373 36.3140449,15.0625841 C35.6914638,14.4590309 34.5524537,14.2545425 33.7694478,14.6057482 C33.2307937,14.8473536 33.001106,15.2894185 33.1135595,15.7382193 C32.5373061,15.9658673 28.9633431,17.1895388 28.9633431,17.1895388 Z M43.975424,18.3616923 C44.1866186,18.5664321 44.4085605,18.7629266 44.6389565,18.9518241 C44.6533093,18.9666953 44.6677313,18.9811551 44.6824216,18.995875 L40.5962782,20.8286544 C35.9826184,22.8980435 29.8403399,22.5834298 24.894455,20.3729795 C24.8575472,20.3549068 24.8242301,20.3321794 24.7963213,20.3051236 C24.7678758,20.2775474 24.748128,20.2483532 24.7345852,20.2175173 C24.7242101,20.1864022 24.7139041,20.1548755 24.7035981,20.1233489 C23.4658584,16.3109283 25.2866,12.4748477 29.862122,10.4225648 C32.6026415,9.21440051 33.9766813,8.61382333 33.9842413,8.62083323 C34.0761434,8.72763358 34.1715505,8.83400333 34.2952814,8.96495971 C34.3371973,9.0089445 34.3791131,9.0529293 34.4223099,9.09672009 C34.4748299,9.15002776 34.5282932,9.20329281 34.5830374,9.25636386 C36.4183097,11.035545 39.0176775,12.225046 41.734086,12.7087 C41.4296345,14.4871942 42.0911175,16.4397402 43.7971235,18.1840554 C43.8192585,18.2064711 43.8419995,18.2289955 43.8644721,18.2512599 C43.8925109,18.2793989 43.9198748,18.3078407 43.975424,18.3616923 Z" id="Page-1" fill="#009CFB"></path>
                            </g>
                            <g id="Group-20" transform="translate(224.706126, 140.642019) rotate(-320.000000) translate(-224.706126, -140.642019) translate(135.206126, 55.642019)" stroke="#D6DBDE">
                                <path d="M47.5933479,45.4669076 C50.6785845,43.5418847 53.0661581,42.4624069 54.7560685,42.2284743 C57.2909342,41.8775753 55.2437789,44.4078659 57.7333523,44.0632367 C60.2229257,43.7186074 62.8936187,41.1020012 65.5004839,40.7411354 C68.1073491,40.3802696 65.7117042,42.9588012 68.1602607,42.6198499 C70.6088171,42.2808986 72.7576433,39.7365339 75.2962036,39.3851235 C77.834764,39.033713 75.3495641,41.6246417 78.3122878,41.2145147 C81.2750114,40.8043878 84.4074158,38.1238673 87.1461554,37.7447462 C89.8848951,37.3656251 86.7024587,40.0530716 89.2698317,39.6976726 C91.8372048,39.3422737 94.824891,36.6817863 97.4145835,36.3232977 C100.004276,35.9648091 97.0240379,38.6242654 99.6295226,38.2635907 C102.235007,37.902916 105.162775,35.2507232 107.835481,34.8807431 C110.508186,34.5107631 107.728143,37.1425066 110.320929,36.7835898 C112.913715,36.424673 115.645601,33.7995957 118.206648,33.4450726 C120.767694,33.0905495 117.858376,35.7401883 120.565312,35.3654699 C123.272247,34.9907515 126.434875,32.3060472 129.033036,31.9463863 C131.631196,31.5867255 128.433091,34.2763409 130.959978,33.9265465 C133.486864,33.576752 136.628306,30.8949804 139.139158,30.5474057 C141.65001,30.1998309 138.531341,32.87845 141.004894,32.5360385 C143.478446,32.1936271 146.579044,29.5175095 149.032152,29.1779282 C151.485259,28.8383469 148.320117,31.5233993 150.818648,31.1775302 C153.317178,30.831661 156.426757,28.1543002 159.024606,27.7946826 C161.622454,27.435065 158.709233,30.0852441 161.211128,29.7389093 C163.713022,29.3925746 166.616439,26.7437524 169.031815,26.4093944 C171.44719,26.0750364 168.601092,28.7159238 170.873505,28.4013558 C172.388447,28.1916439 174.804438,27.1082324 178.121477,25.1511213" id="Path-7"></path>
                                <path d="M96.2825892,9.53604532 C98.8499623,9.18064637 101.837648,6.52015904 104.427341,6.16167042 C107.017034,5.80318181 104.036795,8.46263814 106.64228,8.10196343 C109.247765,7.74128873 112.175532,5.08909589 114.848238,4.71911583 C117.520944,4.34913577 114.740901,6.9808793 117.333687,6.62196249 C119.926472,6.26304567 122.658359,3.63796843 125.219405,3.28344531 C127.780451,2.92892219 124.871134,5.57856102 127.578069,5.20384258 C130.285005,4.82912415 133.447632,2.14441986 136.045793,1.78475901 C138.643954,1.42509817 135.445849,4.11471356 137.972735,3.76491915 C140.499622,3.41512474 143.641063,0.73335314 146.151915,0.385778358 C148.662767,0.0382035759 145.544099,2.71682266 148.017651,2.37441121" id="Path-7"></path>
                                <path d="M45.5759752,57.2019837 C48.6398188,55.2764973 51.0101998,54.196647 52.6871184,53.9624329 C55.2024963,53.6111117 53.1675904,56.1416676 55.6380241,55.7966237 C58.1084579,55.4515798 60.7621078,52.8346043 63.3489316,52.4733042 C65.9357555,52.1120042 63.5550392,54.6908593 65.9847713,54.3515001 C68.4145035,54.012141 70.5502986,51.4674939 73.0693427,51.1156606 C75.5883868,50.7638273 73.118804,53.3550943 76.0587505,52.9444739 C78.9986969,52.5338534 82.1105087,49.8528867 84.8281931,49.4733095 C87.5458776,49.0937322 84.3844185,51.7816331 86.9320538,51.4258065 C89.4796892,51.0699799 92.4478952,48.4090705 95.0176784,48.0501505 C97.5874617,47.6912305 94.6266463,50.3511077 97.2121003,49.989999 C99.7975543,49.6288903 102.706302,46.9762853 105.358461,46.6058601 C108.010619,46.2354348 105.248459,48.8675658 107.821312,48.5082171 C110.394165,48.1488684 113.108538,45.5234117 115.649895,45.168462 C118.191252,44.8135123 115.300812,47.4635601 117.986937,47.0883908 C120.673062,46.7132214 123.814864,44.0280659 126.39305,43.6679723 C128.971237,43.3078787 125.79423,45.9979512 128.30169,45.6477359 C130.809149,45.2975205 133.929929,42.6153013 136.421478,42.2673082 C138.913027,41.9193152 135.814845,44.5983782 138.269381,44.2555547 C140.723917,43.9127312 143.804167,41.2361727 146.238415,40.8961828 C148.672663,40.5561929 145.528366,43.241697 148.007688,42.8954116 C150.48701,42.5491263 153.576172,39.8713231 156.154048,39.5112727 C158.731924,39.1512224 155.837611,41.8018112 158.320271,41.4550597 C160.802931,41.1083082 163.687516,38.459078 166.084322,38.1243176 C168.481128,37.7895573 165.653422,40.4308432 167.908365,40.1158967 C169.411661,39.9059324 171.810241,38.8221436 175.104105,36.8645304" id="Path-7"></path>
                                <path d="M42.1546987,68.8583495 C45.2185423,66.9328631 47.5889234,65.8530129 49.265842,65.6187987 C51.7812198,65.2674775 49.7463139,67.7980335 52.2167477,67.4529896 C54.6871815,67.1079456 57.3408313,64.4909701 59.9276552,64.1296701 C62.5144791,63.76837 60.1337627,66.3472251 62.5634949,66.007866 C64.993227,65.6685068 67.1290222,63.1238597 69.6480663,62.7720264 C72.1671104,62.4201931 69.6975276,65.0114602 72.637474,64.6008397 C75.5774205,64.1902193 78.6892322,61.5092525 81.4069167,61.1296753 C84.1246011,60.750098 80.9631421,63.437999 83.5107774,63.0821724 C86.0584127,62.7263458 89.0266187,60.0654364 91.596402,59.7065164 C94.1661852,59.3475964 91.2053699,62.0074735 93.7908238,61.6463648 C96.3762778,61.2852561 99.2850257,58.6326512 101.937184,58.2622259 C104.589342,57.8918006 101.827183,60.5239317 104.400036,60.164583 C106.972888,59.8052343 109.687261,57.1797776 112.228618,56.8248278 C114.769976,56.4698781 111.879536,59.119926 114.565661,58.7447566 C117.251785,58.3695873 120.393588,55.6844318 122.971774,55.3243381 C125.54996,54.9642445 122.372953,57.654317 124.880413,57.3041017 C127.387873,56.9538864 130.508653,54.2716671 133.000201,53.9236741 C135.49175,53.575681 132.393569,56.254744 134.848105,55.9119205 C137.302641,55.569097 140.382891,52.8925386 142.817139,52.5525487 C145.251387,52.2125588 142.107089,54.8980628 144.586411,54.5517775 C147.065733,54.2054921 150.154895,51.5276889 152.732772,51.1676386 C155.310648,50.8075882 152.416335,53.458177 154.898995,53.1114255 C157.381654,52.764674 160.26624,50.1154438 162.663046,49.7806835 C165.059852,49.4459231 162.232146,52.087209 164.487089,51.7722625 C165.990384,51.5622982 168.388964,50.4785094 171.682828,48.5208962" id="Path-7"></path>
                                <path d="M39.1574926,79.4690285 C42.204827,77.5884216 45.5421899,76.6170144 47.19236,76.40955 C49.6676152,76.0983533 47.6166248,78.6024401 50.0476528,78.2968039 C52.4786808,77.9911676 55.1385456,75.4105312 57.6841072,75.0904954 C60.2296687,74.7704596 57.8383839,77.3173293 60.2293595,77.0167285 C62.6203351,76.7161277 64.7706054,74.1995592 67.2494684,73.8879089 C69.7283313,73.5762587 67.2495976,76.1341227 70.1426491,75.7703994 C73.0357006,75.4066761 76.1464191,72.769357 78.8207539,72.4331315 C81.4950887,72.0969059 78.3355147,74.7403672 80.8425128,74.4251797 C83.349511,74.1099923 86.3189144,71.4904398 88.8477072,71.1725122 C91.3764999,70.8545846 88.4143692,73.4732228 90.9585827,73.1533565 C93.5027962,72.8334901 96.41369,70.2212937 99.0235439,69.8931748 C101.633398,69.565056 98.8667542,72.1591169 101.398567,71.8408096 C103.930381,71.5225023 106.65,68.9343534 109.15082,68.6199427 C111.65164,68.3055319 108.758762,70.9154634 111.402041,70.5831423 C114.045319,70.2508212 117.18555,67.6097918 119.722612,67.2908246 C122.259674,66.9718574 119.0848,69.6172423 121.552263,69.3070252 C124.019727,68.9968082 127.13927,66.3583796 129.591076,66.050131 C132.042883,65.7418824 128.945577,68.3775152 131.360961,68.0738457 C133.776345,67.7701763 136.856005,65.136762 139.251424,64.8356025 C141.646844,64.534443 138.504157,67.1757812 140.943932,66.8690453 C143.383707,66.5623093 146.472137,63.9277924 149.008893,63.6088636 C151.54565,63.2899348 148.648961,65.9003454 151.09202,65.5931966 C153.535079,65.2860477 156.422196,62.6768405 158.78077,62.3803133 C161.139345,62.0837861 158.3082,64.6859563 160.527175,64.40698 C162.006491,64.2209958 164.382992,63.1734715 167.656678,61.264407" id="Path-7"></path>
                                <path d="M34.6714604,92.042594 C37.7827498,90.1644688 39.1901895,89.0667709 40.8791992,88.8608135 C43.4127136,88.5518775 41.3251034,91.0545434 43.8133497,90.7511273 C46.301596,90.4477113 49.0124114,87.869052 51.617887,87.5513411 C54.2233626,87.2336301 51.7874486,89.778768 54.2346998,89.4803509 C56.681951,89.1819338 58.8711778,86.6668769 61.4083849,86.3574906 C63.9455921,86.0481043 61.4201708,88.6041567 64.3813151,88.2430756 C67.3424594,87.8819945 70.5147402,85.2470643 73.2520199,84.9132812 C75.9892996,84.5794981 72.7670135,87.220526 75.333018,86.9076281 C77.8990225,86.5947303 80.9266621,83.9774375 83.5149743,83.6618195 C86.1032864,83.3462015 83.0830906,85.9625865 85.6871864,85.6450438 C88.2912822,85.3275012 91.2590351,82.717511 93.9303162,82.3917757 C96.6015974,82.0660405 93.7814899,84.6580268 96.3728936,84.3420318 C98.9642974,84.0260368 101.736274,81.4399196 104.295955,81.1277928 C106.855636,80.815666 103.906323,83.4234076 106.611815,83.0935007 C109.317308,82.7635937 112.519796,80.12498 115.116571,79.8083299 C117.713347,79.4916799 114.475401,82.1346173 117.00094,81.8266538 C119.52648,81.5186903 122.707793,78.8826586 125.217307,78.5766492 C127.72682,78.2706399 124.568268,80.9038961 127.040502,80.6024326 C129.512736,80.3009691 132.653227,77.6699153 135.105027,77.3709435 C137.556827,77.0719717 134.351825,79.7108919 136.849024,79.4063842 C139.346223,79.1018765 142.495691,76.4697281 145.092154,76.1531161 C147.688617,75.8365041 144.735404,78.4447214 147.235964,78.1398038 C149.736525,77.8348862 152.679941,75.2278636 155.094028,74.9334905 C157.508116,74.6391173 154.621989,77.239154 156.893191,76.9622043 C158.407326,76.7775712 160.835877,75.7320666 164.178846,73.8256905" id="Path-7"></path>
                                <path d="M30.4486248,103.425682 C33.5385959,101.546729 35.921613,100.504023 37.5976761,100.297563 C40.1117708,99.9878739 38.0363672,102.491013 40.5055407,102.186857 C42.9747143,101.882701 45.6685462,99.3033829 48.2540504,98.984897 C50.8395547,98.6664111 48.418517,101.212126 50.8470097,100.912981 C53.2755024,100.613836 55.4517437,98.0982754 57.9695028,97.7881345 C60.4872618,97.4779935 57.9774031,100.03465 60.9158498,99.672688 C63.8542965,99.3107262 67.0060565,96.6749996 69.7223546,96.3404024 C72.4386527,96.0058051 69.2372706,98.6476442 71.7836063,98.3339831 C74.329942,98.0203221 77.3381696,95.4022761 79.9066419,95.0858882 C82.4751142,94.7695003 79.4742735,97.3866364 82.0584086,97.0683192 C84.6425436,96.7500019 87.5913434,94.1392763 90.2421488,93.8127465 C92.8929542,93.4862168 90.090668,96.0788946 92.6622083,95.7621288 C95.2337486,95.4453631 97.9882726,92.8585686 100.528333,92.5456805 C103.068394,92.2327924 100.137893,94.841264 102.822647,94.5105523 C105.507402,94.1798406 108.689137,91.5404217 111.266008,91.2229993 C113.842879,90.9055768 110.625957,93.5493301 113.132138,93.2406154 C115.638319,92.9319007 118.799042,90.29507 121.28932,89.9883143 C123.779598,89.6815585 120.641461,92.3156069 123.094745,92.0134081 C125.548029,91.7112093 128.668243,89.0793686 131.101249,88.7796676 C133.534256,88.4799666 130.350026,91.1196928 132.828083,90.8144423 C135.306141,90.5091919 138.435263,87.876254 141.011824,87.5588697 C143.588385,87.2414855 140.654013,89.8504338 143.135406,89.5447725 C145.616799,89.2391111 148.541449,86.6313603 150.937032,86.3362692 C153.332616,86.041178 150.464816,88.6419259 152.718609,88.3643007 C154.221138,88.1792172 156.632339,87.1330393 159.952213,85.2257671" id="Path-7"></path>
                                <path d="M25.7485538,116.377988 C28.8592037,114.499838 30.2702287,113.385148 31.95885,113.179176 C34.4917818,112.870217 32.4045378,115.372897 34.8922119,115.069459 C37.3798861,114.766021 40.090192,112.187342 42.6950685,111.869608 C45.299945,111.551874 42.8644772,114.097029 45.3111657,113.79859 C47.7578542,113.500151 49.9466915,110.985079 52.4833152,110.67567 C55.0199389,110.366261 52.4949845,112.922332 55.4554479,112.561224 C58.4159113,112.200117 61.5875765,109.565162 64.3242268,109.231355 C67.0608771,108.897547 63.839218,111.5386 66.4046325,111.225679 C68.9700469,110.912758 71.9971043,108.295443 74.5848212,107.979802 C77.1725381,107.66416 74.152923,110.280568 76.75642,109.963002 C79.359917,109.645436 82.3271013,107.035424 84.9977682,106.709665 C87.6684351,106.383906 84.8488622,108.975913 87.4396701,108.659895 C90.030478,108.343877 92.8019308,105.757739 95.3610232,105.445589 C97.9201155,105.13344 94.9713672,107.741203 97.6762376,107.411272 C100.381108,107.081341 103.582973,104.442703 106.179152,104.12603 C108.77533,103.809357 105.538015,106.452319 108.062973,106.144333 C110.587932,105.836347 113.768628,103.200291 116.277564,102.894259 C118.786501,102.588227 115.628561,105.221507 118.100227,104.920022 C120.571892,104.618536 123.711775,101.987459 126.163011,101.688465 C128.614247,101.389472 125.409869,104.028416 127.906493,103.723886 C130.403118,103.419356 133.551975,100.787184 136.147842,100.470549 C138.743708,100.153914 135.79106,102.762153 138.291045,102.457213 C140.79103,102.152273 143.733884,99.5452286 146.147416,99.2508339 C148.560948,98.9564392 145.675372,101.556497 147.946051,101.279527 C149.459838,101.094881 151.887869,100.049356 155.230144,98.1429528" id="Path-7"></path>
                                <path d="M19.7174271,129.997868 C22.7984445,128.118568 25.1742661,127.075583 26.8448917,126.868912 C29.3508301,126.558906 27.2805532,129.062244 29.7417163,128.757778 C32.2028793,128.453311 34.8895781,125.873715 37.4666944,125.554904 C40.0438107,125.236093 37.6290212,127.78205 40.0496353,127.4826 C42.4702494,127.183149 44.6410369,124.667376 47.1506278,124.356919 C49.6602187,124.046461 47.1568962,126.603371 50.0858099,126.241039 C53.0147236,125.878707 56.157865,123.242646 58.8653508,122.907707 C61.5728367,122.572768 58.3802342,125.214947 60.9183091,124.900966 C63.4563839,124.586984 66.4564585,121.968622 69.0165981,121.651911 C71.5767378,121.335199 68.5840261,123.952651 71.1597777,123.634008 C73.7355292,123.315366 76.6763688,120.704331 79.3185744,120.377468 C81.96078,120.050605 79.1659788,122.643573 81.7291764,122.326483 C84.2923741,122.009394 87.0395681,119.422315 89.5713882,119.109107 C92.1032084,118.795899 89.1806082,121.404677 91.8566528,121.073628 C94.5326974,120.742578 97.705717,118.102821 100.274228,117.785074 C102.842739,117.467327 99.6346471,120.111423 102.132697,119.802393 C104.630747,119.493363 107.782823,116.856197 110.265022,116.549127 C112.747221,116.242058 109.617658,118.876439 112.062983,118.573931 C114.508308,118.271424 117.620006,115.639253 120.045119,115.339245 C122.470233,115.039238 119.294727,117.679303 121.764745,117.37374 C124.234763,117.068178 127.35534,114.434909 129.923542,114.1172 C132.491744,113.799491 129.565285,116.408747 132.038628,116.102773 C134.511971,115.796799 137.428739,113.188743 139.816551,112.89335 C142.204362,112.597957 139.34426,115.199004 141.590741,114.921095 C143.088395,114.735822 145.49231,113.689362 148.802485,111.781713" id="Path-7"></path>
                                <path d="M13.6954593,142.958881 C16.7824459,141.079813 19.1630645,140.037013 20.8373151,139.830483 C23.348691,139.520688 21.2749964,142.023894 23.7414997,141.719634 C26.2080031,141.415375 28.8994573,138.835964 31.4821655,138.51737 C34.0648738,138.198775 31.6459189,140.744571 34.0717854,140.445324 C36.4976519,140.146078 38.6720752,137.630446 41.1871116,137.3202 C43.7021479,137.009953 41.1944679,139.566694 44.129737,139.204609 C47.065006,138.842524 50.2138932,136.206686 52.9272538,135.871974 C55.6406145,135.537263 52.4421589,138.179216 54.985741,137.865448 C57.5293231,137.55168 60.534833,134.933528 63.1005278,134.617033 C65.6662225,134.300537 62.6680915,136.917778 65.2494321,136.599353 C67.8307726,136.280927 70.776919,133.670098 73.4248578,133.343457 C76.0727966,133.016816 73.2730054,135.609591 75.8417648,135.292717 C78.4105242,134.975844 81.1626049,132.388954 83.6999187,132.07596 C86.2372325,131.762965 83.3093651,134.371539 85.9912163,134.040715 C88.6730675,133.70989 91.8518976,131.070359 94.425982,130.752828 C97.0000664,130.435297 93.7860876,133.079165 96.2895582,132.770345 C98.7930287,132.461525 101.95087,129.824583 104.438454,129.517722 C106.926039,129.210862 103.790761,131.845021 106.241392,131.54272 C108.692022,131.240418 111.809398,128.608467 114.239773,128.308664 C116.670148,128.008861 113.488827,130.6487 115.964204,130.343345 C118.439582,130.037991 121.565855,127.404943 124.13963,127.08745 C126.713405,126.769958 123.781671,129.379009 126.260381,129.073243 C128.73909,128.767478 131.661113,126.159625 134.054106,125.864433 C136.447098,125.569242 134.574575,128.225746 136.82593,127.948026 C138.326834,127.762879 140.735606,126.716607 144.052247,124.809209" id="Path-7"></path>
                                <path d="M7.94853452,155.880578 C11.0058162,154.000357 13.3625626,152.956631 15.0187736,152.749401 C17.5030901,152.438556 16.4391139,154.998078 18.8790414,154.692787 C21.3189688,154.387497 23.9867582,151.807168 26.5416385,151.487493 C29.0965188,151.167819 26.6982926,153.71442 29.098021,153.414158 C31.4977494,153.113897 33.6540789,150.597564 36.1420164,150.286266 C38.6299539,149.974968 36.1439586,152.53255 39.0476009,152.169238 C41.9512432,151.805925 45.0715368,149.168978 47.7556618,148.833132 C50.4397867,148.497286 47.2704588,151.140369 49.7866345,150.825538 C52.3028101,150.510706 55.2812714,147.891505 57.8193215,147.573937 C60.3573716,147.256369 57.3862097,149.874656 59.939737,149.555151 C62.4932643,149.235647 65.4130017,146.623793 68.0324097,146.296045 C70.6518176,145.968297 67.8768585,148.562035 70.4179402,148.244088 C72.959022,147.92614 75.6867846,145.338307 78.1967595,145.024252 C80.7067344,144.710196 77.8050792,147.319787 80.4580342,146.987841 C83.1109892,146.655896 86.2609031,144.015242 88.8072525,143.696635 C91.3536018,143.378028 88.1689179,146.023033 90.6454142,145.713166 C93.1219106,145.4033 96.2510615,142.765244 98.7118431,142.457343 C101.172625,142.149443 98.0657932,144.784706 100.490019,144.48138 C102.914245,144.178054 106.003367,141.545006 108.407555,141.244187 C110.811744,140.943368 107.659365,143.58433 110.108071,143.277941 C112.556778,142.971551 115.654701,140.337403 118.200744,140.018834 C120.746787,139.700266 117.841307,142.310335 120.293309,142.003534 C122.745312,141.696732 125.641185,139.087864 128.008394,138.791672 C130.375603,138.49548 128.528616,141.152975 130.755714,140.874314 C132.240446,140.68854 134.625043,139.64133 137.909504,137.732683" id="Path-7"></path>
                                <path d="M0.930309087,169.419356 C3.97918992,167.538809 6.32918495,166.494822 7.98029417,166.287394 C9.6314034,166.079966 9.39779203,168.535961 11.8302035,168.230378 C14.262615,167.924796 16.9237117,165.344207 19.4707219,165.024227 C22.0177322,164.704248 19.6253683,167.251076 22.0177046,166.950528 C24.4100409,166.64998 26.5612531,164.133448 29.0415268,163.821852 C31.5218004,163.510257 29.0419378,166.068077 31.9366357,165.704417 C34.8313337,165.340758 37.9435407,162.703497 40.6193975,162.36733 C43.2952542,162.031164 40.1341639,164.674566 42.6425888,164.359434 C45.1510136,164.044302 48.1218252,161.424804 50.652057,161.106932 C53.1822889,160.789061 50.2187543,163.407644 52.7644157,163.087834 C55.3100771,162.768024 58.2223457,160.155881 60.8336848,159.82782 C63.4450239,159.499759 60.6770876,162.093769 63.2103418,161.775518 C65.743596,161.457266 68.4644812,158.869167 70.9667244,158.554811 C73.4689676,158.240456 70.5747254,160.850334 73.2195082,160.518071 C75.864291,160.185809 79.0060272,157.544838 81.5445327,157.225927 C84.0830383,156.907015 80.9066393,159.552341 83.375507,159.242179 C85.8443747,158.932016 88.9654118,156.293645 91.4186133,155.985451 C93.8718147,155.677256 90.7730283,158.312832 93.1897867,158.009216 C95.6065452,157.7056 98.6876759,155.072242 101.084459,154.771136 C103.481242,154.470029 100.337048,157.111309 102.778211,156.804627 C105.219374,156.497945 108.30928,153.863485 110.847481,153.544612 C113.385681,153.22574 110.487625,155.836097 112.932075,155.529002 C115.376524,155.221907 118.265002,152.612753 120.624919,152.316278 C122.984836,152.019803 121.145071,154.677578 123.365309,154.398651 C124.845467,154.212699 128.215937,153.22088 131.491298,151.311881" id="Path-7"></path>
                            </g>
                        </g>
                    </g>
                </g>
            </g>
        </g>
    </g>
</svg>